<?xml version="1.0" encoding="UTF-8"?>
<!DOCTYPE svg PUBLIC "-//W3C//DTD SVG 1.0//EN" "http://www.w3.org/TR/2001/REC-SVG-20010904/DTD/svg10.dtd">
<!-- Creator: CorelDRAW -->
<svg xmlns="http://www.w3.org/2000/svg" xml:space="preserve" width="109.273mm" height="109.273mm" version="1.0" style="shape-rendering:geometricPrecision; text-rendering:geometricPrecision; image-rendering:optimizeQuality; fill-rule:evenodd; clip-rule:evenodd"
viewBox="0 0 10919.43 10919.43"
 xmlns:xlink="http://www.w3.org/1999/xlink"
 xmlns:xodm="http://www.corel.com/coreldraw/odm/2003">
 <defs>
  <style type="text/css">
   <![CDATA[
    .fil0 {fill:url(#id0)}
   ]]>
  </style>
  <linearGradient id="id0" gradientUnits="userSpaceOnUse" x1="5458.35" y1="0.01" x2="5458.35" y2="10916.69">
   <stop offset="0" style="stop-opacity:1; stop-color:#3B82F6"/>
   <stop offset="1" style="stop-opacity:1; stop-color:#7FC3FF"/>
  </linearGradient>
 </defs>
 <g id="Camada_x0020_1">
  <metadata id="CorelCorpID_0Corel-Layer"/>
  <path class="fil0" d="M5459.73 0c3015.3,0 5459.69,2444.39 5459.69,5459.73 0,3015.3 -2444.39,5459.69 -5459.69,5459.69 -3015.34,0 -5459.73,-2444.39 -5459.73,-5459.69 0,-3015.34 2444.39,-5459.73 5459.73,-5459.73zm1693.14 8473.98c67.67,0 125.32,-3.16 192.41,-2.85 20.62,0.1 30.92,-5.07 43.92,-5.33 23.38,-0.44 8.59,2.19 41.37,-2.64 62.22,-9.15 109.57,-14.63 169.87,-28.31 14.31,-3.24 26.53,-5.59 40.43,-9.1 9.07,-2.28 13.21,-2.3 21.39,-4.84l131.45 -40.49c15.25,-5.82 12.41,-9.98 34.51,-15.03l70.13 -28.96c35.27,-21.87 105.12,-46.77 160.83,-83.97 10.94,-7.3 21.28,-9.67 31.24,-18.29 19.77,-17.16 89.65,-61.01 117.45,-80.73 9.24,-6.56 16.47,-14.97 26.57,-22.98 9.8,-7.78 18.4,-13.44 28.11,-21.42 11.04,-9.1 16,-13.15 26.15,-23.38l26.26 -23.27c4.45,-4.11 9.11,-8.66 13.05,-13.18l24.83 -24.71c4.53,-4.17 7.19,-7.24 11.62,-11.69 32.73,-32.83 65.62,-65.13 93.53,-101.73 2.3,-3.02 4.16,-5.29 6.51,-8.06l36.8 -47.72c38.8,-51.88 66.53,-90.5 100.53,-147.16l112.15 -231.74c6.3,-13.65 5.06,-24.67 11.5,-38.04 22.41,-46.57 45.91,-138.81 56.69,-191.02 2.86,-13.87 6.36,-24.93 9.34,-40.18 2.67,-13.54 1.29,-29.36 5.54,-44.02 6.24,-21.53 14.04,-98.36 17.21,-131.43l5.54 -784.22c-0.11,-20.43 2.84,-29.09 3.05,-46.49 0.9,-72.48 -7.18,-149.88 -0.47,-222.18 1.22,-13.02 -1.37,-14.27 -0.71,-24.11 2.67,-40.28 -2.01,-77.62 -1.86,-118.1 0.08,-19.43 0.01,-38.86 0.01,-58.29 0,-156 5.83,-307.42 5.83,-463.37l0 -1014.15c0,-57.33 -7.49,-107.99 -11.89,-162.96l-24.77 -144.25c-10.62,-41.26 -22.06,-95.39 -36.58,-135.37l-64.11 -166.1c-9.26,-24.85 -25.66,-52.38 -37.46,-76.19l-51.53 -91.27c-4.06,-7.35 -7.14,-10.61 -11.4,-17.73 -21.1,-35.28 -46.61,-68.12 -69.86,-102.1l-35.87 -48.63c-4.42,-5.56 -8.17,-10.64 -12.9,-16.25 -32.23,-38.32 -100.7,-117.33 -139.02,-146.57 -11.18,-8.53 -19.42,-18.18 -29.81,-28.47 -21.88,-21.64 -53.45,-45.96 -78.05,-64.74l-151.97 -104.49c-7.04,-4.95 -9.75,-7.86 -17.56,-11.57 -25.6,-12.18 -47.2,-28.32 -73.57,-40.1l-39.38 -18.9c-5.78,-3 -8.87,-5.85 -16.61,-9.62l-61.29 -26.14c-27.07,-12.79 -57.26,-20.3 -84.5,-32.06 -34.69,-14.98 -68.47,-24.03 -105.86,-34.02l-92.12 -21.54c-32.94,-8.44 -63.5,-11.55 -98.55,-18.02 -46.63,-8.58 -110.73,-12.92 -159.06,-12.89l-399.32 0.07c-20.93,0.09 -32.29,-3 -55.3,-3 -22.04,0 -33.11,3 -52.36,3.04 -38.68,0.06 -70.05,-3.02 -110.83,-3.02l-661.52 0c-25.07,0 -46.51,0.13 -67.46,2.49 -45.9,5.16 -71.74,-2.01 -116.05,23.83 -34.79,20.3 -71.41,47.02 -92.48,82.37 -5.05,8.49 -9.06,13.11 -13.52,21.45 -15.93,29.84 -31.06,74.28 -31.06,108.82 0,29.25 5.46,62.9 13.39,85.7 4.33,12.42 9.15,22.56 14.46,35.08 29.89,70.55 125.26,134.9 205.16,135.79 31.96,0.34 64.28,-0.12 96.29,-0.12l970.44 0c147.27,0 289.13,-8.39 423.8,16.26 14.83,2.71 29.96,3.67 42.58,6.95 13.05,3.4 24.8,6.3 39.55,9.99 39.88,10.01 141.3,42.4 176.97,62.01 8.44,4.63 7.89,5.88 16.88,9.35l126.2 69.04c7.71,4.68 7.34,3.8 14.04,9.28 36,29.55 76.25,52.79 109.25,86 9.55,9.61 16.6,13.44 26.29,23.25 16.62,16.79 31.26,31.47 48.08,48.1l86.71 105.62c6.73,9.64 13.7,18.13 21.27,28.27 18.59,24.88 37.55,64.94 53.91,91.8 6.76,11.1 10.95,20.31 17.08,32.46 32.88,65.22 89.85,220.71 94.31,296.2 0.87,14.68 4.07,24.62 6.26,40.37 5.74,41 11.32,90.16 11.15,134.56l-0.01 1119.08c0,135.3 2.92,244.08 2.92,378.85l2.91 766.44c0,42.46 7.18,396.36 -10.34,461.76 -4.12,15.37 -2.99,21.85 -5.02,38.7 -3.49,28.92 -15.54,76.11 -22.64,105.57 -2.96,12.24 -8,18.08 -11.59,32.14l-21.5 65.91c-3.06,10.65 -7.02,19.61 -10.88,29.92 -3.34,8.86 -9.39,20.96 -14.32,29.4l-28.17 59.26c-5.21,10.8 -10.34,14.44 -15.03,25.76 -12.65,30.5 -34,52.94 -50.45,80.69l-98.82 122.66c-0.62,0.58 -2.47,2.17 -3.1,2.73l-21.24 22.47c-3.4,4.12 -1.3,2.17 -5.34,6.32 -5.7,5.84 -6.68,5.01 -11.24,9.15 -6.99,6.38 -3.89,6.05 -10.87,12.45l-55 49.91c-8.29,7.27 -16.82,9.99 -26.13,17.59 -33.59,27.4 -63.45,49.14 -100.06,71.87 -27.63,17.15 -60.49,31.08 -85.35,45.79 -8.16,4.84 -7.11,6.05 -14.1,9.22l-75.16 29.76c-6.86,3.89 -5.55,4.7 -15.91,7.4 -7.34,1.93 -10.99,1.88 -16.72,3.69 -13.5,4.23 -15.54,9.08 -31.26,12.44 -11.9,2.55 -24.99,4.34 -35.72,7.99 -31.08,10.61 -69.63,16.43 -103.92,24.31 -22.63,5.21 -48.55,5.6 -75.12,9.4 -65.25,9.33 -144.55,2.02 -214.14,4.51l-122.26 0.05c-114.59,0 -229.33,-0.57 -343.9,0.02 -28.48,0.14 -52.76,-2.94 -84.49,-2.94l-1631.98 -2.91c-70.19,0 -292.38,4.06 -343.72,-0.16 -24.26,-1.99 -54.46,-6.55 -79.01,-8.4 -19.6,-1.5 -21.71,0.4 -39.5,-4.23 -36.91,-9.6 -109.1,-20.16 -141.87,-32.98l-62.29 -22.22c-11.68,-5.76 -19.49,-6.92 -31.84,-11.88l-57.76 -26.75c-10.8,-6.53 -17.84,-7.7 -29.21,-14.51l-108.2 -63.73c-42,-29.07 -85.51,-60.67 -121.49,-97.08 -7.46,-7.55 -14.07,-15.02 -21.86,-21.83 -29.85,-26.13 -56.37,-59.01 -83.06,-88.89 -7.33,-8.23 -11.16,-13.71 -17.98,-22.82l-28.78 -38.25c-12.51,-15.33 -22.41,-34.7 -33.67,-50.85 -27.23,-39.12 -48.44,-83.78 -68.4,-126.84l-37.91 -93.22c-8.68,-19.07 -24.76,-77.46 -28.93,-99.31l-19.81 -108.41c-9.51,-67.58 -5.09,-136.37 -15.95,-199.71 -3.94,-22.95 -15.14,-42.25 -25.63,-61.79 -10.24,-19.08 -22.59,-34.89 -37.64,-49.8 -9.16,-9.1 -13.06,-12.65 -23.01,-20.7 -25.95,-20.97 -51.79,-33.71 -83.7,-44.53 -50.14,-17 -129.17,-11.07 -177.64,15.51 -35.52,19.48 -69.43,45.92 -92.04,79.89 -10.7,16.07 -24.03,37.95 -29.71,57.73 -3.8,13.23 -5.88,20.78 -8.72,34.97 -11.11,55.51 -4.81,140.22 3.48,198.15 1.73,12.13 2.04,28.2 3.24,37.55 2.69,20.96 5.03,60.57 9.85,77.58 10.94,38.56 18.3,92.47 32.13,139.8 6.48,22.18 10.94,47.24 20.01,67.43l22.3 65.11c4.27,12.57 6.24,20.74 11.73,31.99l25.2 59.31c15.63,40.33 38.44,76.96 55.67,116.27 11.36,25.91 33.27,55.08 48.2,80.03l89.2 129.38c7.02,9.36 12.23,14.76 19.69,24.02l59.62 68.61c8.57,8.67 11.39,14.57 20.31,23.41 28.58,28.45 54.92,60.24 86.96,84.98 9.39,7.24 13.98,13.63 22.32,21.38 7.56,7.05 15.18,11.29 23.07,17.73 5.08,4.14 6.96,6.92 12.08,11.24l111.16 84.09c6.09,4.05 8.25,4.57 14.49,8.82 6.09,4.13 6.17,4.96 11.73,8.65 25.21,16.81 56.65,32.32 79.45,48.78l112.53 59.42c10.59,4.91 19.95,9.1 30.24,13.46l90.82 37.41c10.52,3.49 21.67,6.18 33.57,10.14 44.15,14.66 86.08,29.15 131.28,40.66l69.41 15.1c25.08,4.99 50.24,8.24 75.07,12.37 13.09,2.18 23.92,4.07 37.7,6.01 12.84,1.82 22.81,1.62 37.62,3.19 128.14,13.55 269.32,8.29 399.68,8.29 15.77,0 26.13,-3.5 37.43,-2.52l79.92 0.42c32.02,-4.55 700.4,-0.82 739.43,-0.82 137.61,0 251.21,-2.91 387.59,-2.91l987.93 0zm-5059.1 -5338.87c17.62,8.44 30.24,7.55 51.21,12.9 47.21,12.01 100.38,36.69 143.1,57.98 27.55,13.72 54.1,35.13 79.06,52.07 27.11,18.4 63.94,54.16 85.95,80.17 6.21,7.33 8.46,8.79 14.94,17.13 41.52,53.37 46.45,52.14 82.31,118.75 8.48,15.76 15.13,29.47 21.02,46 21.76,61.06 25.82,53.24 36.89,129.23 2.19,15.07 0.42,17.83 10.07,24.9 9.41,-2.52 11.33,-7.29 13.51,-18.55 3.69,-19.21 0.39,-35.46 9.75,-60.19l49.5 -122.44 25.74 -41.27c15.88,-23.41 3.26,-10.44 28.06,-41.9 22.53,-28.56 51.57,-66.72 80.34,-88.68 14.58,-11.12 11.75,-12.22 38.33,-31.6 20.85,-15.2 31.6,-27.17 59.75,-42.27 16.71,-8.96 25.51,-17.16 43.71,-26.22 8.81,-4.4 13.02,-5.88 22.25,-9.81 88.29,-37.74 47.39,-18.18 131.94,-42.91 31.94,-9.33 45.65,0.25 50.81,-19.14 -9.51,-2.22 -14.21,-4.89 -24.93,-7.11 -10.4,-2.17 -22.94,-2.09 -31.28,-3.69 -22.01,-4.25 -57.15,-13.54 -77.01,-22.08 -9.28,-4 -15.96,-5.6 -26.03,-8.93 -13.05,-4.34 -12.21,-5.12 -21.53,-10.52 -17.94,-10.38 -30.31,-10.6 -66.91,-35.07l-77.93 -56.14c-20.13,-19.65 -41.95,-30.19 -69.02,-65.03 -13.73,-17.67 -49.81,-57.84 -59.06,-75l-24.16 -42.86c-13.67,-23.94 -31.56,-67.13 -41.22,-92.83 -3.04,-8.02 -6.8,-13.39 -10.45,-21.6 -4.16,-9.34 -4.45,-18.63 -6.44,-28.54 -4.63,-23.1 -0.78,-40.88 -17.72,-52.22 -11.46,17.12 -10.57,48.41 -21.27,74.91 -3.88,9.6 -5.1,17.07 -8.18,26.78 -14.03,44.21 -38.77,91.96 -65.02,130.24 -38.67,56.42 -26.57,47.97 -88.4,109.77 -10.35,10.37 -21.46,23.03 -32.32,31.79l-55.84 43.24c-8.13,5.86 -8.26,8.25 -18.38,13.69l-42.23 24.79c-30.55,18.44 -108.47,48.27 -142.22,55.96 -17.95,4.09 -41.79,4.15 -50.7,16.32zm4878.42 1477.52c0,129.08 -2.87,1226.84 0.42,1255.61 0.84,7.27 2.87,10.99 2.59,20.77 -0.39,12.9 -2.73,9.54 -2.43,20.19 0.2,7.33 2.33,11.3 2.33,23.58l0 125.31c0,47.9 -2.91,89.23 -2.91,134.05 0,44.84 2.91,86.16 2.91,134.06l-1.05 318.51c1.38,12.59 0.26,14.81 6.2,23.13 7.75,10.85 20.75,19.72 38.57,19.72l291.87 -1.61c44.21,-0.78 55.14,-10.1 54.94,-62.5 -2.61,-654.51 3.69,-1313.29 -0.05,-1967.16 -0.17,-28.33 16.28,-93.21 -43.68,-93.21l-311.83 0c-23.32,0 -37.88,22.12 -37.88,49.54zm-4665.68 617.81c8.02,10.96 28.4,10.81 46.55,11.74 17.99,0.93 34.74,5.64 49.97,8.31 31.38,5.52 88.9,18.75 118.77,29.85l63.59 23.84c82.67,35.06 192.18,91.95 262.27,151.55 11.27,9.58 19.87,17.35 31.72,26.56 7.01,5.45 8.96,8.24 15.02,14.12 24.77,24.05 53.91,45.58 75.32,73.31l115.34 149.87c20.7,27.8 36.51,65.97 51.99,96.62 30.23,59.87 44.64,107.17 65.94,170.11 15.07,44.52 24.9,98.18 30.23,147.54 1.05,9.73 6.01,46.72 8.75,52.44 8.85,-6.49 7.05,-6.57 9.24,-19.9l11.93 -78.41c8.07,-52.68 45.15,-182.03 69.6,-227.65l19.02 -42.18c3.65,-7.28 5.65,-13 9.26,-19.89 3.59,-6.85 6.28,-11.26 10.12,-19.03l94.84 -144.13c26.6,-33.37 54.32,-65.94 85.19,-95.49 22,-21.05 39.2,-40.37 62.89,-59.49 11.54,-9.32 21.31,-16.75 32.6,-25.7l68.64 -50.84c6.36,-4.38 12.83,-6.48 19.08,-10.06 25.91,-14.95 49.38,-33.01 76.78,-45.61 34.51,-15.87 68.32,-33.73 104.4,-47.14 65.52,-24.37 171.97,-56.85 241.48,-58.71 16.09,-0.42 37.9,-1.55 46.62,-14.57 -8.9,-2.07 -12.91,-4.27 -22.57,-6.57 -26.79,-6.39 -85.91,-9.82 -126.08,-19.63l-92.85 -26.63c-81.65,-29.53 -125.16,-50.01 -202.48,-91.86 -37.22,-20.15 -72.38,-46.08 -105.54,-72.23 -7.34,-5.8 -8.53,-7.45 -16.4,-12.74 -18.1,-12.15 -33.05,-26.82 -48.24,-42.1 -11.54,-11.6 -21,-17.91 -32.09,-29.11l-56.78 -59.8c-37.83,-42.56 -69.85,-90.55 -100.75,-138.22l-42.32 -77.15c-26.02,-52.53 -53,-110.58 -68.45,-167.61 -4.64,-17.09 -7,-31.15 -11.85,-46.44 -4.16,-13.11 -8.84,-37.45 -11.2,-49.99 -3.41,-18.1 -4.56,-32.17 -7.42,-50.86 -2.04,-13.33 -3.46,-39.91 -13.75,-47.45 -7.57,5.56 -7.03,8.52 -8.9,20.25 -5.1,32.08 -8.25,68.75 -16.78,99.79l-9.89 48.4c-2.09,6.75 -5.5,13.86 -7.59,21.54 -12.94,47.52 -27.27,84.5 -46.32,128.54 -3.37,7.77 -6.42,12.78 -9.51,19.63 -23.97,52.89 -54.41,101.65 -86.37,149.69 -21.31,32.05 -44.07,62.2 -70.03,90.26l-20.56 23.15c-11.14,13.31 -17.23,19.8 -29.32,31.88 -27.09,27.09 -38.53,34.12 -61.23,55.35 -19.32,18.1 -41.74,38.38 -64.64,51.92l-70.22 46.34c-7.09,4.08 -11.06,5.58 -18.59,10.56l-58.04 32.3c-7.57,3.77 -12.64,6.43 -19.39,9.76l-103.85 41.87c-26.15,6.36 -38.95,14.61 -69.35,20.99 -27.28,5.73 -41.83,12.28 -70.87,16.55 -13.72,2.02 -32.26,8.17 -48.16,10.13 -21.6,2.67 -38.59,-1.52 -48.79,12.4zm1136.55 -1681.5c14.71,9.84 37.07,11.22 55.37,11.66 20.33,0.47 42.49,3.93 63.28,6.65 20.41,2.67 37.39,9.17 56.98,12.98 19.89,3.86 35.19,10.28 54.62,15.31 52.95,13.72 103.5,37.07 154.05,55.77 10.37,3.84 13.39,7.51 22.89,12.08l114.31 60.55c15.57,8.89 27.02,17.57 42.25,27.69 69.77,46.34 132.55,98.75 191.76,157.95 46.58,46.58 87.51,97.48 126.24,150.61 5.81,7.94 8.35,12.88 14.14,20.83 20.05,27.51 35.24,57.52 53.54,86.35 17.35,27.32 36.51,61.17 47.61,92.28 14.78,41.49 37.3,82.54 49.18,125.67 15.4,55.95 32.03,110.17 41.61,168.21 6.42,38.83 10.1,79.69 19.57,120.3 12.58,-9.21 13.34,-34.97 14.68,-55.26 2.18,-33.03 9.02,-60.51 14,-90.91 2.23,-13.63 4.06,-15.9 6.64,-28.34 11.59,-56.17 30.47,-110.6 48.1,-164.63 11.26,-34.53 27.72,-67.42 42.86,-99.95 18.33,-39.35 39.84,-75.9 62.59,-112.26l43.04 -64.78c10.65,-14.22 20.05,-25.8 29.81,-40.13l31.77 -38.17c26.76,-31.96 54.77,-64.11 86.09,-91.68 6.56,-5.79 11.15,-11.3 17.45,-17.52 31.78,-31.47 82.31,-70.66 117.63,-95.13l106.18 -68.66c22.74,-13.87 92.4,-47.98 120.18,-57.58l157.76 -54.98c20.99,-4.69 33.88,-11.85 54.99,-14.95 41.11,-6.02 79.66,-17.35 121.54,-18.34 20.3,-0.49 47.63,1.48 58.35,-14.52 -24.68,-16.53 -88.13,-17.51 -116.04,-20.93 -39.48,-4.85 -52.28,-12.2 -87.18,-17.75 -7.02,-1.12 -19.31,-4.27 -28.09,-6.88l-204.43 -75.34 -91.21 -48.66c-28.77,-17.45 -58.87,-34.82 -84.3,-55.59 -8.71,-7.1 -13.43,-7.37 -21.59,-13.38 -6.42,-4.7 -12.73,-10.36 -19.53,-15.45l-57.85 -47.07c-29.22,-24.56 -66.15,-55.58 -90.35,-84.51 -32.57,-38.95 -98.95,-115.97 -123.88,-155.87 -5.19,-8.3 -6.92,-13.87 -12.71,-22.26 -6.81,-9.85 -8.04,-9.44 -13.89,-21.08 -15.8,-31.47 -35.96,-56.35 -49.77,-90.12 -6.81,-16.62 -14.73,-31.28 -22.12,-47.82l-21.37 -48.57c-7.17,-14.59 -13.47,-36.32 -18.96,-50.98 -6.9,-18.39 -12.08,-32.27 -16.76,-53.19 -2.65,-11.88 -4.7,-16.04 -7.59,-27.36l-29.02 -145.85c-0.7,-6.8 -1.99,-22.39 -3.56,-31.41 -1.9,-10.93 -5.37,-17.75 -7.6,-27.37 -17.27,11.57 -21.29,80.69 -26.21,110.77 -4.44,27.09 -31.03,137.47 -41.13,165.76l-84.71 192.16c-4.25,9.12 -9.12,13.21 -13.96,21l-24.7 45.24c-20.92,31.18 -48.63,76.1 -72.32,102.54 -11.07,12.35 -21.51,26.01 -31.29,38.66 -19.72,25.54 -76.11,83.4 -101.32,105.59l-76.08 63.8c-7.4,5.55 -11.89,9.32 -19.58,15.4l-61.22 43.69c-8.17,5.35 -14.31,8.46 -21.63,13.34 -35.9,23.91 -139.25,80.98 -181.01,95.85l-101.81 38.06c-30.04,7.16 -50.75,16.04 -84.26,20.66 -19.44,2.67 -36.27,10.73 -55.79,14.15 -28.71,5.04 -64.14,5.91 -93.34,11.58 -13.49,2.61 -16.53,2.55 -22.89,12.07zm1917.56 2345.95c0,-22.57 8.63,-36.25 15.83,-54.11l64.04 -172.01c3.06,-8.2 6.1,-14.56 9.24,-22.82l139.05 -365.11c11.41,-26.85 22.43,-64.96 37.03,-97.02 3.98,-8.72 4.46,-13.94 7.66,-24.39 10.74,-34.96 11.62,-39.37 27.31,-39.72l181.06 483.38c3.34,8.73 6.52,13.69 10.21,24.75l44.39 118.81c12.61,38.33 49.92,113.08 49.92,148.23 -6.54,1.52 -6.7,2.92 -14.57,2.92l-556.62 0c-7.86,0 -8.03,-1.4 -14.57,-2.92zm-690.66 792.67l349.7 0c48.44,0 55.74,-54.38 69.07,-88.31 4.04,-10.27 6.64,-16.52 10.87,-27l111.07 -291.1c4.54,-11.08 7.4,-19.07 21.73,-19.07l845.12 0c22.44,0 26.96,28.09 33.77,44.92l87.4 230.25c8.5,20.11 14.58,39.22 22.06,59.52 3.13,8.48 7.48,18.3 11.2,26.7 4.55,10.28 5.45,19.49 10.55,30.25 7.83,16.52 24.88,33.84 47.76,33.84l358.45 0c18.43,0 37.88,-13.57 37.88,-29.14 0,-19.51 -35.34,-90.08 -44.34,-118.85l-88.95 -214.15c-8.62,-22.86 -18.41,-43.21 -27.88,-65.36l-94.41 -231.98c-8.76,-22.6 -20.49,-42.53 -28.25,-65 -4.57,-13.22 -6.64,-22.3 -12.44,-34.2 -28.44,-58.2 -68.91,-166.64 -95.47,-230.92 -5.07,-12.28 -10.23,-19.44 -15.08,-31.56l-27.32 -68.83c-5.05,-11.41 -7.88,-20.99 -12.93,-33.71l-122.98 -296.68c-4.7,-13.77 -9.16,-19.31 -14.51,-32.12l-68.26 -167.78c-17.34,-44 -38.65,-87.81 -54.26,-132.25 -4.61,-13.14 -8.51,-21 -13.58,-33.05 -5.6,-13.29 -7.74,-20.87 -13.76,-32.87l-109.01 -264.02c-9.13,-22.3 -24.59,-42.01 -54.14,-42.01l-262.29 0c-53.48,0 -61.59,72.15 -80.59,108.82l-12.23 34.41c-4.71,15.36 -11.31,17.62 -16.1,33.45 -2.7,8.92 -1.96,9.52 -5.65,17.67 -2.64,5.87 -5.51,10.28 -7.82,15.49 -2.72,6.09 -3.57,10.44 -6.2,17.12 -3.54,9.01 -5.15,8.57 -9.22,17.01 -5.21,10.76 -7.21,22.75 -11.99,34.63l-33.93 82.64c-3.24,6.17 -6.2,8.18 -9.49,16.75l-26.4 69.77c-9.01,26.87 -34.27,75.41 -43.1,99.68 -4.74,13.01 -6.92,20.28 -13.15,33.5 -5.35,11.32 -9.05,21.65 -12.99,33.64 -4.02,12.19 -9.47,23.27 -14.22,35.32 -4.82,12.23 -9.55,21.02 -14.54,32.09 -5,11.11 -9.81,24.48 -14.18,35.35l-56.16 136.19c-4.77,13.39 -8.82,20.45 -14.2,32.42l-41.6 104.11c-22.51,56.47 -48.4,110.18 -68.77,167.29l-155.3 375.09c-4.07,11.1 -9.72,22.12 -14.06,32.57 -20.56,49.46 -39.27,102.69 -61.26,151.49l-148.6 358.5c-12.05,28.31 3.51,49.5 34.97,49.5z"/>
 </g>
</svg>
