<?xml version="1.0" encoding="UTF-8"?>
<!DOCTYPE svg PUBLIC "-//W3C//DTD SVG 1.1//EN" "http://www.w3.org/Graphics/SVG/1.1/DTD/svg11.dtd">
<!-- Creator: CorelDRAW -->
<svg xmlns="http://www.w3.org/2000/svg" xml:space="preserve" width="413px" height="413px" version="1.1" shape-rendering="geometricPrecision" text-rendering="geometricPrecision" image-rendering="optimizeQuality" fill-rule="evenodd" clip-rule="evenodd"
viewBox="0 0 185.91 185.91"
 xmlns:xlink="http://www.w3.org/1999/xlink"
 xmlns:xodm="http://www.corel.com/coreldraw/odm/2003">
 <defs>
   <linearGradient id="id0" gradientUnits="userSpaceOnUse" x1="92.96" y1="0" x2="92.96" y2="185.91">
    <stop offset="0" stop-opacity="1" stop-color="#3B82F6"/>
    <stop offset="1" stop-opacity="1" stop-color="#7FC3FF"/>
   </linearGradient>
 </defs>
 <g id="Camada_x0020_1">
  <metadata id="CorelCorpID_0Corel-Layer"/>
  <path fill="url(#id0)" d="M92.96 0c51.33,0 92.95,41.62 92.95,92.96 0,51.33 -41.62,92.95 -92.95,92.95 -51.34,0 -92.96,-41.62 -92.96,-92.95 0,-51.34 41.62,-92.96 92.96,-92.96zm-54 52.18c-0.26,-7.51 5.59,-14.43 13.49,-14.43l81.02 0c7.9,0 13.75,6.92 13.49,14.43 -0.25,7.21 0.08,16.55 2.43,24.17 2.36,7.64 6.33,12.47 12.85,13.09l0 7.03c-6.52,0.62 -10.49,5.45 -12.85,13.09 -2.35,7.62 -2.68,16.96 -2.43,24.17 0.26,7.51 -5.59,14.43 -13.49,14.43l-81.02 0c-7.9,0 -13.75,-6.92 -13.49,-14.43 0.25,-7.21 -0.08,-16.55 -2.43,-24.17 -2.36,-7.64 -6.34,-12.47 -12.86,-13.09l0 -7.03c6.52,-0.62 10.5,-5.45 12.86,-13.09 2.35,-7.62 2.68,-16.96 2.43,-24.17zm57 70.13c12.8,0 20.51,-6.27 20.51,-16.61 0,-7.81 -5.5,-13.47 -13.67,-14.36l0 -0.33c6,-0.98 10.71,-6.55 10.71,-12.78 0,-8.87 -7,-14.65 -17.67,-14.65l-24.02 0 0 58.73 24.14 0zm-14.8 -51.28l12.42 0c6.76,0 10.59,3.01 10.59,8.46 0,5.82 -4.46,9.08 -12.55,9.08l-10.46 0 0 -17.54zm0 43.83l0 -19.33 12.34 0c8.84,0 13.43,3.25 13.43,9.6 0,6.35 -4.47,9.73 -12.89,9.73l-12.88 0z"/>
 </g>
</svg>
