<?xml version="1.0" encoding="UTF-8"?>
<!DOCTYPE svg PUBLIC "-//W3C//DTD SVG 1.1//EN" "http://www.w3.org/Graphics/SVG/1.1/DTD/svg11.dtd">
<!-- Creator: CorelDRAW -->
<svg xmlns="http://www.w3.org/2000/svg" xml:space="preserve" width="413px" height="413px" version="1.1" shape-rendering="geometricPrecision" text-rendering="geometricPrecision" image-rendering="optimizeQuality" fill-rule="evenodd" clip-rule="evenodd"
viewBox="0 0 196.35 196.35"
 xmlns:xlink="http://www.w3.org/1999/xlink"
 xmlns:xodm="http://www.corel.com/coreldraw/odm/2003">
 <g id="Camada_x0020_1">
  <metadata id="CorelCorpID_0Corel-Layer"/>
  <path fill="#3B82F6" d="M98.18 0c54.22,0 98.17,43.96 98.17,98.18 0,54.22 -43.95,98.17 -98.17,98.17 -54.22,0 -98.18,-43.95 -98.18,-98.17 0,-54.22 43.96,-98.18 98.18,-98.18zm7.34 159.89l-14.68 0 -1.84 -11.01 18.35 0 -1.83 11.01zm-7.6 -17.2l-1.8 0c-7.27,-24.17 -11.51,-45 -12.47,-61.67 -1.38,-24.07 3.54,-39.47 11.41,-43.73 0.74,-0.4 1.56,-0.71 2.86,-0.73 1.3,0.02 2.12,0.33 2.86,0.73 7.87,4.27 12.79,19.66 11.41,43.74 -0.96,16.67 -5.2,37.49 -12.47,61.66l-1.8 0zm-6.68 -106.22c0,0 -21.41,8.1 -19.87,39.28 1.54,31.17 22.84,66.93 22.84,66.93 -13.11,-11.64 -32.54,-47.89 -32.91,-69.22 0.29,-22.5 15.11,-31.61 19.31,-33.61 4.19,-2 8.64,-3.3 10.63,-3.38zm-18.7 5.47c0,0 -23.01,9.48 -18.46,36.84 4.55,27.36 28.76,56.55 35.95,62.75 2.58,2.37 -29.71,-33.67 -32.84,-65.33 -1.5,-11.95 1.99,-25.2 15.35,-34.26zm51.28 0c0,0 23,9.48 18.45,36.84 -4.55,27.36 -28.76,56.55 -35.95,62.75 -2.58,2.37 29.71,-33.67 32.84,-65.33 1.5,-11.95 -1.99,-25.2 -15.34,-34.26zm-18.81 -5.47c0,0 21.42,8.1 19.88,39.28 -1.55,31.17 -22.85,66.93 -22.85,66.93 13.12,-11.64 32.54,-47.89 32.91,-69.22 -0.28,-22.5 -15.11,-31.61 -19.3,-33.61 -4.2,-2 -8.64,-3.3 -10.64,-3.38z"/>
 </g>
</svg>
