<?xml version="1.0" encoding="UTF-8"?>
<!DOCTYPE svg PUBLIC "-//W3C//DTD SVG 1.1//EN" "http://www.w3.org/Graphics/SVG/1.1/DTD/svg11.dtd">
<!-- Creator: CorelDRAW -->
<svg xmlns="http://www.w3.org/2000/svg" xml:space="preserve" version="1.1" style="shape-rendering:geometricPrecision; text-rendering:geometricPrecision; image-rendering:optimizeQuality; fill-rule:evenodd; clip-rule:evenodd"
viewBox="0 0 137.95 190.49"
 xmlns:xlink="http://www.w3.org/1999/xlink"
 xmlns:xodm="http://www.corel.com/coreldraw/odm/2003">
 <defs>
  <style type="text/css">
   <![CDATA[
    .fil0 {fill:#3B82F6;fill-rule:nonzero}
   ]]>
  </style>
 </defs>
 <g id="Camada_x0020_1">
  <metadata id="CorelCorpID_0Corel-Layer"/>
  <path class="fil0" d="M80.3 190.49l-22.65 0 -2.83 -16.99 28.32 0 -2.83 16.99zm-11.72 -26.54l-2.77 0c-11.23,-37.31 -17.78,-69.46 -19.25,-95.19 -2.13,-37.14 5.46,-60.9 17.62,-67.49 1.13,-0.61 2.4,-1.09 4.41,-1.12 2.01,0.03 3.28,0.51 4.41,1.12 12.16,6.59 19.75,30.35 17.61,67.51 -1.48,25.72 -8.02,57.86 -19.25,95.17l-2.77 0zm-10.31 -163.95c0,0 -33.05,12.51 -30.68,60.63 2.38,48.12 35.26,103.29 35.26,103.29 -20.24,-17.96 -50.22,-73.9 -50.8,-106.82 0.45,-34.74 23.33,-48.8 29.8,-51.88 6.47,-3.09 13.33,-5.09 16.42,-5.22zm-28.87 8.46c0,0 -35.51,14.63 -28.49,56.85 7.02,42.22 44.39,87.29 55.49,96.86 3.98,3.65 -45.86,-51.98 -50.69,-100.84 -2.31,-18.45 3.08,-38.9 23.69,-52.87zm79.14 0c0,0 35.51,14.63 28.49,56.85 -7.02,42.22 -44.39,87.29 -55.49,96.86 -3.98,3.65 45.86,-51.98 50.69,-100.84 2.31,-18.45 -3.08,-38.9 -23.69,-52.87zm-29.02 -8.46c0,0 33.05,12.51 30.68,60.63 -2.38,48.12 -35.26,103.29 -35.26,103.29 20.24,-17.96 50.22,-73.9 50.8,-106.82 -0.45,-34.74 -23.32,-48.8 -29.8,-51.88 -6.47,-3.09 -13.33,-5.09 -16.41,-5.22z"/>
 </g>
</svg>
