<?xml version="1.0" encoding="UTF-8"?>
<!DOCTYPE svg PUBLIC "-//W3C//DTD SVG 1.1//EN" "http://www.w3.org/Graphics/SVG/1.1/DTD/svg11.dtd">
<!-- Creator: CorelDRAW -->
<svg xmlns="http://www.w3.org/2000/svg" xml:space="preserve" width="413px" height="413px" version="1.1" shape-rendering="geometricPrecision" text-rendering="geometricPrecision" image-rendering="optimizeQuality" fill-rule="evenodd" clip-rule="evenodd"
viewBox="0 0 97.71 97.71"
 xmlns:xlink="http://www.w3.org/1999/xlink"
 xmlns:xodm="http://www.corel.com/coreldraw/odm/2003">
 <defs>
   <linearGradient id="id0" gradientUnits="userSpaceOnUse" x1="48.85" y1="0" x2="48.85" y2="97.71">
    <stop offset="0" stop-opacity="1" stop-color="#3B82F6"/>
    <stop offset="1" stop-opacity="1" stop-color="#9FCBF2"/>
   </linearGradient>
 </defs>
 <g id="Camada_x0020_1">
  <metadata id="CorelCorpID_0Corel-Layer"/>
  <path fill="url(#id0)" d="M48.85 0c26.98,0 48.86,21.87 48.86,48.85 0,26.98 -21.88,48.86 -48.86,48.86 -26.98,0 -48.85,-21.88 -48.85,-48.86 0,-26.98 21.87,-48.85 48.85,-48.85zm3.65 79.56l-7.3 0 -0.91 -5.48 9.13 0 -0.92 5.48zm-3.77 -8.56l-0.9 0c-3.62,-12.03 -5.73,-22.39 -6.21,-30.69 -0.68,-11.97 1.76,-19.63 5.68,-21.76 0.37,-0.19 0.78,-0.35 1.43,-0.36 0.64,0.01 1.05,0.17 1.42,0.36 3.92,2.13 6.36,9.79 5.68,21.77 -0.48,8.29 -2.59,18.66 -6.21,30.68l-0.89 0zm-3.33 -52.85c0,0 -10.65,4.03 -9.89,19.54 0.77,15.52 11.37,33.31 11.37,33.31 -6.53,-5.79 -16.19,-23.83 -16.38,-34.44 0.15,-11.2 7.52,-15.74 9.61,-16.73 2.09,-1 4.3,-1.64 5.29,-1.68zm-9.3 2.72c0,0 -11.45,4.72 -9.19,18.33 2.27,13.61 14.31,28.14 17.89,31.23 1.28,1.17 -14.78,-16.76 -16.34,-32.51 -0.75,-5.95 0.99,-12.54 7.64,-17.05zm25.51 0c0,0 11.45,4.72 9.18,18.33 -2.26,13.61 -14.31,28.14 -17.88,31.23 -1.29,1.17 14.78,-16.76 16.34,-32.51 0.74,-5.95 -0.99,-12.54 -7.64,-17.05zm-9.36 -2.72c0,0 10.66,4.03 9.89,19.54 -0.76,15.52 -11.36,33.31 -11.36,33.31 6.52,-5.79 16.19,-23.83 16.37,-34.44 -0.14,-11.2 -7.52,-15.74 -9.6,-16.73 -2.09,-1 -4.3,-1.64 -5.3,-1.68z"/>
 </g>
</svg>
