<?xml version="1.0" encoding="UTF-8"?>
<!DOCTYPE svg PUBLIC "-//W3C//DTD SVG 1.1//EN" "http://www.w3.org/Graphics/SVG/1.1/DTD/svg11.dtd">
<!-- Creator: CorelDRAW -->
<svg xmlns="http://www.w3.org/2000/svg" xml:space="preserve" width="413px" height="413px" version="1.1" shape-rendering="geometricPrecision" text-rendering="geometricPrecision" image-rendering="optimizeQuality" fill-rule="evenodd" clip-rule="evenodd"
viewBox="0 0 7297.56 7297.56"
 xmlns:xlink="http://www.w3.org/1999/xlink"
 xmlns:xodm="http://www.corel.com/coreldraw/odm/2003">
 <defs>
   <linearGradient id="id0" gradientUnits="userSpaceOnUse" x1="3648.78" y1="0" x2="3648.78" y2="7297.56">
    <stop offset="0" stop-opacity="1" stop-color="#3B82F6"/>
    <stop offset="1" stop-opacity="1" stop-color="#7FC3FF"/>
   </linearGradient>
 </defs>
 <g id="Camada_x0020_1">
  <metadata id="CorelCorpID_0Corel-Layer"/>
  <path fill="url(#id0)" d="M3648.78 0c2015.17,0 3648.78,1633.61 3648.78,3648.78 0,2015.17 -1633.61,3648.78 -3648.78,3648.78 -2015.17,0 -3648.78,-1633.61 -3648.78,-3648.78 0,-2015.17 1633.61,-3648.78 3648.78,-3648.78zm-2021.13 1720.51c1.02,6.07 84,934.74 184.52,2063.79 100.54,1129.06 182.84,2052.99 183.17,2053.35 0.35,0.33 371.74,103.9 825.79,229.71l825.46 229.39 827.48 -229.39c455.05,-126.15 827.81,-229.71 827.81,-230.07 0.34,0 82.65,-923.26 183.17,-2051.3 100.52,-1128.03 183.5,-2056.72 184.53,-2063.79l2.02 -12.49 -4045.64 0 1.69 10.8zm3287.65 839.97c0,7.43 -23.96,276.96 -164.97,1856 -35.07,393.01 -65.09,715.83 -66.78,717.16 -3.71,3.38 -1027.85,286.73 -1035.94,286.73 -6.42,0 -1035.63,-284.7 -1037.98,-287.39 -0.67,-0.67 -16.54,-173.39 -35.07,-383.9 -18.89,-210.48 -34.76,-389.27 -36.12,-397.36l-1.66 -14.18 254.68 0c140.32,0 255.02,0.34 255.35,0.69 0,0.67 8.09,91.07 18.23,201.04 9.78,110.32 18.53,200.72 19.22,201.39 0.67,0.67 127.17,35.42 281.66,76.92l280.34 75.89 280.99 -75.89c154.84,-41.83 282,-76.59 282.69,-76.92 1.33,-1.69 57.34,-626.42 57.67,-643.62l0 -12.49 -1754.12 0 0 -8.43c0,-4.73 -9.78,-118.4 -21.92,-252.33 -12.15,-133.92 -21.93,-243.88 -21.93,-244.57 0,-0.33 415.25,-0.67 922.6,-0.67l922.6 0 0 -8.44c0,-4.38 9.8,-119.07 21.93,-254 12.14,-135.27 21.94,-248.61 21.94,-251.66 0,-5.04 -74.56,-5.4 -967.14,-6.06l-967.47 -1.01 -20.58 -229.39c-11.46,-126.16 -21.93,-239.5 -23.29,-252.33l-2.02 -22.6 2537.09 0 0 7.42z"/>
 </g>
</svg>
