<?xml version="1.0" encoding="UTF-8"?>
<!DOCTYPE svg PUBLIC "-//W3C//DTD SVG 1.1//EN" "http://www.w3.org/Graphics/SVG/1.1/DTD/svg11.dtd">
<!-- Creator: CorelDRAW -->
<svg xmlns="http://www.w3.org/2000/svg" xml:space="preserve"  version="1.1" style="shape-rendering:geometricPrecision; text-rendering:geometricPrecision; image-rendering:optimizeQuality; fill-rule:evenodd; clip-rule:evenodd"
viewBox="0 0 200.23 227.02"
 xmlns:xlink="http://www.w3.org/1999/xlink"
 xmlns:xodm="http://www.corel.com/coreldraw/odm/2003">
 <defs>
  <style type="text/css">
   <![CDATA[
    .fil0 {fill:#3B82F6;fill-rule:nonzero}
   ]]>
  </style>
 </defs>
 <g id="Camada_x0020_1">
  <metadata id="CorelCorpID_0Corel-Layer"/>
  <path class="fil0" d="M0.08 0.53c0.05,0.3 4.16,46.26 9.13,102.14 4.98,55.88 9.05,101.61 9.07,101.63 0.02,0.02 18.4,5.14 40.87,11.37l40.85 11.35 40.95 -11.35c22.52,-6.24 40.97,-11.37 40.97,-11.39 0.02,0 4.09,-45.69 9.07,-101.52 4.97,-55.83 9.08,-101.79 9.13,-102.14l0.1 -0.62 -200.23 0 0.08 0.53zm162.71 41.57c0,0.37 -1.19,13.71 -8.16,91.86 -1.74,19.45 -3.22,35.43 -3.31,35.49 -0.18,0.17 -50.87,14.19 -51.27,14.19 -0.32,0 -51.26,-14.09 -51.37,-14.22 -0.03,-0.03 -0.82,-8.58 -1.74,-19 -0.93,-10.42 -1.72,-19.27 -1.79,-19.67l-0.08 -0.7 12.61 0c6.94,0 12.62,0.02 12.64,0.03 0,0.03 0.4,4.51 0.9,9.95 0.48,5.46 0.92,9.93 0.95,9.97 0.03,0.03 6.29,1.75 13.94,3.81l13.87 3.76 13.91 -3.76c7.66,-2.07 13.96,-3.79 13.99,-3.81 0.07,-0.08 2.84,-31 2.85,-31.85l0 -0.62 -86.82 0 0 -0.42c0,-0.23 -0.48,-5.86 -1.08,-12.49 -0.6,-6.63 -1.09,-12.07 -1.09,-12.1 0,-0.02 20.55,-0.03 45.66,-0.03l45.66 0 0 -0.42c0,-0.22 0.49,-5.89 1.09,-12.57 0.6,-6.7 1.09,-12.3 1.09,-12.46 0,-0.25 -3.69,-0.27 -47.87,-0.3l-47.88 -0.05 -1.02 -11.35c-0.57,-6.24 -1.09,-11.85 -1.15,-12.49l-0.1 -1.12 125.57 0 0 0.37z"/>
 </g>
</svg>
