<?xml version="1.0" encoding="UTF-8"?>
<!DOCTYPE svg PUBLIC "-//W3C//DTD SVG 1.0//EN" "http://www.w3.org/TR/2001/REC-SVG-20010904/DTD/svg10.dtd">
<!-- Creator: CorelDRAW -->
<svg xmlns="http://www.w3.org/2000/svg" xml:space="preserve" width="109.273mm" height="109.273mm" version="1.0" style="shape-rendering:geometricPrecision; text-rendering:geometricPrecision; image-rendering:optimizeQuality; fill-rule:evenodd; clip-rule:evenodd"
viewBox="0 0 2250.03 2250.03"
 xmlns:xlink="http://www.w3.org/1999/xlink"
 xmlns:xodm="http://www.corel.com/coreldraw/odm/2003">
 <defs>
  <style type="text/css">
   <![CDATA[
    .fil0 {fill:url(#id0)}
   ]]>
  </style>
  <linearGradient id="id0" gradientUnits="userSpaceOnUse" x1="1124.74" y1="0" x2="1124.74" y2="2249.47">
   <stop offset="0" style="stop-opacity:1; stop-color:#3B82F6"/>
   <stop offset="1" style="stop-opacity:1; stop-color:#7FC3FF"/>
  </linearGradient>
 </defs>
 <g id="Camada_x0020_1">
  <metadata id="CorelCorpID_0Corel-Layer"/>
  <path class="fil0" d="M1125.02 0c621.33,0 1125.01,503.69 1125.01,1125.02 0,621.33 -503.69,1125.01 -1125.01,1125.01 -621.33,0 -1125.02,-503.69 -1125.02,-1125.01 0,-621.33 503.69,-1125.02 1125.02,-1125.02zm395.16 1083.32c-74.24,37.12 -175.44,26.54 -267.29,26.54 -296.07,0 -592.14,0 -888.22,0 -27.82,179.37 56.41,351.4 145.45,429.27 116.33,101.75 265.03,131.62 461.92,113.74 238.41,-21.64 443.89,-126.04 573.87,-299.13 33.12,-44.11 87.64,-125.79 106.7,-187.13 67.25,2.56 110.24,-5.28 156.93,-36.51 31.19,-20.85 70.46,-65.38 81.22,-111.91 -51.07,-41.61 -126.66,-48.88 -207.27,-40.81 -12.68,-72.51 -79.3,-152.56 -132.49,-172.44 -22.3,23.62 -47.47,80.62 -55,124.76 -11.9,69.71 4.4,100.71 24.19,153.61zm-852.86 0.1l154.89 0 0 -143.56 -154.89 0 0 143.56zm0 -173.78l154.89 0 0 -143.56 -154.89 0 0 143.56zm559.13 173.78l158.67 0 0 -143.56 -158.67 0 0 143.56zm-188.9 0l158.67 0 0 -143.56 -158.67 0 0 143.56zm-185.12 0l158.67 0 0 -143.56 -158.67 0 0 143.56zm-374.01 0l158.67 0 0 -143.56 -158.67 0 0 143.56zm374.01 -173.78l158.67 0 0 -143.56 -158.67 0 0 143.56zm185.12 0l158.67 0 0 -143.56 -158.67 0 0 143.56zm0 -173.78l158.67 0 0 -143.56 -158.67 0 0 143.56z"/>
 </g>
</svg>
