<?xml version="1.0" encoding="UTF-8"?>
<!DOCTYPE svg PUBLIC "-//W3C//DTD SVG 1.1//EN" "http://www.w3.org/Graphics/SVG/1.1/DTD/svg11.dtd">
<!-- Creator: CorelDRAW -->
<svg xmlns="http://www.w3.org/2000/svg" xml:space="preserve" width="413px" height="413px" version="1.1" shape-rendering="geometricPrecision" text-rendering="geometricPrecision" image-rendering="optimizeQuality" fill-rule="evenodd" clip-rule="evenodd"
viewBox="0 0 13249.31 13249.31"
 xmlns:xlink="http://www.w3.org/1999/xlink"
 xmlns:xodm="http://www.corel.com/coreldraw/odm/2003">
 <g id="Camada_x0020_1">
  <metadata id="CorelCorpID_0Corel-Layer"/>
  <path fill="#3B82F6" d="M6624.66 0c3658.7,0 6624.65,2965.95 6624.65,6624.66 0,3658.7 -2965.95,6624.65 -6624.65,6624.65 -3658.71,0 -6624.66,-2965.95 -6624.66,-6624.65 0,-3658.71 2965.95,-6624.66 6624.66,-6624.66zm-1253.69 10268.22c-277.67,0 -459.11,-22.56 -688.17,-190.19 -425.72,-311.55 -554.43,-860.07 -328.36,-1314.33 168.12,-337.71 515.59,-577.52 951.46,-577.52l1057.29 0 0 1041.02c0,413.76 -282.1,787.43 -581,931.73 -98.31,47.47 -274.19,109.29 -411.22,109.29zm5.34 520.51l-169.37 0c-207.18,-10.6 -411.6,-60.38 -595.27,-151.61 -84.11,-41.76 -164.78,-86.35 -235.54,-138.55 -40.46,-29.91 -71.05,-52.05 -107.28,-87.94 -392.63,-388.81 -540.72,-669.7 -540.72,-1264.74 0,-407.02 261.62,-882.94 559.8,-1115.56 37.02,-28.88 101.42,-74.46 123.37,-104.4 -33.2,-45.28 -272.25,-181.67 -462.59,-497.12 -183.07,-303.48 -220.58,-518.23 -220.58,-885.47 0,-756.19 645.28,-1168.25 683.17,-1219.96 -42.81,-58.41 -267.41,-174.51 -460.7,-499 -179.58,-301.37 -222.47,-496.47 -222.47,-867.34 0,-233.38 67.46,-445.9 146.31,-601.9 141.54,-280.13 258.29,-428.48 511.16,-611.21 217.63,-157.25 535.69,-283.34 838.98,-283.34l2797.73 0c781.44,0 1496.49,715.01 1496.49,1496.45l0 146.42c0,403.77 -261.05,882.45 -559.84,1115.52 -37.02,28.88 -101.38,74.46 -123.33,104.4l256.2 231.75c444.95,440.94 556.96,1180.52 275.36,1747.51 -432.8,871.43 -1503.8,1135.24 -2285.21,636.46 -76.31,-48.72 -126.13,-95.01 -198.28,-143.28 0,374.08 0,748.21 0,1122.33 0,453.88 -3.26,649.44 -151.69,970.64 -110.08,238.23 -302.31,454.53 -512.59,609.78 -237.85,175.57 -538.08,274.64 -843.11,290.16zm-1127.67 -4099c0,-346.41 64.12,-560.3 304.92,-801.13 173.64,-173.6 422.05,-304.96 687.3,-304.96l1122.33 0 0 2082.03 -1122.33 0c-492.23,0 -992.22,-470.01 -992.22,-975.94zm2635.06 -48.8c0,-598.11 484.92,-1057.29 992.22,-1057.29 234.1,0 303.49,5 523.31,94.79 113.91,46.56 205.02,120.6 285.96,202.03 376.58,378.74 418.83,946.68 122.92,1351.05 -97.07,132.57 -252.2,264.5 -398.17,333.81 -687.52,326.54 -1526.24,-153.77 -1526.24,-924.39zm1057.29 -1577.8l-1057.29 0 0 -2082.03 1138.61 0c498.78,0 975.98,477.16 975.98,975.94 0,364.55 -75.48,572.11 -321.01,817.63 -161.83,161.8 -416.9,288.46 -736.29,288.46zm-3692.35 -975.94l0 -130.15c0,-498.78 477.16,-975.94 975.94,-975.94l1138.61 0 0 2082.03 -1057.29 0c-312.23,0 -569.5,-123.48 -728.22,-280.28 -152.75,-150.85 -329.04,-400.47 -329.04,-695.66z"/>
 </g>
</svg>
