<?xml version="1.0" encoding="UTF-8"?>
<!DOCTYPE svg PUBLIC "-//W3C//DTD SVG 1.1//EN" "http://www.w3.org/Graphics/SVG/1.1/DTD/svg11.dtd">
<!-- Creator: CorelDRAW -->
<svg xmlns="http://www.w3.org/2000/svg" xml:space="preserve" width="413px" height="413px" version="1.1" shape-rendering="geometricPrecision" text-rendering="geometricPrecision" image-rendering="optimizeQuality" fill-rule="evenodd" clip-rule="evenodd"
viewBox="0 0 3779.88 3779.88"
 xmlns:xlink="http://www.w3.org/1999/xlink"
 xmlns:xodm="http://www.corel.com/coreldraw/odm/2003">
 <defs>
   <linearGradient id="id0" gradientUnits="userSpaceOnUse" x1="1889.94" y1="0" x2="1889.94" y2="3779.88">
    <stop offset="0" stop-opacity="1" stop-color="#3B82F6"/>
    <stop offset="1" stop-opacity="1" stop-color="#7FC3FF"/>
   </linearGradient>
 </defs>
 <g id="Camada_x0020_1">
  <metadata id="CorelCorpID_0Corel-Layer"/>
  <path fill="url(#id0)" d="M1889.94 0c1043.78,0 1889.94,846.15 1889.94,1889.94 0,1043.78 -846.16,1889.94 -1889.94,1889.94 -1043.79,0 -1889.94,-846.16 -1889.94,-1889.94 0,-1043.79 846.15,-1889.94 1889.94,-1889.94zm-241.96 925.92c-90.93,27.57 -122.41,35.91 -204.25,76.7 -18.72,9.33 -48.35,27.44 -66.06,32.71 -27.57,-16.53 -159.36,-126.81 -178.19,-133.46l-297.85 297.34c6.29,16.26 132.67,173.53 133.55,178.41 -2.79,15.32 -49.33,97.77 -61.29,126.5 -18.89,45.38 -33.83,92.92 -47.82,143.38l-223.11 30.46 -0.96 423.29 224.1 30.74c13.87,50 28.03,95 46.48,140.54 62.34,153.74 86.6,98.59 29.57,172.91l-100.2 134.91 297.32 297.79c19.25,-7.07 152.19,-118.25 178.4,-133.68l126.63 61.33c48.84,19.76 91.35,32.42 143.23,48.12l30.4 222.9 421.37 0.99 34.82 -241.6c-67.8,-2.14 -228.37,14.65 -274.52,-16.24 -20.51,-13.74 -54.27,-52.41 -72.2,-70.21l-218.3 -218.22c-24.93,-24.75 -46.39,-46.32 -71.24,-71.3 -56,-56.25 -47.24,-68.99 -46.66,-169.43 0.51,-87.43 -11.05,-32.14 -68.32,-152.17 -32.5,-68.12 -54.88,-146.43 -56.94,-230.89 -3.1,-127.29 30.61,-234.21 96.89,-333.66 10.54,-15.82 17.02,-24.69 30.25,-40.94 162.95,-200.23 448.28,-263.75 685.69,-150.36 117.61,56.18 67.71,68.99 147.61,68.34 154.4,-1.29 121.37,-4.31 245.12,117.91 49.62,49.01 95.24,95.54 144.81,144.68l143.74 145.79c30.12,45.59 12.45,206.21 16.33,273.06l240.56 -30.63 0.94 -423.41 -224.16 -30.73c-14.26,-51.22 -27.79,-93.82 -46.81,-140.22 -63,-153.79 -85.31,-101.58 -29.35,-173.38l100.47 -134.75 -297.41 -297.8 -132.54 98.61c-13.68,10.5 -30.32,25.53 -45.87,35l-126.72 -61.12c-48.94,-20.15 -91.41,-32.4 -143.05,-48.31l-30.55 -222.84 -423.23 -1.01 -30.68 223.95zm729.09 1871.17c49.74,49.09 95.25,95.48 144.9,144.64 26.08,25.83 120.63,130.19 147.51,136.17 18.02,-6.33 314.01,-308.74 369.66,-363.91 19.45,-19.27 53.17,-39.87 25.23,-69.65 -46.48,-49.59 -298.92,-292.83 -304.12,-306.49 -5.49,-14.37 -2.27,-306.23 -2.27,-363.33 0.01,-60.77 9.4,-63.05 -23.68,-95.97 -82.86,-82.49 -162.75,-161.75 -245.07,-244.92 -21.74,-21.98 -40.43,-40.51 -62.42,-62.36 -25.21,-25.06 -27.72,-43.54 -77.93,-43.23l-365.4 0.13c-40.52,-0.16 -96.16,-0.44 -49.07,45.47l365.15 366.17 -360.62 358.15c-19.93,-12.42 -76.31,-74.22 -98.12,-96.02 -33.82,-33.84 -64.62,-64.12 -98.08,-98.01l-147.41 -146.36c-14.26,-15.5 -40.3,-51.35 -60.08,-34.82 -13.49,11.26 -7.24,366.04 -7.25,430.61 0,33.74 3.67,34.52 20.88,51.31l323.02 322.89c12.94,12.98 22.36,28.51 44.72,30.44l356.4 -0.11c82.75,-0.04 60.41,-3.86 104.05,39.2z"/>
 </g>
</svg>
