<?xml version="1.0" encoding="UTF-8"?>
<!DOCTYPE svg PUBLIC "-//W3C//DTD SVG 1.1//EN" "http://www.w3.org/Graphics/SVG/1.1/DTD/svg11.dtd">
<!-- Creator: CorelDRAW -->
<svg xmlns="http://www.w3.org/2000/svg" xml:space="preserve" width="413px" height="413px" version="1.1" shape-rendering="geometricPrecision" text-rendering="geometricPrecision" image-rendering="optimizeQuality" fill-rule="evenodd" clip-rule="evenodd"
viewBox="0 0 184.04 184.04"
 xmlns:xlink="http://www.w3.org/1999/xlink"
 xmlns:xodm="http://www.corel.com/coreldraw/odm/2003">
 <g id="Camada_x0020_1">
  <metadata id="CorelCorpID_0Corel-Layer"/>
  <path fill="#3B82F6" d="M92.02 0c50.82,0 92.02,41.2 92.02,92.02 0,50.82 -41.2,92.02 -92.02,92.02 -50.82,0 -92.02,-41.2 -92.02,-92.02 0,-50.82 41.2,-92.02 92.02,-92.02zm-11.78 45.08c-4.43,1.35 -5.96,1.75 -9.94,3.74 -0.92,0.45 -2.36,1.33 -3.22,1.59 -1.34,-0.8 -7.76,-6.17 -8.68,-6.5l-14.5 14.48c0.31,0.79 6.46,8.45 6.5,8.69 -0.13,0.74 -2.4,4.76 -2.98,6.16 -0.92,2.21 -1.65,4.52 -2.33,6.98l-10.86 1.48 -0.05 20.61 10.91 1.5c0.68,2.43 1.37,4.62 2.27,6.84 3.03,7.49 4.21,4.8 1.43,8.42l-4.87 6.57 14.47 14.5c0.94,-0.35 7.41,-5.76 8.69,-6.51l6.16 2.98c2.38,0.97 4.45,1.58 6.98,2.35l1.48 10.85 20.52 0.05 1.69 -11.76c-3.3,-0.11 -11.12,0.71 -13.37,-0.8 -0.99,-0.66 -2.64,-2.55 -3.51,-3.41l-10.63 -10.63c-1.21,-1.2 -2.26,-2.25 -3.47,-3.47 -2.73,-2.74 -2.3,-3.36 -2.27,-8.25 0.02,-4.26 -0.54,-1.57 -3.33,-7.41 -1.58,-3.32 -2.67,-7.13 -2.77,-11.24 -0.15,-6.2 1.49,-11.41 4.72,-16.25 0.51,-0.77 0.83,-1.2 1.47,-1.99 7.93,-9.75 21.83,-12.84 33.39,-7.32 5.72,2.73 3.29,3.36 7.18,3.33 7.52,-0.07 5.91,-0.21 11.94,5.74 2.41,2.38 4.64,4.65 7.05,7.04l7 7.1c1.46,2.22 0.6,10.04 0.79,13.29l11.72 -1.49 0.04 -20.61 -10.91 -1.5c-0.7,-2.49 -1.36,-4.57 -2.28,-6.83 -3.07,-7.48 -4.16,-4.94 -1.43,-8.44l4.89 -6.56 -14.48 -14.5 -6.45 4.8c-0.67,0.51 -1.48,1.25 -2.24,1.71l-6.17 -2.98c-2.38,-0.98 -4.45,-1.58 -6.96,-2.35l-1.49 -10.85 -20.61 -0.05 -1.49 10.9zm35.5 91.11c2.42,2.39 4.64,4.65 7.05,7.04 1.27,1.26 5.88,6.34 7.19,6.63 0.87,-0.3 15.29,-15.03 18,-17.72 0.94,-0.93 2.58,-1.94 1.22,-3.39 -2.26,-2.41 -14.55,-14.25 -14.8,-14.92 -0.27,-0.7 -0.11,-14.91 -0.11,-17.69 0,-2.96 0.45,-3.07 -1.16,-4.67 -4.03,-4.02 -7.92,-7.88 -11.93,-11.93 -1.06,-1.07 -1.97,-1.97 -3.04,-3.03 -1.23,-1.23 -1.35,-2.12 -3.79,-2.11l-17.79 0.01c-1.98,-0.01 -4.69,-0.02 -2.39,2.21l17.78 17.83 -17.56 17.44c-0.97,-0.61 -3.72,-3.62 -4.78,-4.68 -1.65,-1.64 -3.15,-3.12 -4.78,-4.77l-7.17 -7.13c-0.7,-0.75 -1.97,-2.5 -2.93,-1.69 -0.66,0.55 -0.35,17.82 -0.35,20.97 0,1.64 0.18,1.68 1.02,2.49l15.72 15.73c0.63,0.63 1.09,1.38 2.18,1.48l17.35 -0.01c4.03,0 2.94,-0.19 5.07,1.91z"/>
 </g>
</svg>
