<?xml version="1.0" encoding="UTF-8"?>
<!DOCTYPE svg PUBLIC "-//W3C//DTD SVG 1.1//EN" "http://www.w3.org/Graphics/SVG/1.1/DTD/svg11.dtd">
<!-- Creator: CorelDRAW -->
<svg xmlns="http://www.w3.org/2000/svg" xml:space="preserve"  version="1.1" style="shape-rendering:geometricPrecision; text-rendering:geometricPrecision; image-rendering:optimizeQuality; fill-rule:evenodd; clip-rule:evenodd"
viewBox="0 0 549.71 549.72"
 xmlns:xlink="http://www.w3.org/1999/xlink"
 xmlns:xodm="http://www.corel.com/coreldraw/odm/2003">
 <defs>
  <style type="text/css">
   <![CDATA[
    .fil0 {fill:#3B82F6}
   ]]>
  </style>
 </defs>
 <g id="Camada_x0020_1">
  <metadata id="CorelCorpID_0Corel-Layer"/>
  <path class="fil0" d="M218.87 51.81c-21.04,6.38 -28.32,8.31 -47.26,17.75 -4.33,2.16 -11.19,6.35 -15.28,7.57 -6.38,-3.83 -36.87,-29.34 -41.23,-30.88l-68.91 68.8c1.45,3.76 30.7,40.15 30.9,41.28 -0.64,3.54 -11.41,22.62 -14.18,29.27 -4.37,10.5 -7.83,21.5 -11.06,33.17l-51.62 7.05 -0.22 97.94 51.85 7.11c3.21,11.57 6.48,21.98 10.75,32.52 14.42,35.57 20.03,22.81 6.84,40.01l-23.18 31.21 68.79 68.9c4.46,-1.63 35.21,-27.36 41.28,-30.93l29.3 14.19c11.3,4.57 21.13,7.5 33.14,11.13l7.03 51.57 97.49 0.23 8.06 -55.9c-15.69,-0.49 -52.84,3.39 -63.52,-3.76 -4.75,-3.18 -12.56,-12.13 -16.71,-16.24l-50.51 -50.49c-5.77,-5.73 -10.73,-10.72 -16.48,-16.5 -12.96,-13.02 -10.93,-15.96 -10.79,-39.2 0.12,-20.23 -2.56,-7.44 -15.81,-35.21 -7.52,-15.76 -12.7,-33.88 -13.18,-53.42 -0.72,-29.45 7.08,-54.19 22.42,-77.2 2.44,-3.66 3.94,-5.71 7,-9.47 37.7,-46.33 103.72,-61.02 158.65,-34.79 27.21,13 15.66,15.96 34.15,15.81 35.72,-0.3 28.08,-1 56.71,27.28 11.48,11.34 22.04,22.11 33.51,33.48l33.26 33.73c6.97,10.55 2.88,47.71 3.78,63.18l55.66 -7.09 0.22 -97.96 -51.86 -7.11c-3.3,-11.85 -6.43,-21.71 -10.83,-32.44 -14.58,-35.58 -19.74,-23.5 -6.79,-40.11l23.25 -31.18 -68.81 -68.9 -30.66 22.82c-3.17,2.43 -7.02,5.91 -10.61,8.1l-29.32 -14.14c-11.32,-4.66 -21.15,-7.5 -33.1,-11.18l-7.07 -51.56 -97.92 -0.23 -7.1 51.82zm168.69 432.93c11.51,11.36 22.04,22.09 33.53,33.47 6.03,5.98 27.91,30.12 34.13,31.51 4.17,-1.46 72.65,-71.43 85.53,-84.2 4.5,-4.46 12.3,-9.23 5.84,-16.12 -10.75,-11.47 -69.16,-67.75 -70.36,-70.91 -1.27,-3.33 -0.52,-70.85 -0.52,-84.06 0,-14.06 2.17,-14.59 -5.48,-22.2 -19.17,-19.09 -37.66,-37.43 -56.7,-56.67 -5.03,-5.08 -9.36,-9.37 -14.44,-14.43 -5.83,-5.8 -6.41,-10.07 -18.03,-10l-84.54 0.03c-9.38,-0.04 -22.25,-0.1 -11.35,10.52l84.48 84.72 -83.44 82.87c-4.61,-2.87 -17.66,-17.17 -22.7,-22.22 -7.83,-7.83 -14.95,-14.83 -22.69,-22.68l-34.11 -33.87c-3.3,-3.59 -9.33,-11.88 -13.9,-8.06 -3.12,2.61 -1.67,84.69 -1.68,99.63 0,7.81 0.85,7.99 4.83,11.87l74.74 74.71c2.99,3 5.17,6.6 10.35,7.04l82.46 -0.02c19.15,-0.01 13.98,-0.89 24.07,9.07z"/>
 </g>
</svg>
