<?xml version="1.0" encoding="UTF-8"?>
<!DOCTYPE svg PUBLIC "-//W3C//DTD SVG 1.1//EN" "http://www.w3.org/Graphics/SVG/1.1/DTD/svg11.dtd">
<!-- Creator: CorelDRAW -->
<svg xmlns="http://www.w3.org/2000/svg" xml:space="preserve" width="413px" height="413px" version="1.1" shape-rendering="geometricPrecision" text-rendering="geometricPrecision" image-rendering="optimizeQuality" fill-rule="evenodd" clip-rule="evenodd"
viewBox="0 0 182.12 182.12"
 xmlns:xlink="http://www.w3.org/1999/xlink"
 xmlns:xodm="http://www.corel.com/coreldraw/odm/2003">
 <defs>
   <linearGradient id="id0" gradientUnits="userSpaceOnUse" x1="91.06" y1="0" x2="91.06" y2="182.12">
    <stop offset="0" stop-opacity="1" stop-color="#3B82F6"/>
    <stop offset="1" stop-opacity="1" stop-color="#9FCBF2"/>
   </linearGradient>
 </defs>
 <g id="Camada_x0020_1">
  <metadata id="CorelCorpID_0Corel-Layer"/>
  <path fill="url(#id0)" d="M91.06 0c50.29,0 91.06,40.77 91.06,91.06 0,50.29 -40.77,91.06 -91.06,91.06 -50.29,0 -91.06,-40.77 -91.06,-91.06 0,-50.29 40.77,-91.06 91.06,-91.06zm-17.64 40.82c1.05,1.57 9.52,9.69 12.01,12.18 3.87,3.87 1.62,2.27 6.13,2.27 5.33,0 9.41,4.12 9.41,10.08 0,4.14 -1.78,1.41 5.96,9.16 1.93,1.93 6.55,6.09 7.82,7.98 1.83,-0.15 0.91,-0.34 4.03,-0.34 7.21,0 12.33,9.21 6.63,16.04 -5.4,6.47 -17.05,2.45 -17.05,-6.29 0,-1.83 0.54,-2.78 0.67,-4.37 -2.41,-1.62 -11.45,-12.24 -13.44,-12.77l0 34.95c1.73,1.15 2.34,1.31 3.62,3.11 4.41,6.18 0.37,15.37 -7.98,15.37 -7.97,0 -12.04,-8.95 -8.01,-15.07 5.87,-8.94 4.65,9.64 4.65,-38.36 0,-1.25 -1.02,-0.93 -2.75,-2.29 -3.36,-2.64 -4.42,-7.76 -2.63,-11.49l-14.7 -14.53c-1.64,1.13 -33.03,32.87 -36.96,36.79 -3.65,3.66 -4.12,3.75 -4.12,8.66 0,3.5 3.61,6.13 6.64,9.15l47.71 47.72c3.85,3.85 5.06,6.63 10.84,6.63 4.02,0 7.11,-4.25 9.32,-6.46l47.55 -47.55c3.84,-3.84 6.63,-5.13 6.63,-10.84 0,-4.08 -4.22,-7.07 -6.46,-9.32l-51.75 -51.75c-2.6,-2.63 -3.32,-2.76 -6.46,-2.77l-0.67 0 -0.18 0c-3.58,0 -6.78,4.27 -8.82,6.3 -1.9,1.9 -6.4,5.95 -7.64,7.81z"/>
 </g>
</svg>
