<?xml version="1.0" encoding="UTF-8"?>
<!DOCTYPE svg PUBLIC "-//W3C//DTD SVG 1.1//EN" "http://www.w3.org/Graphics/SVG/1.1/DTD/svg11.dtd">
<!-- Creator: CorelDRAW -->
<svg xmlns="http://www.w3.org/2000/svg" xml:space="preserve" width="413px" height="413px" version="1.1" shape-rendering="geometricPrecision" text-rendering="geometricPrecision" image-rendering="optimizeQuality" fill-rule="evenodd" clip-rule="evenodd"
viewBox="0 0 1194.87 1194.87"
 xmlns:xlink="http://www.w3.org/1999/xlink"
 xmlns:xodm="http://www.corel.com/coreldraw/odm/2003">
 <g id="Camada_x0020_1">
  <metadata id="CorelCorpID_0Corel-Layer"/>
  <path fill="#3B82F6" d="M597.43 0c329.96,0 597.44,267.48 597.44,597.43 0,329.96 -267.48,597.44 -597.44,597.44 -329.95,0 -597.43,-267.48 -597.43,-597.44 0,-329.95 267.48,-597.43 597.43,-597.43zm-115.74 267.84c6.9,10.3 62.45,63.55 78.82,79.92 25.37,25.39 10.6,14.88 40.23,14.88 34.95,0 61.73,27 61.73,66.14 0,27.13 -11.71,9.23 39.13,60.07 12.66,12.67 42.95,39.96 51.26,52.37 12.04,-1.01 6.01,-2.21 26.45,-2.21 47.29,0 80.9,60.42 43.5,105.23 -35.41,42.42 -111.84,16.04 -111.84,-41.3 0,-12 3.54,-18.2 4.41,-28.66 -15.84,-10.61 -75.17,-80.3 -88.19,-83.77l0 229.28c11.31,7.57 15.31,8.64 23.7,20.39 28.97,40.59 2.43,100.86 -52.35,100.86 -52.27,0 -78.95,-58.67 -52.56,-98.85 38.53,-58.69 30.51,63.28 30.51,-251.68 0,-8.21 -6.64,-6.09 -18.03,-15.04 -22.04,-17.34 -28.97,-50.9 -17.24,-75.35l-96.47 -95.33c-10.77,7.39 -216.71,215.61 -242.49,241.38 -23.95,23.95 -27.01,24.6 -27.01,56.77 0,22.99 23.7,40.23 43.54,60.08l313.06 313.05c25.25,25.26 33.19,43.54 71.1,43.54 26.39,0 46.63,-27.89 61.17,-42.44l311.95 -311.95c25.18,-25.17 43.54,-33.66 43.54,-71.1 0,-26.82 -27.69,-46.43 -42.44,-61.17l-339.5 -339.51c-17.06,-17.26 -21.78,-18.15 -42.36,-18.19l-4.42 0 -1.17 0c-23.53,0 -44.53,28 -57.87,41.34 -12.45,12.44 -41.98,39.04 -50.16,51.25z"/>
 </g>
</svg>
