<?xml version="1.0" encoding="UTF-8"?>
<!DOCTYPE svg PUBLIC "-//W3C//DTD SVG 1.1//EN" "http://www.w3.org/Graphics/SVG/1.1/DTD/svg11.dtd">
<!-- Creator: CorelDRAW -->
<svg xmlns="http://www.w3.org/2000/svg" xml:space="preserve" version="1.1" style="shape-rendering:geometricPrecision; text-rendering:geometricPrecision; image-rendering:optimizeQuality; fill-rule:evenodd; clip-rule:evenodd"
viewBox="0 0 8133.52 8133.52"
 xmlns:xlink="http://www.w3.org/1999/xlink"
 xmlns:xodm="http://www.corel.com/coreldraw/odm/2003">
 <defs>
  <style type="text/css">
   <![CDATA[
    .fil0 {fill:#3B82F6;fill-rule:nonzero}
   ]]>
  </style>
 </defs>
 <g id="Camada_x0020_1">
  <metadata id="CorelCorpID_0Corel-Layer"/>
  <g>
   <path class="fil0" d="M7980.29 3704.55l-3551.25 -3551.02c-98.21,-98.28 -231.56,-153.53 -370.49,-153.53 -138.96,0 -272.31,55.25 -370.54,153.55l-737.15 737.51 935.26 935.27c64.34,-21.82 132.11,-33.06 200.08,-33.06 164.92,0 323.24,65.56 439.84,182.08 116.55,116.73 182.14,275.13 182.14,440.08 0,69.4 -11.72,138.58 -34.43,204.09l901.72 901.45c65.62,-22.73 134.71,-34.43 204.14,-34.43 165.02,0 323.52,65.7 440.12,182.44 116.73,116.78 182.54,275.4 182.54,440.63 0,165.25 -65.81,323.87 -182.59,440.65 -116.9,116.86 -275.68,182.59 -441,182.59 -165.33,0 -324.1,-65.73 -441.05,-182.54 -116.71,-116.88 -182.24,-275.38 -182.24,-440.55 0,-81.42 16.06,-162.19 47.05,-237.49l-840.9 -840.63 -0.05 2212.65c212.52,104.96 347.18,321.62 347.18,558.68 0,165.25 -65.73,323.87 -182.51,440.65 -116.83,116.76 -275.45,182.57 -440.7,182.57 -165.23,0 -323.85,-65.81 -440.63,-182.59 -116.9,-116.76 -182.63,-275.46 -182.63,-440.71 0,-165.25 65.73,-323.95 182.58,-440.72 58.29,-58.34 127.64,-104.81 203.94,-136.25l0 -2232.94c-233.7,-96.2 -386.27,-324.2 -386.27,-576.95 0,-82.5 16.46,-164.29 48.23,-240.4l-922.25 -922.36 -2435.24 2434.63c-98.08,98.31 -153.2,231.61 -153.2,370.5 0,138.86 55.12,272.16 153.23,370.44l3551.4 3551.49c98.28,98.06 231.59,153.18 370.44,153.18 138.88,0 272.19,-55.12 370.47,-153.23l3534.77 -3534.8c98.08,-98.29 153.2,-231.59 153.2,-370.47 0,-138.86 -55.12,-272.16 -153.23,-370.45l0 -0.02zm0 0l0 0 0 0z"/>
  </g>
 </g>
</svg>
