<?xml version="1.0" encoding="UTF-8"?>
<!DOCTYPE svg PUBLIC "-//W3C//DTD SVG 1.1//EN" "http://www.w3.org/Graphics/SVG/1.1/DTD/svg11.dtd">
<!-- Creator: CorelDRAW -->
<svg xmlns="http://www.w3.org/2000/svg" xml:space="preserve" width="413px" height="413px" version="1.1" shape-rendering="geometricPrecision" text-rendering="geometricPrecision" image-rendering="optimizeQuality" fill-rule="evenodd" clip-rule="evenodd"
viewBox="0 0 157.85 157.85"
 xmlns:xlink="http://www.w3.org/1999/xlink"
 xmlns:xodm="http://www.corel.com/coreldraw/odm/2003">
 <g id="Camada_x0020_1">
  <metadata id="CorelCorpID_0Corel-Layer"/>
  <path fill="#3B82F6" d="M78.93 0c43.59,0 78.92,35.34 78.92,78.93 0,43.59 -35.33,78.92 -78.92,78.92 -43.59,0 -78.93,-35.33 -78.93,-78.92 0,-43.59 35.34,-78.93 78.93,-78.93zm-35.78 126.74l-7.97 -89.31 87.49 0 -7.97 89.29 -35.83 9.94 -35.72 -9.92 0 0zm35.74 -37.93l0.04 0 13.45 0 -1.28 14.21 -12.21 3.29 -0.01 0.01 -12.2 -3.3 -0.78 -8.73 -5.93 0 -5.06 0 1.53 17.2 22.44 6.22 0.05 -0.01 0 0 22.42 -6.21 0.16 -1.85 2.58 -28.84 0.26 -2.94 -2.95 0 -22.47 0 -0.04 0 -14.45 0 -1 -11.22 15.45 0 0.04 0 26.39 0 0.03 0 0.22 -2.46 0.5 -5.55 0.26 -2.94 -27.4 0 -0.04 0 -27.42 0 0.26 2.94 2.69 30.18 24.47 0 0 0z"/>
 </g>
</svg>
