<?xml version="1.0" encoding="UTF-8"?>
<!DOCTYPE svg PUBLIC "-//W3C//DTD SVG 1.1//EN" "http://www.w3.org/Graphics/SVG/1.1/DTD/svg11.dtd">
<!-- Creator: CorelDRAW -->
<svg xmlns="http://www.w3.org/2000/svg" xml:space="preserve" width="413px" height="413px" version="1.1" shape-rendering="geometricPrecision" text-rendering="geometricPrecision" image-rendering="optimizeQuality" fill-rule="evenodd" clip-rule="evenodd"
viewBox="0 0 96.77 96.77"
 xmlns:xlink="http://www.w3.org/1999/xlink"
 xmlns:xodm="http://www.corel.com/coreldraw/odm/2003">
 <defs>
   <linearGradient id="id0" gradientUnits="userSpaceOnUse" x1="48.39" y1="0" x2="48.39" y2="96.77">
    <stop offset="0" stop-opacity="1" stop-color="#3B82F6"/>
    <stop offset="1" stop-opacity="1" stop-color="#7FC3FF"/>
   </linearGradient>
 </defs>
 <g id="Camada_x0020_1">
  <metadata id="CorelCorpID_0Corel-Layer"/>
  <path fill="url(#id0)" d="M48.39 0c26.72,0 48.38,21.66 48.38,48.39 0,26.72 -21.66,48.38 -48.38,48.38 -26.73,0 -48.39,-21.66 -48.39,-48.38 0,-26.73 21.66,-48.39 48.39,-48.39zm-21.94 77.7l-4.88 -54.75 53.63 0 -4.88 54.74 -21.97 6.09 -21.9 -6.08 0 0zm21.91 -23.25l0.03 0 8.24 0 -0.78 8.7 -7.49 2.03 0 0 -7.48 -2.02 -0.48 -5.36 -3.63 0 -3.11 0 0.94 10.55 13.76 3.81 0.03 0 0 -0.01 13.74 -3.8 0.1 -1.14 1.58 -17.68 0.16 -1.8 -1.8 0 -13.78 0 -0.02 0 -8.87 0 -0.61 -6.88 9.48 0 0.02 0 16.17 0 0.03 0 0.13 -1.5 0.31 -3.41 0.16 -1.8 -16.8 0 -0.02 0 -16.82 0 0.16 1.8 1.65 18.5 15 0 0 0.01z"/>
 </g>
</svg>
