<?xml version="1.0" encoding="UTF-8"?>
<!DOCTYPE svg PUBLIC "-//W3C//DTD SVG 1.1//EN" "http://www.w3.org/Graphics/SVG/1.1/DTD/svg11.dtd">
<!-- Creator: CorelDRAW -->
<svg xmlns="http://www.w3.org/2000/svg" xml:space="preserve" width="413px" height="413px" version="1.1" shape-rendering="geometricPrecision" text-rendering="geometricPrecision" image-rendering="optimizeQuality" fill-rule="evenodd" clip-rule="evenodd"
viewBox="0 0 97.41 97.41"
 xmlns:xlink="http://www.w3.org/1999/xlink"
 xmlns:xodm="http://www.corel.com/coreldraw/odm/2003">
 <defs>
   <linearGradient id="id0" gradientUnits="userSpaceOnUse" x1="48.71" y1="0" x2="48.71" y2="97.41">
    <stop offset="0" stop-opacity="1" stop-color="#3B82F6"/>
    <stop offset="1" stop-opacity="1" stop-color="#9FCBF2"/>
   </linearGradient>
 </defs>
 <g id="Camada_x0020_1">
  <metadata id="CorelCorpID_0Corel-Layer"/>
  <path fill="url(#id0)" d="M48.71 0c26.9,0 48.7,21.81 48.7,48.71 0,26.9 -21.8,48.7 -48.7,48.7 -26.9,0 -48.71,-21.8 -48.71,-48.7 0,-26.9 21.81,-48.71 48.71,-48.71zm-26.81 18.09l53.61 0c2.1,0 3.81,1.71 3.81,3.81l0 53.61c0,2.1 -1.71,3.81 -3.81,3.81l-53.61 0c-2.1,0 -3.81,-1.71 -3.81,-3.81l0 -53.61c0,-2.1 1.71,-3.81 3.81,-3.81zm37.32 47.84c1.23,2.01 2.84,3.49 5.68,3.49 2.38,0 3.9,-1.19 3.9,-2.83 0,-1.98 -1.56,-2.68 -4.18,-3.82l-1.44 -0.62c-4.15,-1.77 -6.91,-3.98 -6.91,-8.67 0,-4.31 3.28,-7.6 8.42,-7.6 3.66,0 6.29,1.27 8.19,4.61l-4.48 2.87c-0.99,-1.77 -2.05,-2.46 -3.7,-2.46 -1.69,0 -2.76,1.07 -2.76,2.46 0,1.73 1.07,2.43 3.54,3.5l1.44 0.61c4.89,2.1 7.65,4.24 7.65,9.04 0,5.18 -4.07,8.02 -9.54,8.02 -5.34,0 -8.79,-2.54 -10.48,-5.88l4.67 -2.72zm-20.32 0.5c0.9,1.6 1.72,2.96 3.7,2.96 1.89,0 3.08,-0.74 3.08,-3.62l0 -19.56 5.76 0 0 19.64c0,5.96 -3.5,8.67 -8.6,8.67 -4.6,0 -7.27,-2.38 -8.63,-5.26l4.69 -2.83z"/>
 </g>
</svg>
