<?xml version="1.0" encoding="UTF-8"?>
<!DOCTYPE svg PUBLIC "-//W3C//DTD SVG 1.1//EN" "http://www.w3.org/Graphics/SVG/1.1/DTD/svg11.dtd">
<!-- Creator: CorelDRAW -->
<svg xmlns="http://www.w3.org/2000/svg" xml:space="preserve" width="413px" height="413px" version="1.1" shape-rendering="geometricPrecision" text-rendering="geometricPrecision" image-rendering="optimizeQuality" fill-rule="evenodd" clip-rule="evenodd"
viewBox="0 0 1452.18 1452.18"
 xmlns:xlink="http://www.w3.org/1999/xlink"
 xmlns:xodm="http://www.corel.com/coreldraw/odm/2003">
 <g id="Camada_x0020_1">
  <metadata id="CorelCorpID_0Corel-Layer"/>
  <path fill="#3B82F6" d="M726.09 0c401.01,0 726.09,325.08 726.09,726.09 0,401.01 -325.08,726.09 -726.09,726.09 -401.01,0 -726.09,-325.08 -726.09,-726.09 0,-401.01 325.08,-726.09 726.09,-726.09zm-456.4 269.69l912.8 0 0 912.8 -912.8 0 0 -912.8zm613.16 713.14c18.38,30.03 42.29,52.09 84.61,52.09 35.54,0 58.24,-17.77 58.24,-42.29 0,-29.42 -23.33,-39.83 -62.44,-56.93l-21.45 -9.19c-61.88,-26.38 -103.02,-59.39 -103.02,-129.25 0,-64.32 49.02,-113.31 125.63,-113.31 54.52,0 93.75,18.98 122.01,68.67l-66.78 42.9c-14.7,-26.37 -30.58,-36.75 -55.2,-36.75 -25.13,0 -41.04,15.94 -41.04,36.75 0,25.75 15.94,36.15 52.72,52.09l21.46 9.19c72.87,31.25 114.04,63.11 114.04,134.77 0,77.21 -60.67,119.54 -142.13,119.54 -79.65,0 -131.14,-37.97 -156.3,-87.72l69.65 -40.56zm-302.99 7.42c13.48,23.92 25.74,44.12 55.19,44.12 28.18,0 45.95,-11.01 45.95,-53.88l0 -291.67 85.77 0 0 292.82c0,88.82 -52.06,129.26 -128.1,129.26 -68.67,0 -108.44,-35.54 -128.67,-78.35l69.86 -42.3z"/>
 </g>
</svg>
