<?xml version="1.0" encoding="UTF-8"?>
<!DOCTYPE svg PUBLIC "-//W3C//DTD SVG 1.1//EN" "http://www.w3.org/Graphics/SVG/1.1/DTD/svg11.dtd">
<!-- Creator: CorelDRAW -->
<svg xmlns="http://www.w3.org/2000/svg" xml:space="preserve" version="1.1" style="shape-rendering:geometricPrecision; text-rendering:geometricPrecision; image-rendering:optimizeQuality; fill-rule:evenodd; clip-rule:evenodd"
viewBox="0 0 335.18 335.18"
 xmlns:xlink="http://www.w3.org/1999/xlink"
 xmlns:xodm="http://www.corel.com/coreldraw/odm/2003">
 <defs>
  <style type="text/css">
   <![CDATA[
    .fil0 {fill:#3B82F6}
   ]]>
  </style>
 </defs>
 <g id="Camada_x0020_1">
  <metadata id="CorelCorpID_0Corel-Layer"/>
  <path class="fil0" d="M-0 0l335.18 0 0 335.18 -335.18 0 0 -335.18zm225.15 261.86c6.75,11.03 15.53,19.13 31.07,19.13 13.05,0 21.38,-6.52 21.38,-15.53 0,-10.8 -8.57,-14.62 -22.93,-20.9l-7.88 -3.37c-22.72,-9.69 -37.83,-21.81 -37.83,-47.46 0,-23.62 18,-41.61 46.13,-41.61 20.02,0 34.42,6.97 44.8,25.22l-24.52 15.75c-5.4,-9.69 -11.23,-13.5 -20.27,-13.5 -9.23,0 -15.07,5.85 -15.07,13.5 0,9.45 5.85,13.27 19.36,19.13l7.88 3.37c26.76,11.47 41.88,23.17 41.88,49.48 0,28.35 -22.28,43.9 -52.19,43.9 -29.25,0 -48.15,-13.94 -57.39,-32.21l25.57 -14.89zm-111.26 2.73c4.95,8.78 9.45,16.2 20.27,16.2 10.34,0 16.87,-4.04 16.87,-19.79l0 -107.1 31.5 0 0 107.52c0,32.61 -19.12,47.46 -47.04,47.46 -25.22,0 -39.82,-13.05 -47.25,-28.77l25.65 -15.53z"/>
 </g>
</svg>
