<?xml version="1.0" encoding="UTF-8"?>
<!DOCTYPE svg PUBLIC "-//W3C//DTD SVG 1.1//EN" "http://www.w3.org/Graphics/SVG/1.1/DTD/svg11.dtd">
<!-- Creator: CorelDRAW -->
<svg xmlns="http://www.w3.org/2000/svg" xml:space="preserve" width="413px" height="413px" version="1.1" shape-rendering="geometricPrecision" text-rendering="geometricPrecision" image-rendering="optimizeQuality" fill-rule="evenodd" clip-rule="evenodd"
viewBox="0 0 413 413"
 xmlns:xlink="http://www.w3.org/1999/xlink"
 xmlns:xodm="http://www.corel.com/coreldraw/odm/2003">
 <g id="Camada_x0020_1">
  <metadata id="CorelCorpID_0Corel-Layer"/>
  <path fill="#3B82F6" d="M206.5 0c114.05,0 206.5,92.45 206.5,206.5 0,114.05 -92.45,206.5 -206.5,206.5 -114.05,0 -206.5,-92.45 -206.5,-206.5 0,-114.05 92.45,-206.5 206.5,-206.5zm-113.66 76.7l227.32 0c8.88,0 16.14,7.26 16.14,16.14l0 227.32c0,8.88 -7.26,16.14 -16.14,16.14l-227.32 0c-8.88,0 -16.14,-7.26 -16.14,-16.14l0 -227.32c0,-8.88 7.26,-16.14 16.14,-16.14zm158.24 202.82c5.23,8.54 12.03,14.81 24.07,14.81 10.1,0 16.56,-5.05 16.56,-12.03 0,-8.36 -6.64,-11.32 -17.76,-16.19l-6.1 -2.61c-17.6,-7.5 -29.3,-16.89 -29.3,-36.76 0,-18.29 13.94,-32.23 35.73,-32.23 15.51,0 26.66,5.4 34.7,19.54l-18.99 12.2c-4.18,-7.51 -8.7,-10.46 -15.7,-10.46 -7.15,0 -11.67,4.54 -11.67,10.46 0,7.32 4.53,10.28 14.99,14.81l6.1 2.61c20.73,8.89 32.44,17.95 32.44,38.33 0,21.96 -17.26,34 -40.42,34 -22.66,0 -37.3,-10.8 -44.46,-24.95l19.81 -11.53zm-86.17 2.11c3.84,6.8 7.32,12.55 15.7,12.55 8.01,0 13.07,-3.14 13.07,-15.33l0 -82.95 24.39 0 0 83.28c0,25.26 -14.81,36.76 -36.43,36.76 -19.53,0 -30.84,-10.11 -36.6,-22.28l19.87 -12.03z"/>
 </g>
</svg>
