<?xml version="1.0" encoding="UTF-8"?>
<!DOCTYPE svg PUBLIC "-//W3C//DTD SVG 1.1//EN" "http://www.w3.org/Graphics/SVG/1.1/DTD/svg11.dtd">
<!-- Creator: CorelDRAW -->
<svg xmlns="http://www.w3.org/2000/svg" xml:space="preserve" width="413px" height="413px" version="1.1" shape-rendering="geometricPrecision" text-rendering="geometricPrecision" image-rendering="optimizeQuality" fill-rule="evenodd" clip-rule="evenodd"
viewBox="0 0 184.4 184.4"
 xmlns:xlink="http://www.w3.org/1999/xlink"
 xmlns:xodm="http://www.corel.com/coreldraw/odm/2003">
 <defs>
   <linearGradient id="id0" gradientUnits="userSpaceOnUse" x1="92.2" y1="0" x2="92.2" y2="184.4">
    <stop offset="0" stop-opacity="1" stop-color="#3B82F6"/>
    <stop offset="1" stop-opacity="1" stop-color="#9FCBF2"/>
   </linearGradient>
 </defs>
 <g id="Camada_x0020_1">
  <metadata id="CorelCorpID_0Corel-Layer"/>
  <path fill="url(#id0)" d="M92.2 0c50.92,0 92.2,41.28 92.2,92.2 0,50.92 -41.28,92.2 -92.2,92.2 -50.92,0 -92.2,-41.28 -92.2,-92.2 0,-50.92 41.28,-92.2 92.2,-92.2zm-3.8 34.28c-0.24,0.02 -1.04,0.1 -1.75,0.16 -16.46,1.48 -31.89,10.36 -41.65,24.01 -5.44,7.59 -8.92,16.2 -10.23,25.32 -0.47,3.19 -0.52,4.13 -0.52,8.44 0,4.32 0.05,5.26 0.52,8.44 3.15,21.76 18.64,40.05 39.64,46.82 3.76,1.22 7.73,2.04 12.24,2.54 1.75,0.19 9.35,0.19 11.1,0 7.79,-0.86 14.38,-2.79 20.88,-6.11 1,-0.51 1.19,-0.64 1.06,-0.75 -0.09,-0.07 -4.34,-5.77 -9.44,-12.66l-9.27 -12.52 -11.61 -17.18c-6.39,-9.45 -11.65,-17.18 -11.7,-17.18 -0.04,-0.01 -0.09,7.63 -0.11,16.95 -0.03,16.33 -0.04,16.98 -0.25,17.37 -0.29,0.55 -0.52,0.78 -0.99,1.03 -0.37,0.18 -0.68,0.21 -2.4,0.21l-1.96 0 -0.52 -0.32c-0.34,-0.22 -0.59,-0.5 -0.76,-0.83l-0.23 -0.51 0.02 -22.72 0.03 -22.72 0.35 -0.44c0.19,-0.24 0.57,-0.55 0.84,-0.69 0.47,-0.23 0.65,-0.25 2.61,-0.25 2.31,0 2.7,0.09 3.3,0.74 0.17,0.19 6.45,9.66 13.98,21.06 7.52,11.41 17.81,26.99 22.86,34.64l9.18 13.9 0.46 -0.31c4.12,-2.67 8.47,-6.48 11.91,-10.44 7.33,-8.42 12.06,-18.68 13.64,-29.63 0.47,-3.18 0.52,-4.12 0.52,-8.44 0,-4.31 -0.05,-5.25 -0.52,-8.44 -3.15,-21.76 -18.63,-40.04 -39.64,-46.82 -3.71,-1.2 -7.65,-2.03 -12.07,-2.53 -1.09,-0.11 -8.57,-0.23 -9.52,-0.14zm23.73 35.05c0.54,0.27 0.99,0.79 1.14,1.33 0.1,0.3 0.12,6.6 0.1,20.79l-0.04 20.37 -3.59 -5.5 -3.6 -5.51 0 -14.81c0,-9.57 0.04,-14.95 0.11,-15.21 0.18,-0.63 0.58,-1.13 1.12,-1.43 0.47,-0.24 0.64,-0.26 2.41,-0.26 1.68,0 1.98,0.02 2.35,0.23z"/>
 </g>
</svg>
