<?xml version="1.0" encoding="UTF-8"?>
<!DOCTYPE svg PUBLIC "-//W3C//DTD SVG 1.1//EN" "http://www.w3.org/Graphics/SVG/1.1/DTD/svg11.dtd">
<!-- Creator: CorelDRAW -->
<svg xmlns="http://www.w3.org/2000/svg" xml:space="preserve" width="413px" height="413px" version="1.1" shape-rendering="geometricPrecision" text-rendering="geometricPrecision" image-rendering="optimizeQuality" fill-rule="evenodd" clip-rule="evenodd"
viewBox="0 0 196.03 196.03"
 xmlns:xlink="http://www.w3.org/1999/xlink"
 xmlns:xodm="http://www.corel.com/coreldraw/odm/2003">
 <g id="Camada_x0020_1">
  <metadata id="CorelCorpID_0Corel-Layer"/>
  <path fill="#3B82F6" d="M98.01 0c54.13,0 98.02,43.88 98.02,98.01 0,54.13 -43.89,98.02 -98.02,98.02 -54.13,0 -98.01,-43.89 -98.01,-98.02 0,-54.13 43.88,-98.01 98.01,-98.01zm47.79 63.38l-42.75 -25.64c-1.53,-0.87 -3.27,-1.34 -5.04,-1.34 -1.76,0 -3.5,0.47 -5.04,1.34l-42.74 25.63c-3.12,1.91 -5.02,5.31 -5.02,8.96 0,0.02 0,0.04 0,0.06l0 51.2c0,0.01 0,0.03 0,0.05 0,3.66 1.9,7.05 5.02,8.97l11.21 6.69 0.06 0.04c5.66,2.89 7.83,2.89 10.34,2.89 8.84,0 14.33,-5.72 14.33,-14.93l0 -49.64c0,-0.01 0,-0.01 0,-0.02 0,-1.28 -1.03,-2.33 -2.32,-2.34l-6.15 0c-1.28,0.01 -2.32,1.06 -2.32,2.34 0,0.01 0,0.01 0,0.02l0 49.64c0,0.04 0,0.09 0,0.13 0,1.4 -0.71,2.71 -1.88,3.47 -1.62,0.99 -3.98,0.78 -6.64,-0.59l-10.74 -6.47c-0.08,-0.06 -0.13,-0.15 -0.13,-0.25 0,0 0,0 0,0l0 -50.48c0,-0.12 0.06,-0.23 0.16,-0.29l41.76 -25.58c0.03,-0.01 0.06,-0.02 0.1,-0.02 0.03,0 0.07,0.01 0.1,0.02l41.78 25.58c0.09,0.07 0.15,0.18 0.15,0.3 0,0 0,0 0,0l0 50.47c0,0 0,0 0,0 0,0.11 -0.04,0.2 -0.12,0.27l-41.82 24.93c-0.04,0.01 -0.07,0.02 -0.11,0.02 -0.04,0 -0.08,-0.01 -0.11,-0.02l-10.68 -6.34c-0.35,-0.23 -0.76,-0.35 -1.17,-0.35 -0.34,0 -0.68,0.08 -0.98,0.24l-0.1 0.05c-2.95,1.75 -3.74,2.2 -6.47,3.2 -0.45,0.16 -1.49,0.55 -1.58,1.58 -0.1,1.04 0.9,1.78 1.79,2.29l14.27 8.77c1.52,0.91 3.26,1.39 5.03,1.39l0.16 0c1.73,-0.02 3.42,-0.51 4.9,-1.39l42.75 -25.62c3.12,-1.91 5.02,-5.32 5.02,-8.98 0,-0.01 0,-0.03 0,-0.04l0 -51.2c0,-0.02 0,-0.04 0,-0.05 0,-3.66 -1.91,-7.05 -5.02,-8.96l0 0zm-33.52 51.69c-10.25,0 -12.44,-2.86 -13.09,-7.49 -0.15,-1.13 -1.11,-1.99 -2.26,-2.01l-5.45 0c-1.26,0.03 -2.27,1.06 -2.27,2.32 0,0.01 0,0.03 0,0.04 0,4.01 1.41,17.1 23.08,17.1 6.71,0 12.28,-1.57 16.13,-4.54 3.84,-2.96 5.9,-7.28 5.9,-12.43 0,-10.33 -6.74,-13.15 -20.01,-15 -13.49,-1.88 -13.49,-2.83 -13.49,-4.92 0,-1.5 0,-5.03 9.75,-5.03 6.94,0 10.65,0.88 11.84,5.5 0.22,1.06 1.14,1.82 2.22,1.84l5.46 0c0.66,-0.01 1.27,-0.3 1.7,-0.79 0.38,-0.44 0.59,-1.01 0.59,-1.59 0,-0.06 0,-0.12 -0.01,-0.18 -0.71,-9.78 -7.85,-14.74 -21.79,-14.74 -12.67,0 -20.23,5.71 -20.23,15.27 0,10.48 7.84,13.44 19.61,14.66 13.75,1.43 13.75,3.5 13.75,5.33 0.01,2.86 -1.18,6.66 -11.43,6.66z"/>
 </g>
</svg>
