<?xml version="1.0" encoding="UTF-8"?>
<!DOCTYPE svg PUBLIC "-//W3C//DTD SVG 1.1//EN" "http://www.w3.org/Graphics/SVG/1.1/DTD/svg11.dtd">
<!-- Creator: CorelDRAW -->
<svg xmlns="http://www.w3.org/2000/svg" xml:space="preserve" width="413px" height="413px" version="1.1" shape-rendering="geometricPrecision" text-rendering="geometricPrecision" image-rendering="optimizeQuality" fill-rule="evenodd" clip-rule="evenodd"
viewBox="0 0 91.36 91.36"
 xmlns:xlink="http://www.w3.org/1999/xlink"
 xmlns:xodm="http://www.corel.com/coreldraw/odm/2003">
 <g id="Camada_x0020_1">
  <metadata id="CorelCorpID_0Corel-Layer"/>
  <path fill="#3B82F6" d="M45.68 0c25.23,0 45.68,20.45 45.68,45.68 0,25.23 -20.45,45.68 -45.68,45.68 -25.23,0 -45.68,-20.45 -45.68,-45.68 0,-25.23 20.45,-45.68 45.68,-45.68zm-17.64 30.94c0,-0.25 -0.14,-0.49 -0.36,-0.62l-5.93 -3.41c-0.1,-0.05 -0.21,-0.08 -0.32,-0.09l-0.05 0c-0.12,0 -0.23,0.04 -0.33,0.09l-5.92 3.41c-0.23,0.13 -0.37,0.37 -0.37,0.62l0.02 9.17c0,0.12 0.07,0.25 0.18,0.3 0.11,0.07 0.25,0.07 0.35,0l3.52 -2.01c0.23,-0.12 0.36,-0.36 0.36,-0.61l0 -4.29c0,-0.26 0.14,-0.49 0.37,-0.62l1.49 -0.86c0.12,-0.07 0.24,-0.1 0.37,-0.1 0.12,0 0.25,0.03 0.35,0.1l1.49 0.86c0.23,0.13 0.37,0.36 0.37,0.62l0 4.29c0,0.25 0.14,0.49 0.36,0.61l3.52 2.01c0.11,0.07 0.25,0.07 0.36,0 0.12,-0.05 0.19,-0.18 0.19,-0.3l-0.02 -9.17zm16.37 7.41l-0.04 -0.07 0 0.09 0.04 -0.02zm-7.37 -12.57l-0.08 0.04 0.11 0 -0.03 -0.04zm-6 12.39c0.07,0.12 0.17,0.22 0.29,0.29l5.91 3.39c0.11,0.07 0.22,0.1 0.35,0.1 0.07,0 0.14,-0.01 0.21,-0.03l0 0c0.05,-0.01 0.11,-0.04 0.17,-0.07l5.89 -3.39c0.23,-0.13 0.37,-0.37 0.37,-0.62l0 -6.8c0,-0.19 -0.09,-0.37 -0.21,-0.49l-0.01 0.02c-0.05,-0.06 -0.11,-0.11 -0.17,-0.15l-5.89 -3.39c-0.06,-0.04 -0.13,-0.07 -0.2,-0.08l0.01 -0.01c-0.17,-0.03 -0.37,-0.01 -0.54,0.09l-5.89 3.39c-0.23,0.13 -0.38,0.37 -0.38,0.62l0 6.8 0 0.01 0 0.01 0 0.01c0,0.1 0.04,0.21 0.09,0.3l0 0zm38.88 -5.19c0.04,-0.03 0.09,-0.03 0.14,0l1.13 0.66c0.04,0.02 0.07,0.07 0.07,0.12l0 1.32c0,0.05 -0.03,0.09 -0.07,0.12l-1.13 0.66c-0.05,0.03 -0.1,0.03 -0.14,0l-1.14 -0.66c-0.04,-0.03 -0.07,-0.07 -0.07,-0.12l0 -1.32c0,-0.05 0.03,-0.1 0.07,-0.12l1.14 -0.66zm6.33 0.32c0.22,-0.12 0.35,-0.36 0.35,-0.61l0 -1.67c0,-0.25 -0.14,-0.49 -0.35,-0.61l-5.89 -3.41c-0.22,-0.13 -0.49,-0.13 -0.71,0l-5.93 3.42c-0.22,0.13 -0.36,0.37 -0.36,0.62l0 6.83c0,0.25 0.14,0.49 0.36,0.62l5.89 3.35c0.22,0.13 0.49,0.13 0.7,0l3.56 -1.98c0.11,-0.06 0.18,-0.19 0.18,-0.31 0,-0.13 -0.07,-0.25 -0.18,-0.31l-5.95 -3.42c-0.11,-0.07 -0.18,-0.19 -0.18,-0.31l0 -2.14c0,-0.13 0.07,-0.25 0.18,-0.31l1.86 -1.06c0.11,-0.07 0.25,-0.07 0.36,0l1.86 1.06c0.11,0.07 0.18,0.18 0.18,0.31l0 1.68c0,0.12 0.07,0.25 0.18,0.31 0.11,0.07 0.25,0.07 0.37,0l3.52 -2.06zm-19.72 -14.98c-0.12,-0.06 -0.26,-0.06 -0.35,0 -0.11,0.07 -0.18,0.18 -0.18,0.31l0 9.08c0,0.08 -0.05,0.17 -0.13,0.22 -0.08,0.05 -0.17,0.05 -0.25,0l-1.48 -0.85c-0.23,-0.12 -0.49,-0.12 -0.72,0l-5.92 3.43c-0.23,0.12 -0.37,0.36 -0.37,0.61l0 6.84c0,0.25 0.14,0.48 0.37,0.61l5.92 3.42c0.23,0.13 0.49,0.13 0.72,0l5.92 -3.42c0.23,-0.13 0.37,-0.36 0.37,-0.61l0 -17.04c0,-0.27 -0.14,-0.51 -0.37,-0.63l-3.53 -1.97zm-0.55 17.38c0,0.07 -0.03,0.13 -0.08,0.16l-2.03 1.17c-0.06,0.03 -0.12,0.03 -0.18,0l-2.03 -1.17c-0.05,-0.03 -0.08,-0.1 -0.08,-0.16l0 -2.34c0,-0.07 0.03,-0.13 0.08,-0.16l2.03 -1.17c0.06,-0.03 0.12,-0.03 0.18,0l2.03 1.17c0.05,0.03 0.08,0.1 0.08,0.16l0 2.34zm-10.3 37.39c-0.41,0 -0.8,-0.11 -1.15,-0.31l-3.66 -2.17c-0.55,-0.3 -0.28,-0.41 -0.11,-0.47 0.74,-0.24 0.88,-0.3 1.65,-0.74 0.08,-0.05 0.19,-0.03 0.27,0.03l2.81 1.68c0.11,0.05 0.25,0.05 0.33,0l10.97 -6.36c0.11,-0.05 0.17,-0.16 0.17,-0.3l0 -12.68c0,-0.13 -0.06,-0.24 -0.17,-0.3l-10.97 -6.32c-0.11,-0.06 -0.25,-0.06 -0.33,0l-10.97 6.32c-0.11,0.06 -0.17,0.19 -0.17,0.3l0 12.68c0,0.11 0.06,0.25 0.17,0.3l2.99 1.74c1.63,0.82 2.64,-0.14 2.64,-1.1l0 -12.52c0,-0.16 0.14,-0.33 0.33,-0.33l1.41 0c0.16,0 0.33,0.14 0.33,0.33l0 12.52c0,2.17 -1.19,3.43 -3.25,3.43 -0.63,0 -1.13,0 -2.53,-0.68l-2.89 -1.65c-0.71,-0.42 -1.15,-1.19 -1.15,-2.01l0 -12.68c0,-0.82 0.44,-1.59 1.15,-2.01l10.98 -6.35c0.68,-0.38 1.62,-0.38 2.31,0l10.97 6.35c0.71,0.42 1.15,1.19 1.15,2.01l0 12.68c0,0.82 -0.44,1.59 -1.15,2.01l-10.97 6.35c-0.36,0.16 -0.77,0.25 -1.16,0.25zm3.38 -8.72c-4.81,0 -5.8,-2.2 -5.8,-4.07 0,-0.17 0.14,-0.33 0.33,-0.33l1.43 0c0.17,0 0.3,0.11 0.3,0.27 0.22,1.46 0.86,2.18 3.77,2.18 2.31,0 3.3,-0.53 3.3,-1.76 0,-0.72 -0.27,-1.24 -3.88,-1.6 -2.99,-0.3 -4.86,-0.96 -4.86,-3.35 0,-2.23 1.87,-3.55 5,-3.55 3.52,0 5.25,1.21 5.47,3.85 0,0.08 -0.02,0.16 -0.08,0.25 -0.05,0.05 -0.14,0.11 -0.22,0.11l-1.43 0c-0.14,0 -0.27,-0.11 -0.3,-0.25 -0.33,-1.51 -1.18,-2.01 -3.44,-2.01 -2.53,0 -2.83,0.88 -2.83,1.54 0,0.8 0.36,1.05 3.77,1.49 3.38,0.44 4.97,1.07 4.97,3.43 -0.02,2.42 -2,3.8 -5.5,3.8z"/>
 </g>
</svg>
