<?xml version="1.0" encoding="UTF-8"?>
<!DOCTYPE svg PUBLIC "-//W3C//DTD SVG 1.1//EN" "http://www.w3.org/Graphics/SVG/1.1/DTD/svg11.dtd">
<!-- Creator: CorelDRAW -->
<svg xmlns="http://www.w3.org/2000/svg" xml:space="preserve" version="1.1" style="shape-rendering:geometricPrecision; text-rendering:geometricPrecision; image-rendering:optimizeQuality; fill-rule:evenodd; clip-rule:evenodd"
viewBox="0 0 706.22 706.22"
 xmlns:xlink="http://www.w3.org/1999/xlink"
 xmlns:xodm="http://www.corel.com/coreldraw/odm/2003">
 <defs>
  <style type="text/css">
   <![CDATA[
    .fil0 {fill:none}
    .fil1 {fill:#3B82F6;fill-rule:nonzero}
   ]]>
  </style>
 </defs>
 <g id="Camada_x0020_1">
  <metadata id="CorelCorpID_0Corel-Layer"/>
  <g id="_2068672214480">
   <rect class="fil0" x="-0" y="-0" width="706.22" height="706.22"/>
   <g>
    <path class="fil1" d="M353.11 642.08c-4.35,0 -8.41,-1.16 -12.18,-3.19l-38.57 -22.91c-5.8,-3.19 -2.9,-4.35 -1.16,-4.93 7.83,-2.61 9.28,-3.19 17.4,-7.83 0.87,-0.58 2.03,-0.29 2.9,0.29l29.58 17.69c1.16,0.58 2.61,0.58 3.48,0l115.7 -66.99c1.16,-0.58 1.74,-1.74 1.74,-3.19l0 -133.68c0,-1.45 -0.58,-2.61 -1.74,-3.19l-115.7 -66.7c-1.16,-0.58 -2.61,-0.58 -3.48,0l-115.7 66.7c-1.16,0.58 -1.74,2.03 -1.74,3.19l0 133.68c0,1.16 0.58,2.61 1.74,3.19l31.61 18.27c17.11,8.7 27.84,-1.45 27.84,-11.6l0 -131.94c0,-1.74 1.45,-3.48 3.48,-3.48l14.79 0c1.74,0 3.48,1.45 3.48,3.48l0 131.94c0,22.91 -12.47,36.25 -34.22,36.25 -6.67,0 -11.89,0 -26.68,-7.25l-30.45 -17.4c-7.54,-4.35 -12.18,-12.47 -12.18,-21.17l0 -133.68c0,-8.7 4.64,-16.82 12.18,-21.17l115.7 -66.99c7.25,-4.06 17.11,-4.06 24.36,0l115.7 66.99c7.54,4.35 12.18,12.47 12.18,21.17l0 133.68c0,8.7 -4.64,16.82 -12.18,21.17l-115.7 66.99c-3.77,1.74 -8.12,2.61 -12.18,2.61zm35.67 -91.92c-50.75,0 -61.18,-23.2 -61.18,-42.92 0,-1.74 1.45,-3.48 3.48,-3.48l15.08 0c1.74,0 3.19,1.16 3.19,2.9 2.32,15.37 8.99,22.91 39.72,22.91 24.36,0 34.8,-5.51 34.8,-18.56 0,-7.54 -2.9,-13.05 -40.89,-16.82 -31.61,-3.19 -51.33,-10.15 -51.33,-35.38 0,-23.49 19.72,-37.41 52.78,-37.41 37.12,0 55.39,12.76 57.7,40.6 0,0.87 -0.29,1.74 -0.87,2.61 -0.58,0.58 -1.45,1.16 -2.32,1.16l-15.08 0c-1.45,0 -2.9,-1.16 -3.19,-2.61 -3.48,-15.95 -12.47,-21.17 -36.25,-21.17 -26.68,0 -29.87,9.28 -29.87,16.24 0,8.41 3.77,11.02 39.72,15.66 35.67,4.64 52.49,11.31 52.49,36.25 -0.29,25.52 -21.17,40.02 -58,40.02z"/>
    <path class="fil1" d="M167.12 197.66c0,-2.65 -1.47,-5.16 -3.83,-6.49l-62.49 -35.96c-1.03,-0.59 -2.21,-0.88 -3.39,-1.03l-0.59 0c-1.18,0 -2.36,0.44 -3.39,1.03l-62.49 35.96c-2.36,1.33 -3.83,3.83 -3.83,6.49l0.15 96.68c0,1.33 0.74,2.65 1.92,3.24 1.18,0.74 2.65,0.74 3.69,0l37.14 -21.22c2.36,-1.33 3.83,-3.83 3.83,-6.48l0 -45.25c0,-2.65 1.47,-5.16 3.83,-6.48l15.77 -9.14c1.18,-0.74 2.5,-1.03 3.83,-1.03 1.33,0 2.65,0.3 3.68,1.03l15.77 9.14c2.36,1.33 3.83,3.83 3.83,6.48l0 45.25c0,2.65 1.47,5.16 3.83,6.48l37.14 21.22c1.18,0.74 2.65,0.74 3.83,0 1.18,-0.59 1.91,-1.92 1.91,-3.24l-0.15 -96.68zm172.58 78.11l-0.44 -0.74 0 1.03 0.44 -0.3zm-77.67 -132.49l-0.88 0.44 1.18 0 -0.3 -0.44zm-63.26 130.65c0.73,1.24 1.79,2.3 2.99,3.02l62.34 35.81c1.14,0.68 2.36,1.01 3.67,1 0.76,0.01 1.52,-0.1 2.26,-0.32l-0.04 0.06c0.59,-0.15 1.18,-0.44 1.77,-0.74l62.2 -35.81c2.36,-1.33 3.83,-3.83 3.83,-6.48l0 -71.77c0,-1.92 -0.88,-3.83 -2.21,-5.16l-0.11 0.2c-0.52,-0.6 -1.13,-1.12 -1.81,-1.52l-62.05 -35.81c-0.67,-0.38 -1.38,-0.65 -2.11,-0.81l0.04 -0.07c-1.77,-0.3 -3.83,-0.15 -5.6,0.89l-62.19 35.81c-2.36,1.33 -3.98,3.83 -3.98,6.48l0 71.77 0 0.08 0 0.04 0 0.13 0 0c0.04,1.14 0.39,2.21 0.96,3.17l0.03 0.04zm409.9 -54.75c0.44,-0.3 1.03,-0.3 1.47,0l11.94 6.92c0.44,0.3 0.74,0.74 0.74,1.33l0 13.85c0,0.59 -0.3,1.03 -0.74,1.33l-11.94 6.93c-0.44,0.3 -1.03,0.3 -1.47,0l-11.94 -6.93c-0.44,-0.29 -0.74,-0.74 -0.74,-1.33l0 -13.85c0,-0.59 0.3,-1.03 0.74,-1.33l11.94 -6.92zm66.76 3.39c2.36,-1.33 3.69,-3.83 3.69,-6.48l0 -17.54c0,-2.65 -1.47,-5.16 -3.69,-6.48l-62.04 -35.96c-2.36,-1.33 -5.16,-1.33 -7.52,0l-62.49 36.11c-2.36,1.33 -3.83,3.83 -3.83,6.48l0 72.07c0,2.65 1.47,5.16 3.83,6.49l62.05 35.37c2.36,1.33 5.16,1.33 7.37,0l37.58 -20.93c1.18,-0.59 1.92,-1.92 1.92,-3.24 0,-1.33 -0.74,-2.65 -1.92,-3.24l-62.78 -36.11c-1.18,-0.74 -1.91,-1.91 -1.91,-3.24l0 -22.55c0,-1.33 0.74,-2.65 1.91,-3.24l19.6 -11.2c1.18,-0.74 2.65,-0.74 3.83,0l19.6 11.2c1.18,0.74 1.92,1.92 1.92,3.24l0 17.68c0,1.33 0.74,2.65 1.92,3.24 1.18,0.74 2.65,0.74 3.83,0l37.14 -21.66zm-207.95 -157.99c-1.18,-0.59 -2.65,-0.59 -3.69,0 -1.18,0.74 -1.92,1.92 -1.92,3.24l0 95.8c0,0.89 -0.44,1.77 -1.33,2.36 -0.88,0.44 -1.77,0.44 -2.65,0l-15.62 -8.99c-2.36,-1.33 -5.16,-1.33 -7.51,0l-62.49 36.11c-2.36,1.33 -3.83,3.83 -3.83,6.48l0 72.07c0,2.65 1.47,5.16 3.83,6.48l62.49 36.11c2.36,1.33 5.16,1.33 7.51,0l62.49 -36.11c2.36,-1.33 3.83,-3.83 3.83,-6.48l0 -179.66c0,-2.8 -1.47,-5.3 -3.83,-6.63l-37.29 -20.78zm-5.75 183.34c0,0.74 -0.29,1.33 -0.88,1.62l-21.37 12.38c-0.59,0.3 -1.33,0.3 -1.92,0l-21.37 -12.38c-0.59,-0.3 -0.89,-1.03 -0.89,-1.62l0 -24.76c0,-0.74 0.3,-1.33 0.89,-1.62l21.37 -12.38c0.59,-0.3 1.33,-0.3 1.92,0l21.37 12.38c0.59,0.3 0.88,1.03 0.88,1.62l0 24.76z"/>
   </g>
  </g>
 </g>
</svg>
