<?xml version="1.0" encoding="UTF-8"?>
<!DOCTYPE svg PUBLIC "-//W3C//DTD SVG 1.1//EN" "http://www.w3.org/Graphics/SVG/1.1/DTD/svg11.dtd">
<!-- Creator: CorelDRAW -->
<svg xmlns="http://www.w3.org/2000/svg" xml:space="preserve" width="413px" height="413px" version="1.1" shape-rendering="geometricPrecision" text-rendering="geometricPrecision" image-rendering="optimizeQuality" fill-rule="evenodd" clip-rule="evenodd"
viewBox="0 0 197.84 197.84"
 xmlns:xlink="http://www.w3.org/1999/xlink"
 xmlns:xodm="http://www.corel.com/coreldraw/odm/2003">
 <defs>
   <linearGradient id="id0" gradientUnits="userSpaceOnUse" x1="98.92" y1="0" x2="98.92" y2="197.84">
    <stop offset="0" stop-opacity="1" stop-color="#3B82F6"/>
    <stop offset="1" stop-opacity="1" stop-color="#7FC3FF"/>
   </linearGradient>
 </defs>
 <g id="Camada_x0020_1">
  <metadata id="CorelCorpID_0Corel-Layer"/>
  <path fill="url(#id0)" d="M98.92 0c54.63,0 98.92,44.29 98.92,98.92 0,54.63 -44.29,98.92 -98.92,98.92 -54.63,0 -98.92,-44.29 -98.92,-98.92 0,-54.63 44.29,-98.92 98.92,-98.92zm61.23 98.93c0,-8.11 -10.16,-15.8 -25.73,-20.57 3.59,-15.87 1.99,-28.5 -5.05,-32.55 -1.62,-0.94 -3.52,-1.39 -5.59,-1.39l0 5.56c1.15,0 2.07,0.23 2.85,0.65 3.39,1.95 4.86,9.36 3.72,18.9 -0.28,2.34 -0.73,4.81 -1.28,7.33 -4.89,-1.19 -10.23,-2.12 -15.85,-2.72 -3.37,-4.61 -6.86,-8.81 -10.38,-12.48 8.14,-7.56 15.77,-11.71 20.97,-11.71l0 -5.56c-6.87,0 -15.85,4.89 -24.94,13.38 -9.09,-8.44 -18.07,-13.28 -24.94,-13.28l0 5.57c5.17,0 12.83,4.11 20.97,11.63 -3.5,3.67 -6.99,7.84 -10.31,12.45 -5.64,0.6 -10.98,1.53 -15.88,2.75 -0.57,-2.5 -0.99,-4.92 -1.29,-7.24 -1.18,-9.54 0.27,-16.95 3.64,-18.92 0.75,-0.45 1.72,-0.65 2.87,-0.65l0 -5.57c-2.1,0 -3.99,0.45 -5.64,1.4 -7.02,4.04 -8.59,16.65 -4.97,32.48 -15.53,4.79 -25.63,12.45 -25.63,20.54 0,8.11 10.16,15.8 25.73,20.57 -3.59,15.88 -1.99,28.51 5.05,32.55 1.62,0.95 3.51,1.4 5.61,1.4 6.87,0 15.85,-4.89 24.94,-13.38 9.09,8.44 18.07,13.28 24.94,13.28 2.09,0 3.99,-0.45 5.64,-1.4 7.01,-4.04 8.59,-16.65 4.97,-32.47 15.47,-4.77 25.58,-12.46 25.58,-20.55l0 0zm-49.85 0c0,-6.3 -5.1,-11.41 -11.4,-11.41 -6.31,0 -11.41,5.11 -11.41,11.41 0,6.3 5.1,11.41 11.41,11.41 6.3,0 11.4,-5.11 11.4,-11.41zm17.35 -16.65c-0.92,3.22 -2.07,6.54 -3.37,9.86 -1.02,-1.99 -2.1,-3.99 -3.27,-5.99 -1.15,-1.99 -2.37,-3.94 -3.59,-5.84 3.54,0.53 6.96,1.17 10.23,1.97zm-11.43 26.59c-1.95,3.37 -3.95,6.56 -6.02,9.53 -3.72,0.33 -7.49,0.5 -11.28,0.5 -3.77,0 -7.54,-0.17 -11.23,-0.47 -2.07,-2.97 -4.1,-6.14 -6.04,-9.49 -1.9,-3.27 -3.62,-6.59 -5.2,-9.93 1.55,-3.35 3.3,-6.69 5.17,-9.97 1.95,-3.36 3.95,-6.56 6.02,-9.53 3.72,-0.32 7.49,-0.5 11.28,-0.5 3.77,0 7.54,0.18 11.23,0.48 2.08,2.97 4.1,6.14 6.05,9.48 1.89,3.27 3.62,6.59 5.19,9.94 -1.57,3.34 -3.3,6.69 -5.17,9.96zm8.06 -3.25c1.35,3.35 2.5,6.69 3.45,9.94 -3.27,0.79 -6.72,1.47 -10.29,1.99 1.23,-1.92 2.45,-3.89 3.6,-5.91 1.14,-2 2.22,-4.02 3.24,-6.02l0 0zm-25.31 26.64c-2.32,-2.4 -4.64,-5.07 -6.94,-7.99 2.25,0.1 4.54,0.17 6.86,0.17 2.35,0 4.67,-0.05 6.94,-0.17 -2.25,2.92 -4.57,5.59 -6.86,7.99l0 0zm-18.57 -14.71c-3.55,-0.52 -6.97,-1.17 -10.24,-1.97 0.93,-3.22 2.07,-6.54 3.37,-9.86 1.03,2 2.1,4 3.27,5.99 1.18,2 2.37,3.95 3.6,5.84zm18.44 -51.94c2.33,2.39 4.65,5.06 6.94,7.98 -2.24,-0.1 -4.54,-0.17 -6.86,-0.17 -2.35,0 -4.67,0.05 -6.94,0.17 2.25,-2.92 4.57,-5.59 6.86,-7.98zm-18.47 14.7c-1.22,1.92 -2.44,3.89 -3.59,5.92 -1.15,1.99 -2.22,3.99 -3.25,5.99 -1.35,-3.35 -2.49,-6.69 -3.44,-9.94 3.27,-0.77 6.71,-1.45 10.28,-1.97l0 0zm-22.59 31.25c-8.84,-3.77 -14.55,-8.71 -14.55,-12.63 0,-3.92 5.71,-8.89 14.55,-12.63 2.15,-0.92 4.49,-1.75 6.92,-2.52 1.42,4.89 3.29,9.98 5.61,15.2 -2.29,5.19 -4.14,10.26 -5.54,15.13 -2.47,-0.78 -4.82,-1.63 -6.99,-2.55l0 0zm13.43 35.67c-3.39,-1.94 -4.87,-9.36 -3.72,-18.89 0.27,-2.35 0.72,-4.82 1.27,-7.34 4.9,1.19 10.24,2.12 15.86,2.72 3.36,4.61 6.86,8.81 10.38,12.48 -8.14,7.56 -15.78,11.7 -20.97,11.7 -1.12,-0.02 -2.07,-0.24 -2.82,-0.67l0 0zm59.21 -19.02c1.17,9.53 -0.27,16.95 -3.64,18.92 -0.75,0.45 -1.73,0.65 -2.87,0.65 -5.17,0 -12.83,-4.12 -20.97,-11.63 3.49,-3.67 6.99,-7.84 10.31,-12.46 5.64,-0.6 10.98,-1.52 15.87,-2.74 0.58,2.52 1.03,4.94 1.3,7.26l0 0zm9.61 -16.65c-2.15,0.92 -4.49,1.75 -6.91,2.52 -1.43,-4.89 -3.3,-9.98 -5.62,-15.2 2.3,-5.19 4.14,-10.26 5.54,-15.13 2.47,0.77 4.82,1.62 7.02,2.55 8.83,3.77 14.55,8.71 14.55,12.63 -0.03,3.92 -5.74,8.88 -14.58,12.63l0 0z"/>
 </g>
</svg>
