<?xml version="1.0" encoding="UTF-8"?>
<!DOCTYPE svg PUBLIC "-//W3C//DTD SVG 1.1//EN" "http://www.w3.org/Graphics/SVG/1.1/DTD/svg11.dtd">
<!-- Creator: CorelDRAW -->
<svg xmlns="http://www.w3.org/2000/svg" xml:space="preserve" width="413px" height="413px" version="1.1" shape-rendering="geometricPrecision" text-rendering="geometricPrecision" image-rendering="optimizeQuality" fill-rule="evenodd" clip-rule="evenodd"
viewBox="0 0 88.52 88.52"
 xmlns:xlink="http://www.w3.org/1999/xlink"
 xmlns:xodm="http://www.corel.com/coreldraw/odm/2003">
 <g id="Camada_x0020_1">
  <metadata id="CorelCorpID_0Corel-Layer"/>
  <path fill="#3B82F6" d="M44.26 0c24.44,0 44.26,19.82 44.26,44.26 0,24.44 -19.82,44.26 -44.26,44.26 -24.44,0 -44.26,-19.82 -44.26,-44.26 0,-24.44 19.82,-44.26 44.26,-44.26zm27.4 44.26c0,-3.63 -4.55,-7.07 -11.52,-9.2 1.61,-7.1 0.89,-12.75 -2.26,-14.56 -0.72,-0.43 -1.57,-0.63 -2.5,-0.63l0 2.49c0.52,0 0.93,0.1 1.28,0.29 1.51,0.87 2.17,4.19 1.66,8.46 -0.12,1.05 -0.32,2.15 -0.57,3.28 -2.19,-0.54 -4.58,-0.95 -7.09,-1.22 -1.51,-2.06 -3.07,-3.94 -4.65,-5.58 3.64,-3.39 7.06,-5.24 9.38,-5.24l0 -2.49c-3.07,0 -7.09,2.19 -11.15,5.99 -4.07,-3.78 -8.09,-5.94 -11.16,-5.94l0 2.49c2.31,0 5.74,1.84 9.38,5.2 -1.56,1.64 -3.13,3.51 -4.61,5.57 -2.53,0.27 -4.92,0.68 -7.11,1.23 -0.25,-1.11 -0.44,-2.2 -0.58,-3.24 -0.52,-4.26 0.13,-7.58 1.63,-8.46 0.34,-0.2 0.77,-0.29 1.29,-0.29l0 -2.49c-0.94,0 -1.79,0.2 -2.53,0.62 -3.13,1.81 -3.84,7.45 -2.22,14.53 -6.95,2.15 -11.47,5.57 -11.47,9.19 0,3.63 4.55,7.07 11.52,9.21 -1.61,7.1 -0.9,12.75 2.25,14.56 0.73,0.42 1.58,0.63 2.52,0.63 3.07,0 7.09,-2.19 11.15,-5.99 4.07,3.78 8.09,5.94 11.16,5.94 0.94,0 1.79,-0.2 2.52,-0.62 3.14,-1.81 3.85,-7.45 2.23,-14.53 6.92,-2.14 11.45,-5.58 11.45,-9.2l0 0zm-22.31 0c0,-2.81 -2.28,-5.1 -5.1,-5.1 -2.82,0 -5.11,2.29 -5.11,5.1 0,2.82 2.29,5.11 5.11,5.11 2.82,0 5.1,-2.29 5.1,-5.11zm7.76 -7.45c-0.41,1.45 -0.92,2.93 -1.5,4.42 -0.46,-0.9 -0.94,-1.79 -1.47,-2.68 -0.51,-0.9 -1.06,-1.77 -1.61,-2.62 1.59,0.24 3.12,0.53 4.58,0.88zm-5.11 11.9c-0.87,1.51 -1.77,2.94 -2.69,4.26 -1.67,0.15 -3.35,0.23 -5.05,0.23 -1.69,0 -3.37,-0.08 -5.03,-0.21 -0.92,-1.33 -1.83,-2.75 -2.7,-4.25 -0.85,-1.46 -1.62,-2.95 -2.32,-4.44 0.69,-1.5 1.47,-3 2.31,-4.46 0.87,-1.51 1.76,-2.94 2.69,-4.27 1.66,-0.14 3.35,-0.22 5.05,-0.22 1.68,0 3.37,0.08 5.02,0.21 0.93,1.33 1.84,2.75 2.71,4.25 0.85,1.46 1.62,2.95 2.32,4.44 -0.7,1.5 -1.47,3 -2.31,4.46zm3.61 -1.45c0.6,1.49 1.11,2.99 1.54,4.44 -1.47,0.36 -3.01,0.66 -4.6,0.9 0.54,-0.86 1.09,-1.75 1.6,-2.65 0.52,-0.9 1,-1.8 1.46,-2.69l0 0zm-11.33 11.91c-1.04,-1.07 -2.08,-2.26 -3.1,-3.57 1,0.04 2.03,0.08 3.07,0.08 1.05,0 2.08,-0.02 3.1,-0.08 -1,1.31 -2.04,2.5 -3.07,3.57l0 0zm-8.31 -6.57c-1.58,-0.24 -3.11,-0.53 -4.58,-0.89 0.42,-1.44 0.93,-2.92 1.51,-4.41 0.46,0.89 0.94,1.79 1.46,2.68 0.53,0.9 1.06,1.77 1.61,2.62zm8.25 -23.25c1.04,1.08 2.08,2.27 3.11,3.58 -1.01,-0.05 -2.03,-0.08 -3.07,-0.08 -1.05,0 -2.09,0.02 -3.11,0.08 1.01,-1.31 2.05,-2.5 3.07,-3.58zm-8.26 6.58c-0.55,0.86 -1.09,1.74 -1.61,2.65 -0.51,0.89 -0.99,1.79 -1.45,2.68 -0.6,-1.5 -1.12,-2.99 -1.54,-4.45 1.46,-0.34 3,-0.64 4.6,-0.88l0 0zm-10.11 13.98c-3.95,-1.68 -6.51,-3.89 -6.51,-5.65 0,-1.75 2.56,-3.97 6.51,-5.65 0.96,-0.41 2.01,-0.78 3.1,-1.13 0.63,2.19 1.47,4.47 2.51,6.81 -1.03,2.32 -1.86,4.59 -2.48,6.76 -1.11,-0.34 -2.16,-0.72 -3.13,-1.14l0 0zm6.01 15.96c-1.52,-0.87 -2.18,-4.18 -1.66,-8.45 0.12,-1.05 0.32,-2.16 0.57,-3.28 2.18,0.53 4.58,0.94 7.09,1.21 1.51,2.07 3.07,3.95 4.64,5.59 -3.64,3.38 -7.05,5.24 -9.38,5.24 -0.5,-0.02 -0.92,-0.12 -1.26,-0.31l0 0zm26.49 -8.51c0.53,4.27 -0.12,7.59 -1.63,8.47 -0.33,0.2 -0.77,0.29 -1.28,0.29 -2.31,0 -5.74,-1.84 -9.38,-5.21 1.56,-1.64 3.12,-3.5 4.61,-5.57 2.52,-0.27 4.91,-0.68 7.1,-1.23 0.26,1.13 0.46,2.21 0.58,3.25l0 0zm4.3 -7.45c-0.96,0.42 -2.01,0.79 -3.09,1.13 -0.64,-2.19 -1.48,-4.47 -2.51,-6.8 1.02,-2.32 1.85,-4.59 2.47,-6.77 1.11,0.35 2.16,0.73 3.14,1.14 3.96,1.69 6.51,3.9 6.51,5.65 -0.01,1.76 -2.56,3.98 -6.52,5.65l0 0z"/>
 </g>
</svg>
