<?xml version="1.0" encoding="UTF-8"?>
<!DOCTYPE svg PUBLIC "-//W3C//DTD SVG 1.1//EN" "http://www.w3.org/Graphics/SVG/1.1/DTD/svg11.dtd">
<!-- Creator: CorelDRAW -->
<svg xmlns="http://www.w3.org/2000/svg" xml:space="preserve" version="1.1" style="shape-rendering:geometricPrecision; text-rendering:geometricPrecision; image-rendering:optimizeQuality; fill-rule:evenodd; clip-rule:evenodd"
viewBox="0 0 1178.1 1178.1"
 xmlns:xlink="http://www.w3.org/1999/xlink"
 xmlns:xodm="http://www.corel.com/coreldraw/odm/2003">
 <defs>
  <style type="text/css">
   <![CDATA[
    .fil1 {fill:none}
    .fil0 {fill:#3B82F6;fill-rule:nonzero}
   ]]>
  </style>
 </defs>
 <g id="Camada_x0020_1">
  <metadata id="CorelCorpID_0Corel-Layer"/>
  <g id="_2935777700208">
   <path class="fil0" d="M1169.15 589.17c0,-76.86 -96.26,-149.69 -243.82,-194.86 34.05,-150.4 18.92,-270.07 -47.78,-308.37 -15.37,-8.98 -33.35,-13.24 -52.97,-13.24l0 52.73c10.87,0 19.63,2.13 26.95,6.14 32.16,18.45 46.11,88.69 35.24,179.02 -2.6,22.22 -6.86,45.65 -12.05,69.52 -46.35,-11.35 -96.97,-20.11 -150.18,-25.78 -31.92,-43.75 -65.03,-83.48 -98.38,-118.24 77.1,-71.67 149.46,-110.92 198.64,-110.92l0 -52.73c-65.03,0 -150.16,46.35 -236.26,126.76 -86.08,-79.94 -171.21,-125.8 -236.24,-125.8l0 52.73c48.96,0 121.55,39.02 198.64,110.2 -33.11,34.76 -66.21,74.25 -97.67,118 -53.45,5.67 -104.05,14.43 -150.4,26.01 -5.43,-23.64 -9.46,-46.58 -12.3,-68.58 -11.11,-90.34 2.6,-160.59 34.53,-179.26 7.1,-4.27 16.32,-6.16 27.19,-6.16l0 -52.73c-19.87,0 -37.84,4.26 -53.45,13.24 -66.46,38.31 -81.35,157.74 -47.06,307.66 -147.1,45.4 -242.86,118 -242.86,194.64 0,76.86 96.24,149.69 243.82,194.86 -34.05,150.4 -18.92,270.07 47.78,308.38 15.36,8.98 33.33,13.25 53.21,13.25 65.03,0 150.18,-46.35 236.24,-126.76 86.08,79.94 171.22,125.8 236.25,125.8 19.87,0 37.84,-4.25 53.45,-13.24 66.46,-38.31 81.35,-157.74 47.06,-307.66 146.61,-45.16 242.39,-118 242.39,-194.63l0 0.01zm-472.26 0c0,-59.69 -48.38,-108.07 -108.07,-108.07 -59.69,0 -108.07,48.38 -108.07,108.07 0,59.69 48.38,108.07 108.07,108.07 59.69,0 108.07,-48.38 108.07,-108.07zm164.36 -157.74c-8.75,30.51 -19.63,61.96 -31.93,93.42 -9.7,-18.92 -19.87,-37.84 -30.98,-56.76 -10.87,-18.91 -22.46,-37.37 -34.05,-55.34 33.59,4.97 65.97,11.11 96.96,18.68zm-108.31 251.85c-18.45,31.92 -37.37,62.2 -56.99,90.33 -35.24,3.07 -70.94,4.73 -106.89,4.73 -35.7,0 -71.42,-1.65 -106.41,-4.49 -19.63,-28.14 -38.78,-58.17 -57.23,-89.86 -17.97,-30.98 -34.29,-62.43 -49.19,-94.12 14.66,-31.7 31.21,-63.38 48.95,-94.37 18.45,-31.92 37.37,-62.19 56.99,-90.33 35.24,-3.07 70.94,-4.73 106.89,-4.73 35.71,0 71.42,1.65 106.43,4.49 19.63,28.14 38.78,58.17 57.23,89.86 17.97,30.98 34.29,62.43 49.19,94.12 -14.9,31.7 -31.22,63.38 -48.97,94.36zm76.38 -30.74c12.78,31.7 23.65,63.38 32.64,94.12 -30.98,7.56 -63.62,13.94 -97.43,18.91 11.59,-18.21 23.17,-36.89 34.05,-56.05 10.87,-18.91 21.05,-38.08 30.74,-56.99l0 0.01zm-239.8 252.33c-22,-22.7 -43.99,-48.01 -65.75,-75.67 21.29,0.94 43.05,1.65 65.03,1.65 22.22,0 44.22,-0.48 65.73,-1.65 -21.29,27.67 -43.27,52.97 -65.03,75.67l0.01 0zm-175.94 -139.29c-33.57,-4.97 -65.97,-11.11 -96.95,-18.68 8.74,-30.51 19.63,-61.96 31.92,-93.42 9.7,18.91 19.87,37.84 30.98,56.75 11.11,18.92 22.46,37.37 34.05,55.34zm174.75 -492.13c22,22.71 43.99,48 65.75,75.67 -21.29,-0.94 -43.04,-1.65 -65.03,-1.65 -22.22,0 -44.22,0.48 -65.75,1.65 21.29,-27.67 43.27,-52.97 65.03,-75.67zm-174.99 139.29c-11.59,18.21 -23.18,36.89 -34.06,56.05 -10.88,18.92 -21.05,37.84 -30.75,56.76 -12.77,-31.7 -23.65,-63.38 -32.64,-94.12 30.97,-7.33 63.61,-13.71 97.43,-18.68l0.02 -0.01zm-214.02 296.07c-83.73,-35.71 -137.88,-82.54 -137.88,-119.65 0,-37.13 54.15,-84.19 137.88,-119.67 20.33,-8.76 42.57,-16.56 65.51,-23.89 13.48,46.35 31.21,94.6 53.21,144.02 -21.76,49.19 -39.26,97.19 -52.5,143.32 -23.42,-7.33 -45.65,-15.37 -66.21,-24.11l0 -0.01zm127.22 337.93c-32.16,-18.44 -46.11,-88.67 -35.24,-179.02 2.6,-22.22 6.86,-45.65 12.05,-69.53 46.35,11.35 96.96,20.1 150.18,25.78 31.92,43.75 65.03,83.48 98.37,118.24 -77.09,71.66 -149.45,110.91 -198.64,110.91 -10.65,-0.24 -19.63,-2.36 -26.73,-6.38l0 0.01zm560.94 -180.2c11.11,90.33 -2.6,160.58 -34.53,179.26 -7.1,4.25 -16.32,6.14 -27.19,6.14 -48.95,0 -121.55,-39.02 -198.64,-110.21 33.11,-34.75 66.21,-74.25 97.67,-118 53.45,-5.67 104.05,-14.43 150.4,-26.02 5.45,23.89 9.7,46.82 12.3,68.81l0 0 0 0.01zm91.05 -157.74c-20.34,8.76 -42.57,16.56 -65.51,23.89 -13.48,-46.35 -31.22,-94.6 -53.21,-144.02 21.76,-49.19 39.25,-97.19 52.49,-143.32 23.41,7.33 45.65,15.37 66.46,24.11 83.72,35.71 137.86,82.54 137.86,119.67 -0.24,37.13 -54.4,84.19 -138.11,119.65l0.02 0.01z"/>
   <rect class="fil1" width="1178.1" height="1178.1"/>
  </g>
 </g>
</svg>
