<?xml version="1.0" encoding="UTF-8"?>
<!DOCTYPE svg PUBLIC "-//W3C//DTD SVG 1.1//EN" "http://www.w3.org/Graphics/SVG/1.1/DTD/svg11.dtd">
<!-- Creator: CorelDRAW -->
<svg xmlns="http://www.w3.org/2000/svg" xml:space="preserve" width="260px" height="260px" version="1.1" style="shape-rendering:geometricPrecision; text-rendering:geometricPrecision; image-rendering:optimizeQuality; fill-rule:evenodd; clip-rule:evenodd"
viewBox="0 0 408.06 408.06"
 xmlns:xlink="http://www.w3.org/1999/xlink"
 xmlns:xodm="http://www.corel.com/coreldraw/odm/2003">
 <defs>
  <style type="text/css">
   <![CDATA[
    .fil0 {fill:none}
    .fil1 {fill:#3B82F6;fill-rule:nonzero}
   ]]>
  </style>
 </defs>
 <g id="Camada_x0020_1">
  <metadata id="CorelCorpID_0Corel-Layer"/>
  <g id="_1647674236304">
   <rect class="fil0" width="408.06" height="408.06"/>
   <g>
    <path class="fil1" d="M350.34 226.78c-14.14,0.08 -26.42,3.48 -36.71,8.51 -3.77,-7.47 -7.55,-14.13 -8.21,-19.02 -0.74,-5.7 -1.63,-9.18 -0.74,-15.98 0.88,-6.81 4.88,-16.51 4.81,-17.25 -0.08,-0.74 -0.89,-4.22 -9.03,-4.29 -8.14,-0.08 -15.17,1.55 -15.99,3.7 -0.81,2.15 -2.37,7.03 -3.4,12.06 -1.41,7.4 -16.29,33.83 -24.8,47.67 -2.74,-5.41 -5.1,-10.14 -5.62,-13.92 -0.74,-5.7 -1.63,-9.18 -0.74,-15.98 0.89,-6.81 4.88,-16.51 4.81,-17.25 -0.07,-0.74 -0.89,-4.22 -9.03,-4.29 -8.14,-0.08 -15.17,1.55 -15.99,3.7 -0.81,2.14 -1.7,7.18 -3.4,12.06 -1.7,4.89 -21.46,49 -26.65,60.39 -2.66,5.85 -4.96,10.52 -6.58,13.7 0,0 0,0 0,0 0,0 -0.08,0.22 -0.3,0.59 -1.4,2.74 -2.22,4.22 -2.22,4.22 0,0 0,0 0,0.07 -1.11,2 -2.29,3.85 -2.88,3.85 -0.45,0 -1.26,-5.33 0.14,-12.58 2.96,-15.32 9.99,-39.15 9.92,-39.97 0,-0.44 1.33,-4.59 -4.59,-6.73 -5.77,-2.15 -7.84,1.4 -8.36,1.4 -0.52,0 -0.89,1.26 -0.89,1.26 0,0 6.44,-26.79 -12.29,-26.79 -11.69,0 -27.82,12.8 -35.82,24.35 -5.03,2.74 -15.76,8.59 -27.23,14.88 -4.37,2.44 -8.89,4.88 -13.1,7.18 -0.3,-0.3 -0.6,-0.67 -0.89,-0.97 -22.65,-24.2 -64.54,-41.3 -62.76,-73.79 0.66,-11.84 4.73,-42.92 80.45,-80.67 62.31,-30.71 111.9,-22.2 120.49,-3.33 12.28,26.94 -26.57,76.97 -90.96,84.23 -24.57,2.73 -37.45,-6.74 -40.71,-10.29 -3.4,-3.7 -3.92,-3.92 -5.18,-3.18 -2.07,1.11 -0.74,4.44 0,6.36 1.92,5.03 9.84,13.92 23.24,18.28 11.84,3.85 40.63,6 75.49,-7.47 39,-15.1 69.5,-57.07 60.54,-92.22 -8.95,-35.67 -68.16,-47.44 -124.19,-27.53 -33.3,11.84 -69.42,30.49 -95.4,54.76 -30.86,28.87 -35.75,53.96 -33.75,64.47 7.18,37.3 58.62,61.58 79.19,79.56 -1.03,0.59 -1.99,1.11 -2.81,1.55 -10.29,5.11 -49.51,25.61 -59.28,47.3 -11.1,24.57 1.77,42.18 10.29,44.55 26.42,7.33 53.58,-5.84 68.16,-27.6 14.58,-21.76 12.8,-50.04 6.07,-62.99 -0.08,-0.14 -0.15,-0.29 -0.3,-0.44 2.67,-1.56 5.41,-3.18 8.07,-4.74 5.26,-3.11 10.44,-5.99 14.88,-8.36 -2.52,6.88 -4.37,15.1 -5.26,26.94 -1.11,13.91 4.59,31.97 12.07,39.08 3.33,3.11 7.25,3.18 9.76,3.18 8.74,0 12.66,-7.25 17.03,-15.84 5.33,-10.51 10.14,-22.72 10.14,-22.72 0,0 -6,33.01 10.29,33.01 5.92,0 11.91,-7.7 14.57,-11.62 0,0.07 0,0.07 0,0.07 0,0 0.15,-0.22 0.45,-0.74 0.59,-0.96 0.96,-1.55 0.96,-1.55 0,0 0,-0.08 0,-0.15 2.37,-4.14 7.7,-13.54 15.62,-29.16 10.21,-20.13 20.05,-45.3 20.05,-45.3 0,0 0.89,6.15 3.93,16.36 1.77,6 5.48,12.58 8.44,18.95 -2.37,3.33 -3.85,5.18 -3.85,5.18 0,0 0,0 0.07,0.07 -1.92,2.52 -4,5.26 -6.29,7.92 -8.07,9.62 -17.69,20.65 -19.02,23.83 -1.55,3.78 -1.19,6.52 1.77,8.74 2.15,1.62 6,1.85 9.92,1.62 7.26,-0.51 12.36,-2.29 14.88,-3.4 3.92,-1.4 8.51,-3.55 12.8,-6.73 7.92,-5.85 12.73,-14.21 12.29,-25.24 -0.22,-6.07 -2.22,-12.14 -4.66,-17.84 0.74,-1.04 1.4,-2.07 2.14,-3.11 12.51,-18.28 22.21,-38.33 22.21,-38.33 0,0 0.88,6.14 3.92,16.35 1.48,5.18 4.51,10.81 7.18,16.28 -11.77,9.55 -19.02,20.65 -21.61,27.91 -4.67,13.47 -1.04,19.54 5.84,20.94 3.11,0.67 7.55,-0.81 10.81,-2.22 4.14,-1.33 9.03,-3.63 13.69,-7.03 7.92,-5.85 15.54,-13.99 15.1,-25.02 -0.22,-5.03 -1.55,-9.99 -3.41,-14.8 10,-4.14 22.87,-6.44 39.31,-4.51 35.22,4.14 42.18,26.12 40.85,35.37 -1.33,9.26 -8.73,14.29 -11.18,15.84 -2.44,1.56 -3.25,2.08 -3.03,3.19 0.29,1.62 1.48,1.55 3.55,1.25 2.89,-0.51 18.5,-7.47 19.17,-24.5 1.11,-21.75 -19.61,-45.51 -56.25,-45.29zm-271.77 91.63c-11.69,12.73 -27.98,17.54 -35.01,13.47 -7.54,-4.37 -4.58,-23.17 9.77,-36.64 8.74,-8.21 19.99,-15.84 27.46,-20.5 1.7,-1.04 4.22,-2.52 7.26,-4.37 0.51,-0.29 0.81,-0.44 0.81,-0.44l0 0c0.59,-0.37 1.18,-0.74 1.77,-1.11 5.26,19.24 0.23,36.19 -12.06,49.59zm85.11 -57.88c-4.07,9.92 -12.58,35.3 -17.76,33.9 -4.44,-1.19 -7.18,-20.43 -0.89,-39.45 3.19,-9.55 9.92,-20.95 13.84,-25.39 6.37,-7.1 13.4,-9.47 15.1,-6.58 2.15,3.77 -7.77,31.3 -10.29,37.52zm70.24 33.6c-1.7,0.89 -3.33,1.48 -4.07,1.04 -0.52,-0.3 0.74,-1.48 0.74,-1.48 0,0 8.81,-9.48 12.29,-13.77 2,-2.51 4.36,-5.48 6.88,-8.81 0,0.3 0,0.67 0,0.97 0,11.32 -10.95,18.94 -15.84,22.05zm54.18 -12.36c-1.26,-0.89 -1.04,-3.85 3.18,-13.1 1.63,-3.62 5.48,-9.69 12.06,-15.54 0.74,2.37 1.26,4.66 1.19,6.81 -0.08,14.28 -10.29,19.61 -16.43,21.83z"/>
   </g>
  </g>
 </g>
</svg>
