<?xml version="1.0" encoding="UTF-8"?>
<!DOCTYPE svg PUBLIC "-//W3C//DTD SVG 1.1//EN" "http://www.w3.org/Graphics/SVG/1.1/DTD/svg11.dtd">
<!-- Creator: CorelDRAW -->
<svg xmlns="http://www.w3.org/2000/svg" xml:space="preserve" width="413px" height="413px" version="1.1" shape-rendering="geometricPrecision" text-rendering="geometricPrecision" image-rendering="optimizeQuality" fill-rule="evenodd" clip-rule="evenodd"
viewBox="0 0 185.45 185.45"
 xmlns:xlink="http://www.w3.org/1999/xlink"
 xmlns:xodm="http://www.corel.com/coreldraw/odm/2003">
 <defs>
   <linearGradient id="id0" gradientUnits="userSpaceOnUse" x1="92.73" y1="0" x2="92.73" y2="185.45">
    <stop offset="0" stop-opacity="1" stop-color="#3B82F6"/>
    <stop offset="1" stop-opacity="1" stop-color="#9FCBF2"/>
   </linearGradient>
 </defs>
 <g id="Camada_x0020_1">
  <metadata id="CorelCorpID_0Corel-Layer"/>
  <path fill="url(#id0)" d="M92.73 0c51.21,0 92.72,41.52 92.72,92.73 0,51.21 -41.51,92.72 -92.72,92.72 -51.21,0 -92.73,-41.51 -92.73,-92.72 0,-51.21 41.52,-92.73 92.73,-92.73zm44.88 99.71c-4.34,0.02 -8.11,1.06 -11.26,2.61 -1.16,-2.3 -2.32,-4.34 -2.52,-5.84 -0.23,-1.75 -0.5,-2.81 -0.23,-4.9 0.27,-2.09 1.5,-5.07 1.48,-5.29 -0.03,-0.23 -0.28,-1.3 -2.77,-1.32 -2.5,-0.02 -4.66,0.48 -4.91,1.14 -0.25,0.65 -0.72,2.15 -1.04,3.7 -0.43,2.27 -5,10.37 -7.61,14.62 -0.84,-1.66 -1.56,-3.11 -1.72,-4.27 -0.23,-1.75 -0.5,-2.82 -0.23,-4.9 0.27,-2.09 1.5,-5.07 1.48,-5.29 -0.03,-0.23 -0.28,-1.3 -2.77,-1.32 -2.5,-0.02 -4.66,0.48 -4.91,1.13 -0.25,0.66 -0.52,2.21 -1.04,3.7 -0.52,1.5 -6.59,15.03 -8.18,18.53 -0.81,1.79 -1.52,3.22 -2.02,4.2 0,0 0,0 0,0 0,0 -0.02,0.07 -0.09,0.18 -0.43,0.84 -0.68,1.3 -0.68,1.3 0,0 0,0 0,0.02 -0.34,0.61 -0.7,1.18 -0.88,1.18 -0.14,0 -0.39,-1.64 0.04,-3.86 0.91,-4.7 3.07,-12.01 3.04,-12.26 0,-0.14 0.41,-1.41 -1.4,-2.07 -1.77,-0.65 -2.41,0.44 -2.57,0.44 -0.16,0 -0.27,0.38 -0.27,0.38 0,0 1.97,-8.22 -3.77,-8.22 -3.59,0 -8.54,3.93 -10.99,7.47 -1.54,0.84 -4.83,2.64 -8.35,4.57 -1.34,0.75 -2.73,1.49 -4.02,2.2 -0.09,-0.09 -0.18,-0.21 -0.27,-0.3 -6.95,-7.42 -19.8,-12.67 -19.26,-22.63 0.21,-3.63 1.46,-13.17 24.68,-24.75 19.12,-9.42 34.33,-6.81 36.96,-1.02 3.77,8.26 -8.15,23.61 -27.9,25.84 -7.54,0.84 -11.49,-2.07 -12.49,-3.16 -1.04,-1.14 -1.2,-1.2 -1.59,-0.98 -0.63,0.34 -0.22,1.37 0,1.96 0.59,1.54 3.02,4.26 7.13,5.6 3.64,1.19 12.47,1.84 23.16,-2.29 11.96,-4.63 21.32,-17.5 18.57,-28.29 -2.75,-10.94 -20.91,-14.55 -38.09,-8.44 -10.22,3.63 -21.3,9.35 -29.27,16.8 -9.47,8.85 -10.96,16.55 -10.35,19.77 2.2,11.44 17.98,18.89 24.29,24.41 -0.32,0.18 -0.61,0.34 -0.86,0.47 -3.16,1.57 -15.19,7.86 -18.19,14.51 -3.4,7.54 0.55,12.94 3.16,13.67 8.1,2.25 16.44,-1.79 20.91,-8.47 4.47,-6.67 3.93,-15.35 1.86,-19.32 -0.02,-0.04 -0.05,-0.09 -0.09,-0.14 0.82,-0.47 1.66,-0.97 2.47,-1.45 1.62,-0.95 3.2,-1.84 4.57,-2.56 -0.77,2.11 -1.34,4.63 -1.61,8.26 -0.34,4.27 1.4,9.81 3.7,11.99 1.02,0.95 2.22,0.97 2.99,0.97 2.68,0 3.89,-2.22 5.22,-4.86 1.64,-3.22 3.11,-6.96 3.11,-6.96 0,0 -1.83,10.12 3.16,10.12 1.82,0 3.66,-2.36 4.47,-3.56 0,0.02 0,0.02 0,0.02 0,0 0.05,-0.07 0.14,-0.23 0.18,-0.29 0.29,-0.47 0.29,-0.47 0,0 0,-0.03 0,-0.05 0.73,-1.27 2.37,-4.16 4.79,-8.95 3.14,-6.17 6.16,-13.89 6.16,-13.89 0,0 0.27,1.88 1.2,5.02 0.55,1.84 1.68,3.86 2.59,5.81 -0.73,1.02 -1.18,1.59 -1.18,1.59 0,0 0,0 0.02,0.02 -0.59,0.77 -1.23,1.61 -1.93,2.43 -2.47,2.95 -5.42,6.34 -5.83,7.31 -0.48,1.16 -0.37,2 0.54,2.68 0.66,0.5 1.84,0.57 3.04,0.5 2.23,-0.16 3.79,-0.7 4.57,-1.04 1.2,-0.44 2.61,-1.09 3.92,-2.07 2.43,-1.79 3.91,-4.36 3.77,-7.74 -0.06,-1.86 -0.68,-3.73 -1.43,-5.47 0.23,-0.32 0.43,-0.64 0.66,-0.96 3.84,-5.61 6.81,-11.76 6.81,-11.76 0,0 0.27,1.89 1.21,5.02 0.45,1.59 1.38,3.31 2.2,4.99 -3.61,2.93 -5.84,6.34 -6.63,8.56 -1.43,4.14 -0.32,6 1.79,6.43 0.96,0.2 2.32,-0.25 3.32,-0.68 1.27,-0.41 2.77,-1.12 4.2,-2.16 2.43,-1.79 4.76,-4.29 4.63,-7.67 -0.07,-1.55 -0.48,-3.07 -1.05,-4.54 3.07,-1.28 7.02,-1.98 12.06,-1.39 10.81,1.27 12.94,8.02 12.53,10.85 -0.41,2.84 -2.68,4.39 -3.43,4.86 -0.75,0.48 -1,0.64 -0.93,0.98 0.09,0.5 0.46,0.47 1.09,0.38 0.89,-0.15 5.68,-2.29 5.88,-7.51 0.34,-6.67 -6.01,-13.96 -17.25,-13.89zm-83.37 28.1c-3.59,3.91 -8.58,5.38 -10.74,4.13 -2.31,-1.34 -1.4,-7.1 3,-11.23 2.68,-2.52 6.13,-4.86 8.42,-6.29 0.53,-0.32 1.3,-0.78 2.23,-1.34 0.16,-0.09 0.25,-0.14 0.25,-0.14 0.18,-0.11 0.36,-0.23 0.54,-0.34 1.61,5.9 0.07,11.1 -3.7,15.21zm26.11 -17.75c-1.25,3.04 -3.86,10.83 -5.45,10.4 -1.36,-0.37 -2.2,-6.27 -0.27,-12.1 0.98,-2.93 3.04,-6.43 4.24,-7.79 1.96,-2.18 4.11,-2.91 4.64,-2.02 0.65,1.16 -2.39,9.6 -3.16,11.51zm21.55 10.31c-0.53,0.27 -1.03,0.45 -1.25,0.31 -0.16,-0.09 0.22,-0.45 0.22,-0.45 0,0 2.71,-2.91 3.77,-4.22 0.62,-0.78 1.34,-1.68 2.11,-2.71 0,0.1 0,0.21 0,0.3 0,3.47 -3.36,5.81 -4.85,6.77zm16.61 -3.8c-0.38,-0.27 -0.31,-1.18 0.98,-4.01 0.5,-1.12 1.68,-2.98 3.7,-4.77 0.23,0.72 0.39,1.43 0.36,2.09 -0.02,4.38 -3.15,6.01 -5.04,6.69z"/>
 </g>
</svg>
