<?xml version="1.0" encoding="UTF-8"?>
<!DOCTYPE svg PUBLIC "-//W3C//DTD SVG 1.1//EN" "http://www.w3.org/Graphics/SVG/1.1/DTD/svg11.dtd">
<!-- Creator: CorelDRAW -->
<svg xmlns="http://www.w3.org/2000/svg" xml:space="preserve" width="413px" height="413px" version="1.1" shape-rendering="geometricPrecision" text-rendering="geometricPrecision" image-rendering="optimizeQuality" fill-rule="evenodd" clip-rule="evenodd"
viewBox="0 0 179.8 179.8"
 xmlns:xlink="http://www.w3.org/1999/xlink"
 xmlns:xodm="http://www.corel.com/coreldraw/odm/2003">
 <g id="Camada_x0020_1">
  <metadata id="CorelCorpID_0Corel-Layer"/>
  <path fill="#3B82F6" d="M89.9 0c49.65,0 89.9,40.25 89.9,89.9 0,49.65 -40.25,89.9 -89.9,89.9 -49.65,0 -89.9,-40.25 -89.9,-89.9 0,-49.65 40.25,-89.9 89.9,-89.9zm43.51 96.66c-4.2,0.03 -7.86,1.04 -10.92,2.54 -1.12,-2.23 -2.24,-4.21 -2.44,-5.66 -0.22,-1.7 -0.49,-2.73 -0.22,-4.76 0.26,-2.02 1.45,-4.9 1.43,-5.12 -0.02,-0.22 -0.26,-1.26 -2.69,-1.28 -2.42,-0.02 -4.51,0.46 -4.75,1.1 -0.24,0.64 -0.7,2.09 -1.01,3.59 -0.42,2.2 -4.84,10.06 -7.38,14.17 -0.81,-1.61 -1.52,-3.01 -1.67,-4.14 -0.22,-1.69 -0.48,-2.73 -0.22,-4.75 0.27,-2.03 1.45,-4.91 1.43,-5.13 -0.02,-0.22 -0.26,-1.25 -2.68,-1.28 -2.43,-0.02 -4.52,0.47 -4.76,1.1 -0.24,0.64 -0.5,2.14 -1.01,3.59 -0.51,1.46 -6.38,14.57 -7.92,17.96 -0.8,1.74 -1.48,3.13 -1.96,4.07 0,0 0,0 0,0 0,0 -0.02,0.07 -0.09,0.18 -0.42,0.82 -0.66,1.26 -0.66,1.26 0,0 0,0 0,0.02 -0.33,0.59 -0.68,1.14 -0.86,1.14 -0.13,0 -0.37,-1.58 0.04,-3.74 0.88,-4.56 2.98,-11.64 2.95,-11.89 0,-0.13 0.4,-1.36 -1.36,-2 -1.72,-0.64 -2.33,0.42 -2.49,0.42 -0.15,0 -0.26,0.37 -0.26,0.37 0,0 1.91,-7.96 -3.66,-7.96 -3.47,0 -8.27,3.8 -10.65,7.24 -1.5,0.81 -4.69,2.55 -8.1,4.42 -1.3,0.73 -2.64,1.45 -3.89,2.14 -0.09,-0.09 -0.18,-0.2 -0.27,-0.29 -6.73,-7.2 -19.19,-12.28 -18.66,-21.94 0.19,-3.52 1.41,-12.77 23.92,-23.99 18.53,-9.14 33.28,-6.61 35.83,-0.99 3.66,8.01 -7.9,22.89 -27.05,25.04 -7.3,0.82 -11.13,-2 -12.1,-3.06 -1.01,-1.1 -1.17,-1.16 -1.54,-0.94 -0.62,0.33 -0.22,1.32 0,1.89 0.57,1.5 2.92,4.14 6.91,5.44 3.52,1.14 12.08,1.78 22.45,-2.23 11.6,-4.49 20.67,-16.97 18,-27.42 -2.66,-10.61 -20.27,-14.11 -36.93,-8.19 -9.9,3.52 -20.65,9.07 -28.37,16.29 -9.18,8.58 -10.63,16.04 -10.04,19.17 2.14,11.09 17.43,18.31 23.55,23.66 -0.31,0.18 -0.59,0.33 -0.83,0.46 -3.06,1.52 -14.73,7.62 -17.63,14.07 -3.31,7.3 0.53,12.54 3.06,13.25 7.85,2.18 15.93,-1.74 20.27,-8.21 4.33,-6.47 3.81,-14.88 1.8,-18.73 -0.02,-0.05 -0.04,-0.09 -0.09,-0.14 0.8,-0.46 1.61,-0.94 2.4,-1.4 1.57,-0.93 3.11,-1.79 4.43,-2.49 -0.75,2.05 -1.3,4.49 -1.56,8.01 -0.33,4.14 1.36,9.51 3.58,11.62 0.99,0.93 2.16,0.95 2.91,0.95 2.6,0 3.76,-2.16 5.06,-4.71 1.59,-3.13 3.02,-6.76 3.02,-6.76 0,0 -1.79,9.82 3.06,9.82 1.76,0 3.54,-2.29 4.33,-3.46 0,0.02 0,0.02 0,0.02 0,0 0.05,-0.06 0.13,-0.22 0.18,-0.28 0.29,-0.46 0.29,-0.46 0,0 0,-0.02 0,-0.04 0.7,-1.23 2.29,-4.03 4.64,-8.67 3.04,-5.99 5.97,-13.48 5.97,-13.48 0,0 0.26,1.83 1.17,4.87 0.52,1.78 1.62,3.74 2.5,5.63 -0.7,0.99 -1.14,1.54 -1.14,1.54 0,0 0,0 0.02,0.03 -0.57,0.75 -1.19,1.56 -1.87,2.35 -2.4,2.86 -5.26,6.14 -5.66,7.09 -0.46,1.12 -0.35,1.94 0.53,2.6 0.64,0.48 1.79,0.55 2.95,0.48 2.16,-0.15 3.68,-0.68 4.43,-1.01 1.16,-0.42 2.53,-1.06 3.8,-2 2.36,-1.74 3.79,-4.23 3.66,-7.51 -0.07,-1.81 -0.66,-3.61 -1.39,-5.3 0.22,-0.31 0.42,-0.62 0.64,-0.93 3.72,-5.44 6.6,-11.4 6.6,-11.4 0,0 0.27,1.83 1.17,4.86 0.44,1.54 1.34,3.22 2.13,4.85 -3.5,2.84 -5.65,6.14 -6.42,8.29 -1.39,4.01 -0.31,5.81 1.74,6.23 0.92,0.2 2.24,-0.24 3.21,-0.66 1.23,-0.39 2.68,-1.08 4.07,-2.09 2.36,-1.74 4.62,-4.16 4.49,-7.44 -0.06,-1.49 -0.46,-2.97 -1.01,-4.4 2.97,-1.23 6.8,-1.92 11.69,-1.34 10.47,1.23 12.54,7.77 12.15,10.52 -0.4,2.75 -2.6,4.25 -3.33,4.71 -0.72,0.46 -0.97,0.61 -0.9,0.95 0.09,0.48 0.44,0.46 1.06,0.37 0.85,-0.15 5.5,-2.22 5.7,-7.29 0.33,-6.47 -5.84,-13.53 -16.73,-13.47zm-80.82 27.25c-3.48,3.79 -8.32,5.22 -10.41,4.01 -2.25,-1.3 -1.37,-6.89 2.9,-10.9 2.6,-2.44 5.94,-4.71 8.17,-6.09 0.5,-0.31 1.25,-0.75 2.15,-1.3 0.16,-0.09 0.25,-0.13 0.25,-0.13 0.17,-0.11 0.35,-0.23 0.52,-0.33 1.57,5.72 0.07,10.76 -3.58,14.74zm25.31 -17.21c-1.21,2.95 -3.74,10.5 -5.28,10.08 -1.32,-0.35 -2.14,-6.07 -0.27,-11.73 0.95,-2.84 2.95,-6.23 4.12,-7.55 1.89,-2.11 3.98,-2.82 4.49,-1.96 0.64,1.12 -2.31,9.31 -3.06,11.16zm20.89 9.99c-0.51,0.27 -0.99,0.44 -1.21,0.31 -0.16,-0.09 0.22,-0.44 0.22,-0.44 0,0 2.62,-2.82 3.65,-4.09 0.59,-0.75 1.3,-1.63 2.05,-2.62 0,0.09 0,0.2 0,0.28 0,3.37 -3.26,5.64 -4.71,6.56zm16.11 -3.67c-0.38,-0.27 -0.31,-1.15 0.94,-3.9 0.49,-1.08 1.63,-2.88 3.59,-4.62 0.22,0.7 0.38,1.39 0.35,2.02 -0.02,4.25 -3.05,5.84 -4.88,6.5z"/>
 </g>
</svg>
