<?xml version="1.0" encoding="UTF-8"?>
<!DOCTYPE svg PUBLIC "-//W3C//DTD SVG 1.1//EN" "http://www.w3.org/Graphics/SVG/1.1/DTD/svg11.dtd">
<!-- Creator: CorelDRAW -->
<svg xmlns="http://www.w3.org/2000/svg" xml:space="preserve" width="413px" height="413px" version="1.1" shape-rendering="geometricPrecision" text-rendering="geometricPrecision" image-rendering="optimizeQuality" fill-rule="evenodd" clip-rule="evenodd"
viewBox="0 0 207.19 207.19"
 xmlns:xlink="http://www.w3.org/1999/xlink"
 xmlns:xodm="http://www.corel.com/coreldraw/odm/2003">
 <g id="Camada_x0020_1">
  <metadata id="CorelCorpID_0Corel-Layer"/>
  <path fill="#3B82F6" d="M103.59 0c57.22,0 103.6,46.38 103.6,103.59 0,57.22 -46.38,103.6 -103.6,103.6 -57.21,0 -103.59,-46.38 -103.59,-103.6 0,-57.21 46.38,-103.59 103.59,-103.59zm-1.53 61.28c-24.81,0.79 -32.19,18.51 -33.88,28.11 2.21,-3.55 9.14,-11.36 19.36,-11.36 11.91,0 20.97,13.28 26.5,17.43 6.72,5.04 20.22,11.69 37.94,6.3 14.14,-4.3 20.69,-19.3 22.12,-26.42 -6.83,9.29 -17.2,14.87 -30.03,8.29 -8.83,-4.53 -15.44,-23.19 -42.01,-22.35zm-35.1 42.17c-24.81,0.79 -32.19,18.51 -33.88,28.11 2.2,-3.56 9.14,-11.37 19.36,-11.37 11.9,0 20.97,13.29 26.5,17.44 6.72,5.04 20.22,11.69 37.94,6.3 14.13,-4.3 20.69,-19.31 22.12,-26.42 -6.83,9.29 -17.2,14.87 -30.03,8.29 -8.83,-4.53 -15.44,-23.19 -42.01,-22.35z"/>
 </g>
</svg>
