<?xml version="1.0" encoding="UTF-8"?>
<!DOCTYPE svg PUBLIC "-//W3C//DTD SVG 1.1//EN" "http://www.w3.org/Graphics/SVG/1.1/DTD/svg11.dtd">
<!-- Creator: CorelDRAW -->
<svg xmlns="http://www.w3.org/2000/svg" xml:space="preserve" width="413px" height="413px" version="1.1" shape-rendering="geometricPrecision" text-rendering="geometricPrecision" image-rendering="optimizeQuality" fill-rule="evenodd" clip-rule="evenodd"
viewBox="0 0 195.42 195.42"
 xmlns:xlink="http://www.w3.org/1999/xlink"
 xmlns:xodm="http://www.corel.com/coreldraw/odm/2003">
 <defs>
   <linearGradient id="id0" gradientUnits="userSpaceOnUse" x1="97.71" y1="0" x2="97.71" y2="195.42">
    <stop offset="0" stop-opacity="1" stop-color="#3B82F6"/>
    <stop offset="1" stop-opacity="1" stop-color="#9FCBF2"/>
   </linearGradient>
 </defs>
 <g id="Camada_x0020_1">
  <metadata id="CorelCorpID_0Corel-Layer"/>
  <path fill="url(#id0)" d="M97.71 0c53.97,0 97.71,43.75 97.71,97.71 0,53.97 -43.74,97.71 -97.71,97.71 -53.96,0 -97.71,-43.74 -97.71,-97.71 0,-53.96 43.75,-97.71 97.71,-97.71zm-1.45 57.8c-23.4,0.75 -30.35,17.46 -31.95,26.52 2.08,-3.36 8.62,-10.72 18.26,-10.72 11.23,0 19.78,12.53 25,16.44 6.33,4.75 19.07,11.03 35.79,5.94 13.33,-4.05 19.51,-18.21 20.86,-24.92 -6.45,8.77 -16.23,14.03 -28.33,7.83 -8.33,-4.28 -14.56,-21.88 -39.63,-21.09zm-33.11 39.78c-23.4,0.74 -30.35,17.46 -31.95,26.51 2.08,-3.35 8.63,-10.72 18.26,-10.72 11.23,0 19.78,12.53 25,16.45 6.33,4.75 19.07,11.03 35.79,5.94 13.33,-4.06 19.51,-18.21 20.86,-24.93 -6.45,8.77 -16.23,14.04 -28.33,7.83 -8.33,-4.28 -14.56,-21.88 -39.63,-21.08z"/>
 </g>
</svg>
