<?xml version="1.0" encoding="UTF-8"?>
<!DOCTYPE svg PUBLIC "-//W3C//DTD SVG 1.1//EN" "http://www.w3.org/Graphics/SVG/1.1/DTD/svg11.dtd">
<!-- Creator: CorelDRAW -->
<svg xmlns="http://www.w3.org/2000/svg" xml:space="preserve" version="1.1" style="shape-rendering:geometricPrecision; text-rendering:geometricPrecision; image-rendering:optimizeQuality; fill-rule:evenodd; clip-rule:evenodd"
viewBox="0 0 536.6 536.6"
 xmlns:xlink="http://www.w3.org/1999/xlink"
 xmlns:xodm="http://www.corel.com/coreldraw/odm/2003">
 <defs>
  <style type="text/css">
   <![CDATA[
    .fil0 {fill:none}
    .fil1 {fill:#3B82F6;fill-rule:nonzero}
   ]]>
  </style>
 </defs>
 <g id="Camada_x0020_1">
  <metadata id="CorelCorpID_0Corel-Layer"/>
  <g id="_2936655512336">
   <rect class="fil0" width="536.6" height="536.6"/>
   <path class="fil1" d="M262.46 107.3c-94.4,3 -122.46,70.44 -128.89,106.97 8.38,-13.54 34.78,-43.26 73.65,-43.26 45.3,0 79.79,50.56 100.83,66.34 25.56,19.17 76.94,44.49 144.38,23.97 53.78,-16.37 78.72,-73.46 84.17,-100.54 -26.01,35.36 -65.47,56.6 -114.27,31.56 -33.61,-17.24 -58.75,-88.27 -159.87,-85.05zm-133.57 160.46c-94.4,3 -122.46,70.44 -128.89,106.97 8.38,-13.54 34.78,-43.26 73.65,-43.26 45.3,0 79.79,50.56 100.83,66.34 25.57,19.18 76.94,44.49 144.38,23.97 53.78,-16.37 78.72,-73.46 84.17,-100.54 -26.01,35.36 -65.47,56.6 -114.28,31.56 -33.61,-17.24 -58.75,-88.26 -159.87,-85.05z"/>
  </g>
 </g>
</svg>
