<?xml version="1.0" encoding="UTF-8"?>
<!DOCTYPE svg PUBLIC "-//W3C//DTD SVG 1.1//EN" "http://www.w3.org/Graphics/SVG/1.1/DTD/svg11.dtd">
<!-- Creator: CorelDRAW -->
<svg xmlns="http://www.w3.org/2000/svg" xml:space="preserve" width="413px" height="413px" version="1.1" shape-rendering="geometricPrecision" text-rendering="geometricPrecision" image-rendering="optimizeQuality" fill-rule="evenodd" clip-rule="evenodd"
viewBox="0 0 3864.97 3864.97"
 xmlns:xlink="http://www.w3.org/1999/xlink"
 xmlns:xodm="http://www.corel.com/coreldraw/odm/2003">
 <defs>
   <linearGradient id="id0" gradientUnits="userSpaceOnUse" x1="1932.49" y1="0" x2="1932.49" y2="3864.97">
    <stop offset="0" stop-opacity="1" stop-color="#3B82F6"/>
    <stop offset="1" stop-opacity="1" stop-color="#9FCBF2"/>
   </linearGradient>
 </defs>
 <g id="Camada_x0020_1">
  <metadata id="CorelCorpID_0Corel-Layer"/>
  <path fill="url(#id0)" d="M1932.49 0c1067.28,0 1932.48,865.2 1932.48,1932.49 0,1067.28 -865.2,1932.48 -1932.48,1932.48 -1067.29,0 -1932.49,-865.2 -1932.49,-1932.48 0,-1067.29 865.2,-1932.49 1932.49,-1932.49zm-977.47 717.78l1954.93 0c131,0 237.24,106.24 237.24,237.24l0 1954.93c0,131 -106.24,237.24 -237.24,237.24l-1954.93 0c-131,0 -237.24,-106.24 -237.24,-237.24l0 -1954.93c0,-131 106.24,-237.24 237.24,-237.24zm1266.62 1933.21l0 237.54c38.61,19.79 84.28,34.63 137.01,44.53 52.72,9.9 108.29,14.84 166.71,14.84 56.93,0 111.02,-5.44 162.25,-16.33 51.24,-10.88 96.18,-28.82 134.79,-53.81 38.62,-24.99 69.19,-57.65 91.71,-97.98 22.53,-40.33 33.79,-90.19 33.79,-149.58 0,-43.05 -6.43,-80.79 -19.3,-113.2 -12.88,-32.41 -31.44,-61.23 -55.7,-86.47 -24.26,-25.24 -53.35,-47.88 -87.26,-67.93 -33.91,-20.04 -72.15,-38.97 -114.72,-56.78 -31.2,-12.86 -59.17,-25.36 -83.93,-37.49 -24.74,-12.12 -45.78,-24.49 -63.12,-37.11 -17.32,-12.63 -30.69,-25.99 -40.09,-40.09 -9.41,-14.1 -14.12,-30.06 -14.12,-47.88 0,-16.32 4.21,-31.04 12.62,-44.16 8.43,-13.12 20.31,-24.37 35.65,-33.78 15.35,-9.4 34.17,-16.7 56.44,-21.9 22.28,-5.19 47.03,-7.78 74.26,-7.78 19.8,0 40.72,1.48 62.75,4.45 22.04,2.97 44.19,7.55 66.48,13.72 22.27,6.2 43.92,13.99 64.97,23.39 21.04,9.41 40.46,20.29 58.29,32.67l0 -221.95c-36.14,-13.86 -75.63,-24.12 -118.44,-30.81 -42.82,-6.68 -91.96,-10.02 -147.41,-10.02 -56.44,0 -109.91,6.06 -160.41,18.19 -50.48,12.12 -94.92,31.05 -133.29,56.78 -38.37,25.74 -68.69,58.52 -90.96,98.36 -22.29,39.83 -33.43,87.46 -33.43,142.88 0,70.77 20.43,131.15 61.28,181.13 40.83,49.98 102.84,92.29 186.01,126.93 32.68,13.36 63.12,26.47 91.34,39.35 28.22,12.86 52.61,26.22 73.14,40.08 20.56,13.85 36.77,28.95 48.65,45.28 11.88,16.33 17.82,34.88 17.82,55.68 0,15.33 -3.71,29.56 -11.14,42.68 -7.42,13.1 -18.69,24.49 -33.78,34.14 -15.11,9.65 -33.91,17.19 -56.44,22.64 -22.53,5.44 -48.89,8.16 -79.09,8.16 -51.49,0 -102.48,-9.03 -152.97,-27.09 -50.5,-18.06 -97.29,-45.15 -140.36,-81.28zm-399.33 -585.26l304.72 0 0 -194.93 -849.35 0 0 194.93 303.24 0 0 867.94 241.39 0 0 -867.94z"/>
 </g>
</svg>
