<?xml version="1.0" encoding="UTF-8"?>
<!DOCTYPE svg PUBLIC "-//W3C//DTD SVG 1.1//EN" "http://www.w3.org/Graphics/SVG/1.1/DTD/svg11.dtd">
<!-- Creator: CorelDRAW -->
<svg xmlns="http://www.w3.org/2000/svg" xml:space="preserve" version="1.1" shape-rendering="geometricPrecision" text-rendering="geometricPrecision" image-rendering="optimizeQuality" fill-rule="evenodd" clip-rule="evenodd"
viewBox="0 0 258.33 258.33"
 xmlns:xlink="http://www.w3.org/1999/xlink"
 xmlns:xodm="http://www.corel.com/coreldraw/odm/2003">
 <g id="Camada_x0020_1">
  <metadata id="CorelCorpID_0Corel-Layer"/>
  <path fill="white" d="M129.16 0c71.34,0 129.17,57.83 129.17,129.16 0,71.34 -57.83,129.17 -129.17,129.17 -71.33,0 -129.16,-57.83 -129.16,-129.17 0,-71.33 57.83,-129.16 129.16,-129.16zm49.68 130.94l0 78.63 30.73 -25.36 0 -77.06 -30.73 23.79zm-99.35 0l0 78.63 -30.74 -25.36 0 -77.06 30.74 23.79zm-30.74 -82.19l80.41 63.46 80.41 -63.46 0 40.72c-26.78,20.73 -53.78,41.32 -80.41,62.25 -26.84,-20.68 -53.6,-41.5 -80.41,-62.25l0 -40.72z"/>
 </g>
</svg>
