<?xml version="1.0" encoding="UTF-8"?>
<!DOCTYPE svg PUBLIC "-//W3C//DTD SVG 1.1//EN" "http://www.w3.org/Graphics/SVG/1.1/DTD/svg11.dtd">
<!-- Creator: CorelDRAW -->
<svg xmlns="http://www.w3.org/2000/svg" xml:space="preserve" version="1.1" shape-rendering="geometricPrecision" text-rendering="geometricPrecision" image-rendering="optimizeQuality" fill-rule="evenodd" clip-rule="evenodd"
viewBox="0 0 89.7 89.7"
 xmlns:xlink="http://www.w3.org/1999/xlink"
 xmlns:xodm="http://www.corel.com/coreldraw/odm/2003">
 <g id="Camada_x0020_1">
  <metadata id="CorelCorpID_0Corel-Layer"/>
  <path fill="#3B82F6" d="M44.85 0c24.77,0 44.85,20.08 44.85,44.85 0,24.77 -20.08,44.85 -44.85,44.85 -24.77,0 -44.85,-20.08 -44.85,-44.85 0,-24.77 20.08,-44.85 44.85,-44.85zm17.25 45.47l0 27.3 10.67 -8.8 0 -26.76 -10.67 8.26zm-34.5 0l0 27.3 -10.67 -8.8 0 -26.76 10.67 8.26zm-10.67 -28.54l27.92 22.03 27.92 -22.03 0 14.14c-9.3,7.2 -18.67,14.35 -27.92,21.61 -9.32,-7.18 -18.61,-14.41 -27.92,-21.61l0 -14.14z"/>
 </g>
</svg>
