<?xml version="1.0" encoding="UTF-8"?>
<!DOCTYPE svg PUBLIC "-//W3C//DTD SVG 1.1//EN" "http://www.w3.org/Graphics/SVG/1.1/DTD/svg11.dtd">
<!-- Creator: CorelDRAW -->
<svg xmlns="http://www.w3.org/2000/svg" xml:space="preserve" version="1.1" style="shape-rendering:geometricPrecision; text-rendering:geometricPrecision; image-rendering:optimizeQuality; fill-rule:evenodd; clip-rule:evenodd"
viewBox="0 0 3180.74 3782.8"
 xmlns:xlink="http://www.w3.org/1999/xlink"
 xmlns:xodm="http://www.corel.com/coreldraw/odm/2003">
 <defs>
  <style type="text/css">
   <![CDATA[
    .fil1 {fill:white;fill-rule:nonzero}
    .fil0 {fill:url(#id0);fill-rule:nonzero}
   ]]>
  </style>
  <linearGradient id="id0" gradientUnits="userSpaceOnUse" x1="1590.38" y1="3782.8" x2="1590.38" y2="0">
   <stop offset="0" style="stop-opacity:1; stop-color:#93C5FD"/>
   <stop offset="1" style="stop-opacity:1; stop-color:#1D4ED8"/>
  </linearGradient>
 </defs>
 <g id="Camada_x0020_1">
  <metadata id="CorelCorpID_0Corel-Layer"/>
  <path class="fil0" d="M3130.02 627.58l0 0.04c0,-0.04 0,-0.04 0,-0.04 0,0 -1538.65,-626.64 -1549.54,-627.58 0,0.33 20.65,0.94 20.65,0.94 -0.45,-0.3 -1.13,-0.61 -1.13,-0.94l0 1.87c0,-1.87 -1533.07,655.16 -1533.07,655.16l-2.01 0 -2.59 0c-43.56,175.61 -62.32,387.09 -62.32,591.33 0,1243.68 661.44,2148.11 1584.66,2534.44l0.86 0c923.22,-386.33 1595.22,-1305.48 1595.22,-2549.14 0,-204.25 -7.17,-414.43 -50.71,-606.08z"/>
  <polygon class="fil1" points="1960.14,950.3 2197.8,950.3 2197.8,2832.54 1911.03,2832.54 1911.03,1921.83 1590.38,2781.71 1267.11,1909.23 1267.11,2829.93 982.95,2829.93 982.95,950.3 1220.62,950.3 1590.38,1958.76 "/>
 </g>
</svg>
