<?xml version="1.0" encoding="UTF-8"?>
<!DOCTYPE svg PUBLIC "-//W3C//DTD SVG 1.1//EN" "http://www.w3.org/Graphics/SVG/1.1/DTD/svg11.dtd">
<!-- Creator: CorelDRAW -->
<svg xmlns="http://www.w3.org/2000/svg" xml:space="preserve" version="1.1" shape-rendering="geometricPrecision" text-rendering="geometricPrecision" image-rendering="optimizeQuality" fill-rule="evenodd" clip-rule="evenodd"
viewBox="0 0 258.33 258.33"
 xmlns:xlink="http://www.w3.org/1999/xlink"
 xmlns:xodm="http://www.corel.com/coreldraw/odm/2003">
 <defs>
    <linearGradient id="id0" gradientUnits="userSpaceOnUse" x1="129.16" y1="258.33" x2="129.16" y2="0">
     <stop offset="0" stop-opacity="1" stop-color="#93C5FD"/>
     <stop offset="1" stop-opacity="1" stop-color="#1D4ED8"/>
    </linearGradient>
 </defs>
 <g id="Camada_x0020_1">
  <metadata id="CorelCorpID_0Corel-Layer"/>
  <g id="_1612058307856">
   <circle fill="url(#id0)" fill-rule="nonzero" cx="129.16" cy="129.16" r="129.16"/>
   <path fill="white" fill-rule="nonzero" d="M129.16 11.56c32.48,0 61.88,13.16 83.16,34.44 21.28,21.29 34.45,50.69 34.45,83.16 0,32.48 -13.17,61.88 -34.45,83.16 -21.28,21.28 -50.68,34.45 -83.16,34.45 -32.47,0 -61.87,-13.17 -83.16,-34.45 -21.28,-21.28 -34.44,-50.68 -34.44,-83.16 0,-32.47 13.16,-61.87 34.44,-83.16 21.29,-21.28 50.69,-34.44 83.16,-34.44zm76.15 41.45c-19.48,-19.49 -46.41,-31.54 -76.15,-31.54 -29.74,0 -56.66,12.05 -76.15,31.54 -19.49,19.49 -31.54,46.41 -31.54,76.15 0,29.74 12.05,56.67 31.54,76.15 19.49,19.49 46.41,31.55 76.15,31.55 29.74,0 56.67,-12.06 76.15,-31.55 19.49,-19.48 31.55,-46.41 31.55,-76.15 0,-29.74 -12.06,-56.66 -31.55,-76.15z"/>
   <polygon fill="white" fill-rule="nonzero" points="154.58,64.47 170.91,64.47 170.91,193.85 151.2,193.85 151.2,131.25 129.16,190.36 106.94,130.39 106.94,193.67 87.41,193.67 87.41,64.47 103.75,64.47 129.16,133.79 "/>
  </g>
 </g>
</svg>
