<?xml version="1.0" encoding="UTF-8"?>
<!DOCTYPE svg PUBLIC "-//W3C//DTD SVG 1.1//EN" "http://www.w3.org/Graphics/SVG/1.1/DTD/svg11.dtd">
<!-- Creator: CorelDRAW -->
<svg xmlns="http://www.w3.org/2000/svg" xml:space="preserve" width="49px" height="33px" version="1.1" style="shape-rendering:geometricPrecision; text-rendering:geometricPrecision; image-rendering:optimizeQuality; fill-rule:evenodd; clip-rule:evenodd"
viewBox="0 0 48.65 32.39"
 xmlns:xlink="http://www.w3.org/1999/xlink"
 xmlns:xodm="http://www.corel.com/coreldraw/odm/2003">
 <defs>
  <style type="text/css">
   <![CDATA[
    .fil1 {fill:none}
    .fil0 {fill:url(#id0);fill-rule:nonzero}
   ]]>
  </style>
  <linearGradient id="id0" gradientUnits="userSpaceOnUse" x1="24.33" y1="31.87" x2="24.33" y2="0.53">
   <stop offset="0" style="stop-opacity:1; stop-color:#93C5FD"/>
   <stop offset="1" style="stop-opacity:1; stop-color:#1D4ED8"/>
  </linearGradient>
 </defs>
 <g id="Camada_x0020_1">
  <metadata id="CorelCorpID_0Corel-Layer"/>
  <path class="fil0" d="M30.2 12.28l3.92 0 0 3.92 -3.92 0 0 -3.92zm3.92 -7.84l3.92 0 0 -3.91 -3.92 0 0 3.91 -3.92 0 0 3.92 -11.75 0 0 -3.92 -3.92 0 0 -3.91 -3.92 0 0 3.91 3.92 0 0 3.92 -3.92 0 0 3.92 -3.91 0 0 -7.84 -3.92 0 0 15.67 3.92 0 0 3.92 3.91 0 0 3.92 -3.91 0 0 3.92 3.91 0 0 -3.92 3.92 0 0 -3.92 19.59 0 0 3.92 3.92 0 0 3.92 3.92 0 0 -3.92 -3.92 0 0 -3.92 3.92 0 0 -3.92 3.91 0 0 -15.67 -3.91 0 0 7.84 -3.92 0 0 -3.92 -3.92 0 0 -3.92zm-19.59 7.84l3.92 0 0 3.92 -3.92 0 0 -3.92z"/>
  <rect class="fil1" width="48.65" height="32.39"/>
 </g>
</svg>
