<?xml version="1.0" encoding="UTF-8"?>
<!DOCTYPE svg PUBLIC "-//W3C//DTD SVG 1.1//EN" "http://www.w3.org/Graphics/SVG/1.1/DTD/svg11.dtd">
<!-- Creator: CorelDRAW -->
<svg xmlns="http://www.w3.org/2000/svg" xml:space="preserve" width="25mm" height="25mm" version="1.1" style="shape-rendering:geometricPrecision; text-rendering:geometricPrecision; image-rendering:optimizeQuality; fill-rule:evenodd; clip-rule:evenodd"
viewBox="0 0 2010.22 2010.22"
 xmlns:xlink="http://www.w3.org/1999/xlink"
 xmlns:xodm="http://www.corel.com/coreldraw/odm/2003">
 <defs>
  <style type="text/css">
   <![CDATA[
    .fil0 {fill:#3B82F6}
   ]]>
  </style>
 </defs>
 <g id="Camada_x0020_1">
  <metadata id="CorelCorpID_0Corel-Layer"/>
  <path class="fil0" d="M1005.11 0c555.11,0 1005.11,450 1005.11,1005.11 0,555.11 -450,1005.11 -1005.11,1005.11 -555.11,0 -1005.11,-450 -1005.11,-1005.11 0,-555.11 450,-1005.11 1005.11,-1005.11zm477.28 527.83l-954.56 0c-87.85,0 -159.1,71.23 -159.1,159.1l0 636.37c0,87.86 71.24,159.1 159.1,159.1l954.56 0c87.85,0 159.09,-71.23 159.09,-159.1l0 -636.37c0,-87.86 -71.23,-159.1 -159.09,-159.1zm-261.87 424.54l336.75 -288.59c2.33,7.46 4.66,14.92 4.66,23.15l0 636.37c0,5.52 -2.1,10.42 -3.19,15.62l-338.22 -386.54zm261.87 -344.99c5.28,0 9.94,2.01 14.91,3.02l-492.19 421.9 -492.2 -421.9c4.98,-1.01 9.63,-3.02 14.92,-3.02l954.56 0zm-1030.97 731.45c-1.09,-5.21 -3.14,-10.03 -3.14,-15.54l0 -636.37c0,-8.23 2.37,-15.69 4.7,-23.15l336.65 288.51 -338.2 386.55zm76.4 64c-8.04,0 -15.34,-2.32 -22.68,-4.58l344.9 -394.16 129.19 110.7c7.41,6.46 16.66,9.63 25.87,9.63 9.21,0 18.45,-3.18 25.87,-9.63l129.18 -110.69 344.9 394.15c-7.29,2.26 -14.6,4.58 -22.68,4.58l-954.56 0z"/>
 </g>
</svg>
