<?xml version="1.0" encoding="UTF-8"?>
<!DOCTYPE svg PUBLIC "-//W3C//DTD SVG 1.1//EN" "http://www.w3.org/Graphics/SVG/1.1/DTD/svg11.dtd">
<!-- Creator: CorelDRAW -->
<svg xmlns="http://www.w3.org/2000/svg" xml:space="preserve" width="413px" height="413px" version="1.1" shape-rendering="geometricPrecision" text-rendering="geometricPrecision" image-rendering="optimizeQuality" fill-rule="evenodd" clip-rule="evenodd"
viewBox="0 0 123.18 123.18"
 xmlns:xlink="http://www.w3.org/1999/xlink"
 xmlns:xodm="http://www.corel.com/coreldraw/odm/2003">
 <defs>
   <linearGradient id="id0" gradientUnits="userSpaceOnUse" x1="61.59" y1="0" x2="61.59" y2="123.18">
    <stop offset="0" stop-opacity="1" stop-color="#3B82F6"/>
    <stop offset="1" stop-opacity="1" stop-color="#7FC3FF"/>
   </linearGradient>
 </defs>
 <g id="Camada_x0020_1">
  <metadata id="CorelCorpID_0Corel-Layer"/>
  <path fill="url(#id0)" d="M61.59 0c34.02,0 61.59,27.57 61.59,61.59 0,34.02 -27.57,61.59 -61.59,61.59 -34.02,0 -61.59,-27.57 -61.59,-61.59 0,-34.02 27.57,-61.59 61.59,-61.59zm29.25 32.34l-58.5 0c-5.38,0 -9.74,4.37 -9.74,9.75l0 39c0,5.38 4.36,9.75 9.74,9.75l58.5 0c5.38,0 9.74,-4.37 9.74,-9.75l0 -39c0,-5.38 -4.36,-9.75 -9.74,-9.75zm-16.05 26.02l20.63 -17.69c0.15,0.46 0.29,0.92 0.29,1.42l0 39c0,0.34 -0.13,0.64 -0.2,0.96l-20.72 -23.69 0 0zm16.05 -21.14c0.32,0 0.61,0.12 0.91,0.18l-30.16 25.86 -30.16 -25.86c0.3,-0.06 0.59,-0.18 0.91,-0.18l58.5 0zm-63.18 44.82c-0.07,-0.32 -0.19,-0.62 -0.19,-0.95l0 -39c0,-0.5 0.14,-0.96 0.29,-1.42l20.63 17.68 -20.73 23.69 0 0zm4.68 3.92c-0.49,0 -0.94,-0.14 -1.39,-0.28l21.14 -24.15 7.91 6.78c0.46,0.4 1.02,0.59 1.59,0.59 0.56,0 1.13,-0.19 1.58,-0.59l7.92 -6.78 21.13 24.15c-0.44,0.14 -0.89,0.28 -1.39,0.28l-58.49 0 0 0z"/>
 </g>
</svg>
