<?xml version="1.0" encoding="UTF-8"?>
<!DOCTYPE svg PUBLIC "-//W3C//DTD SVG 1.1//EN" "http://www.w3.org/Graphics/SVG/1.1/DTD/svg11.dtd">
<!-- Creator: CorelDRAW -->
<svg xmlns="http://www.w3.org/2000/svg" xml:space="preserve" width="413px" height="413px" version="1.1" shape-rendering="geometricPrecision" text-rendering="geometricPrecision" image-rendering="optimizeQuality" fill-rule="evenodd" clip-rule="evenodd"
viewBox="0 0 85.11 85.11"
 xmlns:xlink="http://www.w3.org/1999/xlink"
 xmlns:xodm="http://www.corel.com/coreldraw/odm/2003">
 <defs>
   <linearGradient id="id0" gradientUnits="userSpaceOnUse" x1="42.56" y1="0" x2="42.56" y2="85.11">
    <stop offset="0" stop-opacity="1" stop-color="#3B82F6"/>
    <stop offset="1" stop-opacity="1" stop-color="#7FC3FF"/>
   </linearGradient>
 </defs>
 <g id="Camada_x0020_1">
  <metadata id="CorelCorpID_0Corel-Layer"/>
  <path fill="url(#id0)" d="M42.56 0c23.5,0 42.55,19.05 42.55,42.56 0,23.5 -19.05,42.55 -42.55,42.55 -23.51,0 -42.56,-19.05 -42.56,-42.55 0,-23.51 19.05,-42.56 42.56,-42.56zm-4.03 60.01l0 7.02c0,1.26 -1.02,2.28 -2.28,2.28 -1.27,0 -2.29,-1.02 -2.29,-2.28l0 -4c-6.86,1.13 -9.54,-2.27 -11.88,-5.24 -0.87,-1.1 -1.66,-2.11 -2.45,-2.31 -1.23,-0.3 -1.97,-1.55 -1.67,-2.78 0.31,-1.22 1.56,-1.97 2.78,-1.66 2.31,0.58 3.57,2.17 4.94,3.92 1.59,2.01 3.42,4.33 8.28,3.39 0,-0.24 -0.01,-0.5 -0.02,-0.75 0,-1.27 0.24,-2.52 0.7,-3.69 -2.79,-0.64 -5.51,-1.72 -7.79,-3.64 -3.29,-2.76 -5.51,-7.11 -5.51,-14.1l0 -0.07c0,-1.83 0.35,-3.65 1.01,-5.35l0.05 -0.13c0.52,-1.31 1.23,-2.54 2.11,-3.66 -0.09,-0.35 -0.17,-0.7 -0.24,-1.06 -0.15,-0.85 -0.23,-1.67 -0.23,-2.47 0,-0.92 0.1,-1.86 0.29,-2.8 0.19,-0.92 0.47,-1.82 0.84,-2.68 0.25,-0.58 0.74,-1.06 1.39,-1.27 0.01,0 3.48,-1.05 10.09,3.1 1.06,-0.25 2.16,-0.46 3.28,-0.6 1.47,-0.2 2.93,-0.3 4.35,-0.3 1.41,0 2.87,0.1 4.35,0.3 1.11,0.14 2.21,0.34 3.26,0.59 2.83,-1.86 4.82,-2.97 6.24,-3.49 2.86,-1.05 4.39,-0.35 5.25,1.67 0.37,0.86 0.65,1.76 0.84,2.68 0.19,0.94 0.29,1.88 0.29,2.8 0,0.8 -0.08,1.62 -0.23,2.47 -0.07,0.36 -0.14,0.71 -0.24,1.06 0.88,1.12 1.59,2.35 2.12,3.66 0.69,1.73 1.06,3.6 1.06,5.48 0,7.04 -2.23,11.41 -5.51,14.17 -2.28,1.92 -4.99,2.98 -7.79,3.6 0.46,1.16 0.7,2.41 0.7,3.67 -0.42,2.21 -0.02,7.03 -0.02,9.49 0,1.26 -1.03,2.29 -2.29,2.29 -1.27,0 -2.3,-1.03 -2.3,-2.29l0 -8.88 0.03 -0.61c0,-0.71 -0.14,-1.4 -0.4,-2.04 -0.26,-0.65 -0.65,-1.25 -1.13,-1.75 -0.88,-0.9 -0.86,-2.35 0.04,-3.23 0.38,-0.37 0.86,-0.58 1.35,-0.63 3.23,-0.37 6.51,-1.13 8.87,-3.11 2.3,-1.94 3.86,-5.2 3.86,-10.68 0,-1.32 -0.25,-2.6 -0.72,-3.78 -0.48,-1.2 -1.18,-2.3 -2.08,-3.25 -0.65,-0.68 -0.8,-1.65 -0.45,-2.47 0.17,-0.49 0.31,-1 0.4,-1.51 0.1,-0.51 0.14,-1.07 0.14,-1.66 0,-0.66 -0.06,-1.29 -0.18,-1.88 -0.06,-0.3 -0.14,-0.6 -0.23,-0.9 -1.22,0.48 -3.11,1.6 -5.93,3.49 -0.57,0.39 -1.26,0.48 -1.87,0.31 -1.24,-0.33 -2.47,-0.58 -3.67,-0.74 -1.21,-0.16 -2.47,-0.24 -3.76,-0.24 -1.3,0 -2.56,0.08 -3.76,0.24 -1.22,0.16 -2.45,0.41 -3.68,0.75 -0.71,0.18 -1.44,0.02 -1.98,-0.4 -3.13,-2.08 -4.97,-2.76 -5.94,-2.97l-0.11 0.46c-0.12,0.59 -0.18,1.22 -0.18,1.88 0,0.59 0.05,1.15 0.14,1.66 0.1,0.55 0.25,1.09 0.44,1.61 0.32,0.84 0.1,1.76 -0.48,2.37 -0.9,0.95 -1.61,2.05 -2.08,3.25l-0.05 0.1c-0.44,1.15 -0.68,2.4 -0.68,3.68l0 0.07c0,5.44 1.56,8.67 3.86,10.61 2.36,1.98 5.66,2.77 8.9,3.17 1.26,0.16 2.15,1.3 2,2.56 -0.07,0.56 -0.33,1.04 -0.72,1.4 -0.44,0.48 -0.8,1.04 -1.04,1.65 -0.26,0.64 -0.4,1.33 -0.4,2.04 -0.02,0.78 0.01,1.63 0.01,2.41z"/>
 </g>
</svg>
