<?xml version="1.0" encoding="UTF-8"?>
<!DOCTYPE svg PUBLIC "-//W3C//DTD SVG 1.1//EN" "http://www.w3.org/Graphics/SVG/1.1/DTD/svg11.dtd">
<!-- Creator: CorelDRAW -->
<svg xmlns="http://www.w3.org/2000/svg" xml:space="preserve" width="25mm" height="25mm" version="1.1" style="shape-rendering:geometricPrecision; text-rendering:geometricPrecision; image-rendering:optimizeQuality; fill-rule:evenodd; clip-rule:evenodd"
viewBox="0 0 2485.82 2485.82"
 xmlns:xlink="http://www.w3.org/1999/xlink"
 xmlns:xodm="http://www.corel.com/coreldraw/odm/2003">
 <defs>
  <style type="text/css">
   <![CDATA[
    .fil0 {fill:#3B82F6}
   ]]>
  </style>
 </defs>
 <g id="Camada_x0020_1">
  <metadata id="CorelCorpID_0Corel-Layer"/>
  <path class="fil0" d="M1242.91 0c686.44,0 1242.91,556.47 1242.91,1242.91 0,686.44 -556.47,1242.91 -1242.91,1242.91 -686.44,0 -1242.91,-556.47 -1242.91,-1242.91 0,-686.44 556.47,-1242.91 1242.91,-1242.91zm-117.51 1752.57l-0.06 205c0,36.86 -29.89,66.75 -66.73,66.75 -36.86,0 -66.74,-29.89 -66.74,-66.75l0.03 -116.66c-200.37,32.92 -278.71,-66.46 -346.98,-153.09 -25.33,-32.17 -48.55,-61.65 -71.6,-67.39 -35.81,-8.97 -57.61,-45.32 -48.65,-81.13 8.97,-35.82 45.31,-57.61 81.13,-48.65 67.39,16.83 104.19,63.54 144.33,114.49 46.35,58.84 99.75,126.55 241.8,99.15 0,-7.06 -0.45,-14.79 -0.81,-21.91 0,-37.18 7.19,-73.82 20.71,-107.98 -81.66,-18.66 -161.09,-50.06 -227.75,-106.11 -95.9,-80.67 -160.93,-207.64 -160.93,-411.94l0 -1.95c0,-53.61 10.24,-106.64 29.62,-156.39l1.4 -3.83c15.24,-38.07 35.96,-74.07 61.66,-106.66 -2.7,-10.28 -4.99,-20.69 -6.89,-31.15 -4.45,-24.7 -6.72,-48.85 -6.72,-72.1 0,-26.77 2.87,-54.17 8.49,-81.62 5.53,-27.02 13.73,-53.34 24.41,-78.34 7.4,-16.97 21.64,-30.91 40.55,-37.17 0.31,-0.1 101.61,-30.74 294.64,90.48 31.13,-7.34 63.17,-13.24 95.8,-17.56 43.13,-5.73 85.63,-8.64 127.04,-8.64 41.4,0 83.92,2.91 127.06,8.64 32.64,4.35 64.53,10.17 95.4,17.44 82.62,-54.34 140.67,-86.98 182.11,-102.11 83.68,-30.6 128.18,-10.26 153.44,48.87 10.7,25 18.91,51.34 24.45,78.38 5.63,27.45 8.51,54.83 8.51,81.62 0,23.25 -2.28,47.4 -6.73,72.1 -1.91,10.46 -4.19,20.87 -6.9,31.15 25.7,32.59 46.43,68.56 61.67,106.64 20.29,50.75 31.02,105.14 31.02,160.17 0,205.59 -65.04,333.29 -160.93,413.96 -66.49,55.89 -145.76,86.97 -227.37,104.95 13.37,33.94 20.46,70.38 20.46,107.31 -12.42,64.47 -0.7,205.18 -0.7,277.02 0,36.98 -30,66.99 -66.98,66.99 -36.98,0 -66.99,-30.01 -66.99,-66.99l0 -259.29 0.91 -17.73c-0.22,-20.71 -4.26,-41.01 -11.79,-59.68 -7.68,-18.94 -18.85,-36.33 -33.01,-50.92 -25.69,-26.44 -25.13,-68.76 1.32,-94.47 11.09,-10.78 24.96,-16.93 39.25,-18.5 94.42,-10.56 190.3,-32.92 259.08,-90.74 67.22,-56.53 112.78,-151.72 112.78,-311.9 0,-38.43 -7.32,-75.9 -21.11,-110.42 -13.93,-34.9 -34.53,-67.19 -60.81,-94.81 -18.9,-19.87 -23.16,-48.33 -13.13,-72.09 5.2,-14.41 9.2,-29.24 11.88,-44.2 2.7,-15.01 4.1,-31.29 4.1,-48.54 0,-19.2 -1.82,-37.63 -5.37,-54.93 -1.79,-8.82 -4.08,-17.61 -6.81,-26.31 -35.42,14.07 -90.59,46.71 -173.15,102.06 -16.68,11.2 -36.61,13.82 -54.63,8.96 -36.26,-9.62 -72.14,-16.93 -107.25,-21.6 -35.26,-4.69 -72,-7.07 -109.78,-7.07 -37.75,0 -74.51,2.38 -109.76,7.07 -35.45,4.7 -71.47,12.02 -107.5,21.79 -20.8,5.54 -41.92,0.65 -57.82,-11.43 -91.32,-60.82 -144.94,-80.79 -173.37,-86.99l-3.15 13.53c-3.55,17.3 -5.36,35.77 -5.36,54.93 0,17.25 1.38,33.53 4.1,48.54 2.86,15.89 7.19,31.66 12.89,46.94 9.2,24.68 2.84,51.39 -14.18,69.28 -26.23,27.68 -46.82,59.99 -60.78,94.9l-1.25 2.93c-12.98,33.63 -19.84,70.07 -19.84,107.53l0 1.95c0,158.81 45.55,253.35 112.77,309.88 68.89,57.94 165.13,80.96 259.87,92.71 36.69,4.45 62.81,37.86 58.35,74.56 -1.98,16.36 -9.72,30.59 -20.95,40.97 -12.96,14.04 -23.29,30.51 -30.54,48.35 -7.52,18.6 -11.51,38.85 -11.51,59.56 -0.8,22.72 0.31,47.39 0.31,70.18z"/>
 </g>
</svg>
