<?xml version="1.0" encoding="UTF-8"?>
<!DOCTYPE svg PUBLIC "-//W3C//DTD SVG 1.1//EN" "http://www.w3.org/Graphics/SVG/1.1/DTD/svg11.dtd">
<!-- Creator: CorelDRAW -->
<svg xmlns="http://www.w3.org/2000/svg" xml:space="preserve" width="413px" height="413px" version="1.1" shape-rendering="geometricPrecision" text-rendering="geometricPrecision" image-rendering="optimizeQuality" fill-rule="evenodd" clip-rule="evenodd"
viewBox="0 0 374.29 374.29"
 xmlns:xlink="http://www.w3.org/1999/xlink"
 xmlns:xodm="http://www.corel.com/coreldraw/odm/2003">
 <defs>
   <linearGradient id="id0" gradientUnits="userSpaceOnUse" x1="187.15" y1="0" x2="187.15" y2="374.29">
    <stop offset="0" stop-opacity="1" stop-color="#3B82F6"/>
    <stop offset="1" stop-opacity="1" stop-color="#9FCBF2"/>
   </linearGradient>
 </defs>
 <g id="Camada_x0020_1">
  <metadata id="CorelCorpID_0Corel-Layer"/>
  <path fill="url(#id0)" d="M187.15 0c103.35,0 187.14,83.79 187.14,187.15 0,103.35 -83.78,187.14 -187.14,187.14 -103.36,0 -187.15,-83.78 -187.15,-187.14 0,-103.36 83.79,-187.15 187.15,-187.15zm-79.29 87.1c-15.36,0 -25.41,10.08 -25.41,23.32 0,12.97 9.76,23.33 24.82,23.33l0.28 0c15.66,0 25.4,-10.37 25.4,-23.33 -0.3,-13.24 -9.74,-23.32 -25.09,-23.32zm183.98 122.67l0 77.42 -44.89 0 0 -72.24c0,-18.13 -6.48,-30.52 -22.73,-30.52 -12.4,0 -19.77,8.34 -23.03,16.42 -1.17,2.88 -1.48,6.89 -1.48,10.94l0 75.39 -44.89 0c0,0 0.6,-122.34 0,-135l44.89 0 0 19.13c-0.09,0.15 -0.22,0.3 -0.29,0.44l0.29 0 0 -0.44c5.97,-9.18 16.61,-22.3 40.46,-22.3 29.54,0 51.67,19.3 51.67,60.76l0 0zm-206.72 77.42l44.87 0 0 -135.01 -44.87 0 0 135.01z"/>
 </g>
</svg>
