<?xml version="1.0" encoding="UTF-8"?>
<!DOCTYPE svg PUBLIC "-//W3C//DTD SVG 1.1//EN" "http://www.w3.org/Graphics/SVG/1.1/DTD/svg11.dtd">
<!-- Creator: CorelDRAW -->
<svg xmlns="http://www.w3.org/2000/svg" xml:space="preserve" width="25mm" height="25mm" version="1.1" style="shape-rendering:geometricPrecision; text-rendering:geometricPrecision; image-rendering:optimizeQuality; fill-rule:evenodd; clip-rule:evenodd"
viewBox="0 0 784.17 784.17"
 xmlns:xlink="http://www.w3.org/1999/xlink"
 xmlns:xodm="http://www.corel.com/coreldraw/odm/2003">
 <defs>
  <style type="text/css">
   <![CDATA[
    .fil0 {fill:#3B82F6}
   ]]>
  </style>
 </defs>
 <g id="Camada_x0020_1">
  <metadata id="CorelCorpID_0Corel-Layer"/>
  <path class="fil0" d="M392.09 0c216.54,0 392.09,175.54 392.09,392.09 0,216.54 -175.54,392.09 -392.09,392.09 -216.54,0 -392.09,-175.54 -392.09,-392.09 0,-216.54 175.54,-392.09 392.09,-392.09zm-166.12 182.48c-32.17,0 -53.22,21.12 -53.22,48.87 0,27.16 20.44,48.88 51.98,48.88l0.61 0c32.8,0 53.2,-21.73 53.2,-48.88 -0.62,-27.75 -20.4,-48.87 -52.57,-48.87zm385.46 257l0 162.21 -94.04 -0 0 -151.34c0,-38 -13.58,-63.95 -47.63,-63.95 -25.98,0 -41.42,17.47 -48.24,34.39 -2.47,6.05 -3.11,14.44 -3.11,22.92l0 157.97 -94.05 -0c0,0 1.26,-256.32 0,-282.85l94.06 0 0 40.08c-0.19,0.32 -0.46,0.62 -0.62,0.93l0.62 0 0 -0.93c12.5,-19.23 34.79,-46.72 84.76,-46.72 61.88,0 108.26,40.43 108.26,127.29zm-433.1 162.21l94.02 0 0 -282.86 -94.02 0 0 282.86z"/>
 </g>
</svg>
