<?xml version="1.0" encoding="UTF-8"?>
<!DOCTYPE svg PUBLIC "-//W3C//DTD SVG 1.1//EN" "http://www.w3.org/Graphics/SVG/1.1/DTD/svg11.dtd">
<!-- Creator: CorelDRAW -->
<svg xmlns="http://www.w3.org/2000/svg" xml:space="preserve" width="25mm" height="25mm" version="1.1" style="shape-rendering:geometricPrecision; text-rendering:geometricPrecision; image-rendering:optimizeQuality; fill-rule:evenodd; clip-rule:evenodd"
viewBox="0 0 712.04 712.04"
 xmlns:xlink="http://www.w3.org/1999/xlink"
 xmlns:xodm="http://www.corel.com/coreldraw/odm/2003">
 <defs>
  <style type="text/css">
   <![CDATA[
    .fil0 {fill:#3B82F6}
   ]]>
  </style>
 </defs>
 <g id="Camada_x0020_1">
  <metadata id="CorelCorpID_0Corel-Layer"/>
  <path class="fil0" d="M356.02 0c196.63,0 356.02,159.4 356.02,356.02 0,196.63 -159.4,356.02 -356.02,356.02 -196.63,0 -356.02,-159.4 -356.02,-356.02 0,-196.63 159.4,-356.02 356.02,-356.02zm-131.02 160.31c4.75,0 17.69,13.01 21.05,16.38 3.41,3.41 6.05,5.74 9.09,9.64 2.77,3.57 5.76,6.44 8.64,10.08 6.85,8.66 17.84,23.53 23.38,32.79 4.14,6.92 10.97,17.14 13.31,25.09 1.03,3.53 1.02,3.65 -0.84,6.1 -1.59,2.11 -2.96,2.99 -4.96,4.47 -7.62,5.61 -14.12,9.83 -22.5,14.94l-11.44 7.29c-30.3,19.98 -31.36,31.82 -14.09,60.92 18.98,31.99 38.58,55.71 66.22,80.13l27.26 22.1c10.44,7.8 40.34,26.61 53.37,26.61 9.54,0 18.37,-8.85 23.18,-14.26 2.59,-2.91 5.65,-7.38 7.93,-10.79 6.66,-10 19.23,-32.44 26.53,-39.06 4.67,-4.22 10.56,0.38 18.95,4.54 4.27,2.11 7.62,4.49 11.75,6.97 16.21,9.75 39.76,27.96 52.7,40.9 3,3 17.24,17.42 17.24,21.06 0,11.11 -12.98,27.5 -20.17,35.99 -9.17,10.84 -29.11,29.53 -43.65,29.53 -12.87,0 -15.32,-0.5 -27.94,-1.84 -5.96,-0.64 -15.31,-2.56 -20.74,-3.94 -45.41,-11.54 -92.41,-35.91 -128.58,-65.43l-26.34 -22.17c-4.31,-4.34 -8.05,-7.21 -12.32,-11.5l-23.82 -25.53c-8.34,-8.57 -25.72,-31.58 -32.05,-41.13 -3.33,-5.03 -6.37,-9.19 -9.51,-14.32 -16.86,-27.52 -28.49,-51.99 -37.91,-83.76 -2.83,-9.53 -6.75,-31.52 -7.5,-41.01 -2.15,-27.38 2.64,-31.47 16.25,-48.33 6.82,-8.47 5.48,-6.04 11.99,-11.83 7.04,-6.27 25.4,-20.62 35.55,-20.62zm-86.8 64.68c0,26.9 5.56,53.5 12.43,74.36 16.31,49.52 41.94,89.22 74.25,129.12l9.97 11.3c2.1,2.73 2.9,3.47 5.25,5.81 1.95,1.94 3.75,3.52 5.53,5.54l16.17 16.17c4.16,3.66 6.42,6.65 10.98,10.29l17.37 14.96c23.39,18.26 58.45,43.32 85.34,54.21 4.65,1.88 9.88,4.6 14.7,6.58 5.41,2.21 10.7,3.93 16.06,6.07 24.15,9.62 54.57,14.32 81.28,14.46l1.27 0c29.68,0 69.29,-41.62 80.48,-68.42 9.29,-22.25 4.63,-32.4 -16.02,-53.04 -19.23,-19.21 -75.05,-64.03 -99.35,-64.03 -12.69,0 -24.66,14.22 -30.91,24.39l-15.42 24.58c-3.86,5.79 -7.77,11.52 -13.08,15.86l-1.86 1.54c-7.78,-4.12 -11.96,-5.13 -21.97,-11.22 -9.38,-5.7 -22.09,-13.69 -30.16,-20.9l-34.88 -32.34c-12.05,-11.91 -28.09,-34.08 -36.75,-48.35 -5.74,-9.45 -7.55,-14.95 -11.54,-22.49 8.78,-10.09 13.13,-12.56 26.34,-20.46 12.92,-7.74 40.04,-23.35 40.04,-39.96 0,-16.99 -17.72,-41.35 -26.72,-54.97 -11.8,-17.84 -49.61,-65.86 -70.29,-65.86l-0.84 0c-8.46,0.07 -11.14,1.23 -19.23,4.61 -10.65,4.45 -23.39,13.84 -32.06,21.55 -14.58,12.98 -36.37,36.09 -36.37,60.64z"/>
 </g>
</svg>
