<?xml version="1.0" encoding="UTF-8"?>
<!DOCTYPE svg PUBLIC "-//W3C//DTD SVG 1.1//EN" "http://www.w3.org/Graphics/SVG/1.1/DTD/svg11.dtd">
<!-- Creator: CorelDRAW -->
<svg xmlns="http://www.w3.org/2000/svg" xml:space="preserve" width="413px" height="413px" version="1.1" shape-rendering="geometricPrecision" text-rendering="geometricPrecision" image-rendering="optimizeQuality" fill-rule="evenodd" clip-rule="evenodd"
viewBox="0 0 166.41 166.41"
 xmlns:xlink="http://www.w3.org/1999/xlink"
 xmlns:xodm="http://www.corel.com/coreldraw/odm/2003">
 <defs>
   <linearGradient id="id0" gradientUnits="userSpaceOnUse" x1="83.21" y1="0" x2="83.21" y2="166.41">
    <stop offset="0" stop-opacity="1" stop-color="#3B82F6"/>
    <stop offset="1" stop-opacity="1" stop-color="#9FCBF2"/>
   </linearGradient>
 </defs>
 <g id="Camada_x0020_1">
  <metadata id="CorelCorpID_0Corel-Layer"/>
  <path fill="url(#id0)" d="M83.21 0c45.95,0 83.2,37.25 83.2,83.21 0,45.95 -37.25,83.2 -83.2,83.2 -45.96,0 -83.21,-37.25 -83.21,-83.2 0,-45.96 37.25,-83.21 83.21,-83.21zm-30.63 37.47c1.11,0 4.14,3.04 4.92,3.82 0.8,0.8 1.42,1.34 2.13,2.26 0.65,0.83 1.34,1.5 2.02,2.35 1.6,2.03 4.17,5.5 5.46,7.67 0.97,1.61 2.57,4 3.11,5.86 0.24,0.82 0.24,0.85 -0.19,1.43 -0.37,0.49 -0.69,0.69 -1.16,1.04 -1.78,1.31 -3.3,2.3 -5.26,3.49l-2.67 1.71c-7.09,4.66 -7.33,7.43 -3.3,14.23 4.44,7.48 9.02,13.02 15.48,18.73l6.37 5.16c2.44,1.83 9.43,6.22 12.47,6.22 2.23,0 4.3,-2.06 5.42,-3.33 0.61,-0.68 1.32,-1.72 1.85,-2.52 1.56,-2.34 4.5,-7.58 6.2,-9.13 1.1,-0.99 2.47,0.09 4.43,1.06 1,0.5 1.78,1.05 2.75,1.63 3.79,2.28 9.29,6.54 12.31,9.56 0.71,0.7 4.03,4.07 4.03,4.92 0,2.6 -3.03,6.43 -4.71,8.41 -2.14,2.54 -6.8,6.9 -10.2,6.9 -3.01,0 -3.58,-0.11 -6.53,-0.43 -1.4,-0.15 -3.58,-0.59 -4.85,-0.92 -10.61,-2.69 -21.6,-8.39 -30.05,-15.29l-6.16 -5.18c-1,-1.01 -1.88,-1.69 -2.87,-2.69l-5.57 -5.96c-1.95,-2.01 -6.01,-7.39 -7.49,-9.62 -0.78,-1.17 -1.49,-2.15 -2.22,-3.34 -3.95,-6.44 -6.66,-12.15 -8.86,-19.58 -0.67,-2.23 -1.58,-7.37 -1.76,-9.58 -0.5,-6.4 0.62,-7.36 3.8,-11.3 1.59,-1.98 1.28,-1.41 2.8,-2.76 1.65,-1.47 5.94,-4.82 8.31,-4.82l-0.01 0zm-20.28 15.11c0,6.29 1.3,12.51 2.9,17.38 3.82,11.57 9.81,20.85 17.36,30.18l2.33 2.64c0.49,0.64 0.67,0.81 1.22,1.36 0.46,0.45 0.88,0.82 1.3,1.29l3.78 3.78c0.97,0.86 1.5,1.55 2.56,2.4l4.06 3.5c5.47,4.27 13.66,10.13 19.95,12.67 1.08,0.44 2.3,1.08 3.43,1.54 1.26,0.52 2.5,0.92 3.75,1.42 5.65,2.25 12.76,3.34 19,3.38l0.3 0c6.93,0 16.19,-9.73 18.81,-15.99 2.17,-5.2 1.08,-7.58 -3.75,-12.4 -4.49,-4.49 -17.54,-14.96 -23.22,-14.96 -2.96,0 -5.76,3.32 -7.22,5.69l-3.6 5.75c-0.91,1.35 -1.82,2.69 -3.06,3.71l-0.44 0.36c-1.81,-0.97 -2.79,-1.2 -5.13,-2.63 -2.19,-1.33 -5.16,-3.19 -7.05,-4.88l-8.15 -7.56c-2.82,-2.78 -6.57,-7.96 -8.59,-11.3 -1.34,-2.21 -1.76,-3.49 -2.7,-5.25 2.05,-2.36 3.07,-2.94 6.16,-4.79 3.02,-1.81 9.36,-5.45 9.36,-9.34 0,-3.97 -4.15,-9.66 -6.25,-12.84 -2.76,-4.17 -11.59,-15.39 -16.43,-15.39l-0.19 0c-1.98,0.01 -2.61,0.28 -4.5,1.07 -2.49,1.04 -5.46,3.24 -7.49,5.04 -3.41,3.03 -8.5,8.43 -8.5,14.17l0 0z"/>
 </g>
</svg>
